<?xml version="1.0" encoding="iso-8859-1"?>
<!-- Generator: Adobe Illustrator 27.9.0, SVG Export Plug-In . SVG Version: 6.00 Build 0)  -->
<svg xmlns="http://www.w3.org/2000/svg" xmlns:xlink="http://www.w3.org/1999/xlink" version="1.1" id="Capa_1" x="0px" y="0px" viewBox="0 0 512 512" style="enable-background:new 0 0 512 512;" xml:space="preserve">
<g>
	<g>
		<path style="fill:#FFBEDB;" d="M434.551,163.291c-42.773,0-77.449,19.141-77.449,42.753c0,18.13,20.453,33.612,49.309,39.829    l-13.35,32.451l31.888-29.866c3.147,0.215,6.346,0.338,9.601,0.338c42.773,0,77.449-19.141,77.449-42.752    C512,182.432,477.324,163.291,434.551,163.291z"/>
		<g>
			<path style="fill:#222A5C;" d="M383.223,208.99c-0.001,2.956-0.017,5.752-0.051,8.709c-2.056-0.092-4.094-0.169-6.122,0.2     c-2.193-4.787-4.496-9.49-6.4-14.403c-0.292,4.52-0.661,8.949-0.853,13.475l-5.421-0.15c-0.182-6.436-0.228-12.742-0.577-19.173     l9.813-0.05c1.645,4.264,2.811,8.681,4.542,12.924c-0.026-4.202-0.194-8.312-0.251-12.522l5.069,0.602     C383.1,202.083,383.227,205.505,383.223,208.99z"/>
			<path style="fill:#222A5C;" d="M403.423,216.995l-3.813,0.577c-0.534-1.705-1.081-3.382-1.582-5.094l-6.172,0.226l-0.778,3.339     h-3.865c0.465-5.682,0.99-11.265,1.456-16.939c3.866-0.724,7.773-0.801,11.694-0.628     C401.337,204.664,402.134,210.861,403.423,216.995z M397.15,209.065c-0.387-1.662-0.059-4.827-2.622-4.19     c-2.117-0.305-1.582,2.978-2.196,4.316L397.15,209.065z"/>
			<path style="fill:#222A5C;" d="M427.313,217.498c-2.047-0.233-4.068-0.218-6.098,0c0.121-3.871,0.001-7.73-0.125-11.594     l-5.271,11.919c-1.534-4.187-3.316-8.169-5.219-12.196l0.401,12.397c-1.635-0.082-3.245,0.057-4.868,0.201     c0.501-6.728,0.373-13.438,0.276-20.176c2.428,0.002,4.633-0.144,7.051-0.377c0.808,2.674,1.634,5.289,2.61,7.904     c1.028-2.49,2.439-4.842,3.79-7.176c2.28-0.065,4.469-0.144,6.75-0.176C426.845,204.644,427.279,211.073,427.313,217.498z"/>
			<path style="fill:#222A5C;" d="M447.388,216.995l-3.813,0.577c-0.533-1.705-1.081-3.382-1.582-5.094l-6.173,0.226l-0.778,3.339     h-3.865c0.465-5.682,0.99-11.265,1.455-16.939c3.866-0.724,7.773-0.801,11.694-0.628     C445.301,204.664,446.098,210.861,447.388,216.995z M441.114,209.065c-0.387-1.662-0.058-4.827-2.622-4.19     c-2.116-0.305-1.582,2.978-2.196,4.316L441.114,209.065z"/>
			<path style="fill:#222A5C;" d="M468.844,212.655c-1.602,6.669-13.336,3.449-18.543,3.965c0.049-1.706,0-3.397-0.151-5.07     c3.947-0.357,8.887,1.145,12.372-0.287c0.521-2.654-2.822-1.632-4.455-1.947c-4.301,0.077-8.785-0.245-8.368-5.747     c0.106-8.344,11.424-6.515,17.013-5.595c-0.082,1.944-0.086,3.89,0.175,5.823c-4.211,0.106-8.294,0.07-12.522,0.401     C452.436,209.322,468.823,203.14,468.844,212.655z"/>
			<path style="fill:#222A5C;" d="M485.782,202.465v1.757l-4.843,0.251c-0.3,4.244-0.115,8.491-0.502,12.724     c-1.618,0.095-3.25,0.158-4.868,0.1c0.158-4.059,0.194-8.092-0.125-12.145c-1.541,0.053-3.097,0.118-4.643,0.051     c-0.104-2.465-0.112-4.895-0.151-7.353c5.014,0.09,9.926,0.326,14.932,0.451C485.713,199.731,485.781,201.038,485.782,202.465z"/>
			<path style="fill:#222A5C;" d="M502.771,201.789c-3.289,0.171-6.479,0.33-9.762,0.602l-0.051,1.982l6.476-0.377     c0.252,1.606,0.276,3.198,0.225,4.818l-6.023,1.079l0.377,3.112c2.562-0.153,5.062-0.561,7.629-0.778     c0.245,1.656,0.403,3.382,0.853,4.993c-4.76-0.041-9.394,0.059-14.153,0.051c0.205-6.348,0.414-12.663,0.125-19.021     c4.677,0.051,9.351-0.103,14.028,0.2L502.771,201.789z"/>
		</g>
	</g>
	<g>
		<g>
			<g>
				<g>
					<polygon style="fill:#FF9509;" points="255.519,370.503 255.519,447.046 304.434,439.799 275.9,368.691      "/>
					<path style="fill:#FF9509;" d="M286.284,155.084c0,0-71.661-24.105-72.693-24.458c-0.707,0-25.844,34.539-47.584,64.623       L131.685,298.46c-12.582,1.983-25.762,7.092-29.838,19.347c-7.854,23.534,13.343,45.383,56.035,11.196l31.612,29.825       l146.669-43.14l20.939-62.611L286.284,155.084z"/>
				</g>
				<path style="fill:#555AFF;" d="M405.854,320.525c-103.591,77.775-224.52,95.792-237.781,86.607      c-8.37-5.788-10.082-47.883-10.191-78.128c-0.109-17.636,0.353-31.251,0.353-31.251s-12.935-1.467-26.55,0.707l2.772-59.46      c0,0,14.757-20.543,31.55-43.751c13.234,28.098,34.404,82.529,4.104,90.274l6.794,39.404c0,0,48.996-51.905,180.198-71.85      L405.854,320.525z"/>
				<g>
					<g>
						<path style="fill:#FF9509;" d="M281.539,204.345l-30.911,71.334c-20.721-10.191-15.734,12.279-15.734,12.279l91.145-10.241        C312.451,220.311,281.539,204.345,281.539,204.345z"/>
						<path style="fill:#222A5C;" d="M233.832,289.445l-0.266-1.192c-0.097-0.44-2.335-10.847,2.918-14.975        c3.153-2.476,8.114-2.078,14.743,1.182l-1.199,2.439c-5.532-2.72-9.636-3.231-11.861-1.488        c-2.83,2.22-2.633,7.935-2.164,11.056l88.355-9.928c-13.44-54.833-43.142-70.831-43.443-70.988l1.249-2.414        c1.284,0.663,31.623,16.912,45.197,74.267l0.354,1.493L233.832,289.445z"/>
					</g>
					<path style="fill:#222A5C;" d="M274.111,250.384c-1.566,0-3.069-0.367-4.501-1.101c-7.769-3.983-10.428-17.54-10.539-18.116       l2.67-0.508c0.024,0.129,2.522,12.834,9.112,16.208c2.205,1.129,4.603,1.063,7.323-0.202c1.871-0.869,3.073-2.219,3.673-4.127       c2.16-6.863-4.21-17.965-4.275-18.076l2.351-1.364c0.288,0.498,7.033,12.263,4.517,20.257       c-0.831,2.639-2.553,4.583-5.119,5.776C277.524,249.966,275.783,250.384,274.111,250.384z"/>
					
						<rect x="208.171" y="215.737" transform="matrix(0.7774 -0.629 0.629 0.7774 -90.3095 192.57)" style="fill:#555AFF;" width="37.534" height="16.303"/>
					
						<rect x="249.775" y="197.467" transform="matrix(0.9998 -0.0181 0.0181 0.9998 -3.6705 4.9694)" style="fill:#555AFF;" width="46.82" height="16.305"/>
					<path style="fill:#222A5C;" d="M135.249,333.77c-1.854-2.544-4.087-8.293,0.736-11.841c1.818-1.339,3.841-1.608,5.781-1.332       c-5.147-3.934-12.949-8.155-21.619-6.737c-4.553,0.745-7.498,2.414-8.755,4.961c-1.948,3.95,0.682,8.942,0.708,8.992       l-2.39,1.292c-0.138-0.254-3.325-6.252-0.764-11.47c1.662-3.39,5.284-5.562,10.762-6.46       c16.795-2.732,29.943,12.906,30.495,13.573l-1.928,1.9c-0.067-0.056-6.609-5.531-10.68-2.532       c-3.873,2.849-0.304,7.841-0.15,8.051L135.249,333.77z"/>
					<g>
						<path style="fill:#222A5C;" d="M224.472,301.496l50.613,6.794c0,0-20.381,62.842-32.61,63.861        C230.246,373.17,224.472,301.496,224.472,301.496z"/>
						<path style="fill:#F4E4CE;" d="M228.653,305.328l41.272,6.624C269.925,311.952,243.09,331.824,228.653,305.328z"/>
						<path style="fill:#FF80B5;" d="M231.427,341.392c0,0,6.255,42.502,19.135,20.381        C250.563,361.773,248.186,337.43,231.427,341.392z"/>
					</g>
					<path style="fill:#222A5C;" d="M243.611,260.503c-1.566,0-3.069-0.368-4.501-1.101c-7.769-3.983-10.428-17.54-10.538-18.116       l2.67-0.508c0.024,0.129,2.523,12.834,9.112,16.208c2.205,1.129,4.603,1.064,7.323-0.202c1.871-0.869,3.073-2.219,3.673-4.127       c2.16-6.863-4.21-17.965-4.275-18.077l2.351-1.364c0.288,0.498,7.033,12.263,4.517,20.257       c-0.831,2.639-2.553,4.583-5.119,5.776C247.024,260.085,245.283,260.503,243.611,260.503z"/>
				</g>
			</g>
			<g>
				<path style="fill:#F4E4CE;" d="M229.907,155.091c0,0-43.82,99.528-101.906,130.1c0,0-113.116-12.568-126.703-68.617      C-12.29,160.526,83.162,37.219,180.312,15.14s177.656,12.568,195.32,78.468c17.664,65.899-40.148,124.251-40.148,124.251      L229.907,155.091z"/>
				<g>
					<path style="fill:#FFB93F;" d="M216.473,24.608l-2.702-0.289C198.177,170.46,58.241,252.555,56.829,253.367l1.355,2.357       C59.608,254.905,200.729,172.147,216.473,24.608z"/>
					<path style="fill:#FFB93F;" d="M345.346,186.796l-115.12-67.835c1.77-4.562,3.457-9.253,5.053-14.066L338.726,145.3l0.99-2.532       l-103.599-40.465c7.984-24.805,13.53-52.914,15.019-84.569l-2.715-0.127c-4.514,95.956-46.462,159.227-80.857,195.408       c-37.297,39.234-74.012,55.979-74.378,56.144l1.112,2.479c0.37-0.166,37.493-17.08,75.153-56.663       c20.352-21.391,43.309-52.177,59.764-93.456l114.752,67.619L345.346,186.796z"/>
				</g>
			</g>
		</g>
		<g>
			<path style="fill:#F4E4CE;" d="M242.384,421.229l62.05-13.362l4.982,28.761l43.026,29.44c0,0-65.22,76.089-144.48,11.322     l41.215-33.969L242.384,421.229z"/>
			
				<rect x="269.276" y="420.541" transform="matrix(0.9913 -0.1319 0.1319 0.9913 -58.3642 39.7148)" style="fill:#848BF1;" width="2.717" height="79.845"/>
			<path style="fill:#848BF1;" d="M299.225,458.765c0,3.471-4.511,6.284-10.078,6.284c-5.565,0-10.078-2.813-10.078-6.284     c0-3.471,4.513-6.284,10.078-6.284C294.714,452.48,299.225,455.294,299.225,458.765z"/>
			<path style="fill:#848BF1;" d="M295.941,479.656c0,2.439-3.041,4.416-6.794,4.416c-3.752,0-6.794-1.977-6.794-4.416     c0-2.439,3.041-4.416,6.794-4.416C292.9,475.24,295.941,477.217,295.941,479.656z"/>
		</g>
	</g>
</g>
<g>
</g>
<g>
</g>
<g>
</g>
<g>
</g>
<g>
</g>
<g>
</g>
<g>
</g>
<g>
</g>
<g>
</g>
<g>
</g>
<g>
</g>
<g>
</g>
<g>
</g>
<g>
</g>
<g>
</g>
</svg>
