<?xml version="1.0" encoding="iso-8859-1"?>
<!-- Generator: Adobe Illustrator 27.9.0, SVG Export Plug-In . SVG Version: 6.00 Build 0)  -->
<svg xmlns="http://www.w3.org/2000/svg" xmlns:xlink="http://www.w3.org/1999/xlink" version="1.1" id="Capa_1" x="0px" y="0px" viewBox="0 0 512 512" style="enable-background:new 0 0 512 512;" xml:space="preserve">
<g>
	<g>
		<g>
			<path style="fill:#848BF1;" d="M512,146.066c0-47.177-45.777-85.419-102.251-85.419c-56.468,0-102.244,38.242-102.244,85.419     c0,34.456,24.436,64.128,59.608,77.632l9.744,57.251l31.111,2.55c0,0,10.892-33.708,17.695-53.051     C474.578,224.062,512,188.718,512,146.066z"/>
			<path style="fill:#222A5C;" d="M372.243,166.398c-1.207,0-2.438-0.169-3.69-0.509c-4.169-1.129-7.339-3.726-9.427-7.717     c-8.426-16.105,3.541-50.199,4.055-51.642l2.88,1.025c-0.12,0.34-12.033,34.277-4.222,49.2c1.7,3.249,4.159,5.271,7.515,6.182     c3.152,0.852,6.009,0.354,8.752-1.518c13.733-9.374,18.113-48.411,18.155-48.804l3.042,0.329     c-0.179,1.663-4.587,40.842-19.47,51.003C377.44,165.578,374.9,166.398,372.243,166.398z"/>
			<path style="fill:#222A5C;" d="M440.46,179.677c-1.207,0-2.438-0.169-3.69-0.509c-4.168-1.13-7.339-3.726-9.427-7.717     c-8.426-16.106,3.541-50.199,4.055-51.642l2.88,1.025c-0.119,0.341-12.033,34.277-4.222,49.2c1.7,3.249,4.159,5.271,7.515,6.182     c3.152,0.849,6.009,0.354,8.752-1.518c13.733-9.373,18.114-48.411,18.155-48.804l3.042,0.329     c-0.179,1.663-4.587,40.842-19.47,51.003C445.657,178.856,443.117,179.677,440.46,179.677z"/>
			<g>
				<path style="fill:#222A5C;" d="M389.607,164.866h28.303c0,0-5.355,51.944-14.151,50.797      C394.961,214.516,389.607,164.866,389.607,164.866z"/>
				<path style="fill:#F4E4CE;" d="M394.606,167.689h20.653C415.259,167.689,404.55,181.075,394.606,167.689z"/>
				<path style="fill:#FF80B5;" d="M411.817,191.402c0,0-5.624,32.754-12.048,15.49      C399.769,206.892,402.829,189.298,411.817,191.402z"/>
			</g>
			<g>
				<polygon style="fill:#FFB93F;" points="361.648,236.15 359.933,220.676 434.843,228.893 432.47,240.166     "/>
				
					<rect x="395.691" y="193.109" transform="matrix(0.0973 -0.9953 0.9953 0.0973 131.5658 601.2181)" style="fill:#FF9509;" width="3.06" height="69.941"/>
				
					<rect x="395.052" y="201.174" transform="matrix(0.0893 -0.996 0.996 0.0893 127.6623 608.5242)" style="fill:#FF9509;" width="3.06" height="66.561"/>
			</g>
		</g>
		<g>
			<g>
				<ellipse style="fill:#FF9509;" cx="271.23" cy="360.209" rx="17.02" ry="13.218"/>
				<polygon style="fill:#FFB93F;" points="294.097,381.708 250.224,382.254 248.007,360.209 297.811,361.65     "/>
			</g>
			<path style="fill:#F4E4CE;" d="M64.09,388.969c-5.8-1.452-7.494-4.516-7.891-6.832c-0.831-4.829,3.61-10.504,8.719-15.269     c-3.394,0.409-6.911,0.436-10.01-0.338c-2.976-0.744-3.52-2.834-3.615-3.698c-0.152-1.386-0.454-4.138,10.473-11.048     c-5.886,0.018-11.199-1.289-13.186-5.876c-0.855-1.977-0.729-4.076,0.349-5.908c1.85-3.143,6.705-5.371,12.039-6.925     c-7.177-2.193-11.253-5.419-12.352-9.728c-2.391-9.371,10.96-18.454,12.49-19.459l3.362,5.114     c-3.687,2.431-10.963,8.767-9.92,12.835c0.478,1.87,3.804,6.403,24.299,8.077l0.054,6.094     c-10.524,1.044-22.96,4.146-24.699,7.097c-0.081,0.14-0.096,0.163-0.003,0.373c1.551,3.592,14.226,2.331,24.624-1.044     l2.319,5.646c-8.382,4.201-17.767,9.659-21.866,12.914c6.532,0.351,14.925-2.36,17.997-3.617l2.851,5.38     c-9.123,6.061-18.49,14.877-17.892,18.342c0.122,0.716,1.374,1.439,3.349,1.932L64.09,388.969z"/>
			<polygon style="fill:#848BF1;" points="42.836,291.658 27.538,258.51 84.143,255.45 70.374,294.717    "/>
			<polygon style="fill:#222A5C;" points="0,279.419 157.069,292.169 430.917,263.1 427.343,307.977 7.649,320.216    "/>
			<g>
				<path style="fill:#FF9509;" d="M264.537,316.901c0,0,0.765,19.888,6.693,18.358c5.928-1.53,5.546-18.358,5.546-18.358H264.537z"/>
				<polygon style="fill:#FFB93F;" points="252.901,308.869 254.21,323.02 286.72,323.02 288.25,304.23     "/>
			</g>
			<g>
				<path style="fill:#FF9509;" d="M99.442,396.71c0,0-7.141-139.219,58.135-136.159c67.428,3.161,45.896,136.159,45.896,136.159      H99.442z"/>
				<path style="fill:#FFB93F;" d="M150.947,321.746c-12.092,0-21.929-10.449-21.929-23.292c0-12.843,9.837-23.292,21.929-23.292      c12.093,0,21.929,10.449,21.929,23.292C172.876,311.297,163.039,321.746,150.947,321.746z M150.947,278.222      c-10.404,0-18.869,9.076-18.869,20.232c0,11.156,8.465,20.232,18.869,20.232c10.404,0,18.87-9.076,18.87-20.232      C169.816,287.298,161.351,278.222,150.947,278.222z"/>
				<path style="fill:#FFB93F;" d="M163.532,297.435c0,7.696-4.966,13.935-11.092,13.935c-6.126,0-11.092-6.239-11.092-13.935      c0-7.697,4.966-13.936,11.092-13.936C158.566,283.499,163.532,289.738,163.532,297.435z"/>
			</g>
			<g>
				<polygon style="fill:#222A5C;" points="22.948,376.312 319.744,376.312 297.818,447.705 38.247,439.546     "/>
				<polygon style="fill:#FF9509;" points="27.538,430.876 311.072,437.507 304.953,460.964 33.149,460.964     "/>
				<rect x="30.944" y="388.884" style="fill:#FF9509;" width="280.128" height="3.06"/>
				
					<rect x="169.398" y="279.937" transform="matrix(0.0096 -1 1 0.0096 -241.4483 577.7079)" style="fill:#FF9509;" width="3.06" height="261.621"/>
				<g>
					
						<rect x="35.023" y="446.263" transform="matrix(0.0039 -1 1 0.0039 -409.0984 486.4013)" style="fill:#FFB93F;" width="9.179" height="4.59"/>
					<path style="fill:#FFB93F;" d="M286.442,454.104l-9.406-0.037l0.036-9.179l9.406,0.037L286.442,454.104z M267.633,454.031       l-9.407-0.036l0.036-9.179l9.406,0.036L267.633,454.031z M248.82,453.957l-9.406-0.036l0.036-9.179l9.406,0.036L248.82,453.957       z M230.007,453.884l-9.406-0.036l0.036-9.179l9.406,0.036L230.007,453.884z M211.194,453.812l-9.403-0.037l0.036-9.179       l9.404,0.037L211.194,453.812z M192.385,453.739l-9.406-0.037l0.036-9.179l9.406,0.037L192.385,453.739z M173.572,453.666       l-9.406-0.036l0.036-9.179l9.407,0.036L173.572,453.666z M154.759,453.593l-9.403-0.036l0.036-9.179l9.403,0.036       L154.759,453.593z M135.949,453.521l-9.406-0.037l0.036-9.179l9.406,0.037L135.949,453.521z M117.137,453.448l-9.406-0.037       l0.036-9.179l9.406,0.037L117.137,453.448z M98.324,453.375l-9.406-0.036l0.036-9.179l9.406,0.036L98.324,453.375z        M79.515,453.302l-9.406-0.036l0.036-9.179l9.406,0.036L79.515,453.302z M60.702,453.228l-9.406-0.036l0.036-9.179l9.406,0.036       L60.702,453.228z"/>
					
						<rect x="293.572" y="447.264" transform="matrix(0.0039 -1 1 0.0039 -152.5636 745.9548)" style="fill:#FFB93F;" width="9.179" height="4.59"/>
				</g>
			</g>
		</g>
	</g>
	<g>
		<path style="fill:#FF80B5;" d="M307.505,190.274c0,0-85.583,3.979-88.643-57.686L36.89,143.662l-5.946-92.626l257.306,9.611    l-15.34,71.941l-34.159-4.294C238.75,128.294,240.101,171.935,307.505,190.274z"/>
		<g>
			<path style="fill:#222A5C;" d="M68.274,94.816H52.356l0.164-3.348c2.507-0.082,5.071-0.124,7.691-0.124h7.73L68.274,94.816z"/>
			<path style="fill:#222A5C;" d="M78.155,106.434c0.714,3.492-3.735,2.874-5.976,2.543c-1.391-0.919-0.877-3.21-0.888-4.733     c0.302-2.276,3.529-1.305,5.229-1.469C78.551,102.698,77.972,105.135,78.155,106.434z"/>
			<path style="fill:#222A5C;" d="M97.048,94.816H81.131l0.164-3.348c2.507-0.082,5.071-0.124,7.691-0.124h7.73L97.048,94.816z"/>
			<path style="fill:#222A5C;" d="M106.927,106.434c0.714,3.492-3.735,2.874-5.976,2.543c-1.391-0.919-0.878-3.21-0.888-4.733     c0.302-2.276,3.529-1.305,5.229-1.469C107.323,102.698,106.744,105.135,106.927,106.434z"/>
			<path style="fill:#222A5C;" d="M134.297,106.434c0.714,3.492-3.735,2.874-5.976,2.543c-1.391-0.919-0.878-3.21-0.888-4.733     c0.302-2.276,3.529-1.305,5.229-1.469C134.693,102.698,134.115,105.135,134.297,106.434z"/>
			<path style="fill:#222A5C;" d="M144.633,106.434c0.714,3.492-3.735,2.874-5.976,2.543c-1.391-0.919-0.878-3.211-0.888-4.733     c0.301-2.276,3.529-1.305,5.229-1.469C145.029,102.698,144.45,105.135,144.633,106.434z"/>
			<path style="fill:#222A5C;" d="M172,106.434c0.714,3.492-3.735,2.874-5.976,2.543c-1.391-0.919-0.877-3.21-0.888-4.733     c0.302-2.276,3.529-1.305,5.229-1.469C172.396,102.698,171.817,105.135,172,106.434z"/>
			<path style="fill:#222A5C;" d="M190.894,94.816h-15.917l0.164-3.348c2.507-0.082,5.071-0.124,7.691-0.124h7.73L190.894,94.816z"/>
			<path style="fill:#222A5C;" d="M226.364,94.816h-15.917l0.164-3.348c2.507-0.082,5.071-0.124,7.691-0.124h7.73L226.364,94.816z"/>
			<path style="fill:#222A5C;" d="M244.801,94.816h-15.917l0.164-3.348c2.507-0.082,5.071-0.124,7.691-0.124h7.73L244.801,94.816z"/>
			<path style="fill:#222A5C;" d="M263.24,94.816h-15.917l0.164-3.348c2.507-0.082,5.071-0.124,7.691-0.124h7.73L263.24,94.816z"/>
		</g>
	</g>
</g>
<g>
</g>
<g>
</g>
<g>
</g>
<g>
</g>
<g>
</g>
<g>
</g>
<g>
</g>
<g>
</g>
<g>
</g>
<g>
</g>
<g>
</g>
<g>
</g>
<g>
</g>
<g>
</g>
<g>
</g>
</svg>
