<?xml version="1.0" encoding="iso-8859-1"?>
<!-- Generator: Adobe Illustrator 27.9.0, SVG Export Plug-In . SVG Version: 6.00 Build 0)  -->
<svg xmlns="http://www.w3.org/2000/svg" xmlns:xlink="http://www.w3.org/1999/xlink" version="1.1" id="Capa_1" x="0px" y="0px" viewBox="0 0 512 512" style="enable-background:new 0 0 512 512;" xml:space="preserve">
<g>
	<g>
		<g>
			<path style="fill:#FF80B5;" d="M196.583,414.456l21.64,34.05l-44.238,34.601c0,0,37.1,57.592,125.589,4.838l-50.791-34.459     l20.017-51.569L196.583,414.456z"/>
			<polygon style="fill:#222A5C;" points="231.707,506.668 228.475,506.164 236.551,454.574 223.576,456.593 219.913,415.627      223.17,415.336 226.524,452.826 240.476,450.656    "/>
			<path style="fill:#848BF1;" d="M255.18,478.162c0.003,2.951-3.724,5.349-8.316,5.352c-4.599,0.005-8.326-2.387-8.329-5.338     c-0.003-2.957,3.72-5.356,8.319-5.36C251.446,472.813,255.177,475.205,255.18,478.162z"/>
			<path style="fill:#848BF1;" d="M252.82,496.738c0.003,2.874-3.583,5.202-8.016,5.207c-4.426,0.003-8.013-2.319-8.016-5.193     c-0.003-2.874,3.58-5.202,8.006-5.206C249.227,491.542,252.816,493.864,252.82,496.738z"/>
		</g>
		<g>
			<g>
				<g>
					<path style="fill:#FFB93F;" d="M112.061,332.05c0,0-48.242-32.115-61.311-0.926c-13.068,31.186,10.488,56.56,72.661,40.01       c0,0-3.928,50.288,9.268,59.333c13.202,9.044,211.621-14.78,227.762-32.492c16.147-17.71-61.662-159.982-61.662-159.982       l-186.705,36.806L112.061,332.05z"/>
					<g>
						<path style="fill:#222A5C;" d="M199.228,313.433c-10.737,0-20.206-14.132-20.621-14.761l2.727-1.805        c0.096,0.146,9.689,14.45,19.05,13.218c5.314-0.712,9.772-6.429,13.254-16.988l3.104,1.022        c-3.906,11.856-9.265,18.319-15.93,19.21C200.282,313.399,199.755,313.433,199.228,313.433z"/>
						<path style="fill:#222A5C;" d="M244.315,306.79c-10.74,0-20.212-14.135-20.628-14.764l2.727-1.805        c0.096,0.145,9.706,14.48,19.056,13.222c5.311-0.714,9.769-6.429,13.247-16.989l3.104,1.022        c-3.902,11.855-9.261,18.317-15.923,19.208C245.369,306.755,244.839,306.79,244.315,306.79z"/>
						<g>
							<path style="fill:#222A5C;" d="M221.717,336.847l1.61,0.148l1.453-13.64l58.264,16.634l10.593-88.092l-3.245-0.39         l-10.14,84.286l-58.315-16.65l-1.527,14.354c-5.65-0.197-24.54,0.308-37.008,14.517         c-11.391,12.977-13.982,33.495-7.703,60.985l0.431,1.896l49.348-20.666l-1.265-3.018l-8.239,3.451l-1.476-53.68         C218.753,336.609,221.64,336.839,221.717,336.847z"/>
							<path style="fill:#F4E4CE;" d="M179.97,364.633l31.891-17.169v-10.833C211.862,336.631,187.118,340.106,179.97,364.633z"/>
							<path style="fill:#FFBEDB;" d="M178.409,404.489l26.549-9.265C204.957,395.224,172.852,378.142,178.409,404.489z"/>
						</g>
						<path style="fill:#222A5C;" d="M84.165,367.732c-1.775-2.435-3.902-7.947,0.76-11.374c1.335-0.982,2.778-1.367,4.209-1.379        c-4.618-3.297-11.194-6.472-18.392-5.293c-4.031,0.658-6.627,2.112-7.716,4.319c-1.693,3.425,0.616,7.821,0.639,7.866        l-2.878,1.554c-0.131-0.24-3.133-5.896-0.706-10.847c1.581-3.219,4.989-5.279,10.13-6.121        c15.627-2.521,27.737,11.931,28.248,12.548l-2.318,2.286c-0.058-0.048-5.86-4.814-9.281-2.298        c-3.229,2.376-0.182,6.633-0.051,6.814L84.165,367.732z"/>
					</g>
				</g>
				<path style="fill:#555AFF;" d="M155.488,257.706l-52.905,29.586l0.613,65.309l31.661-2.664l-12.557-36.42      C122.3,313.517,176.591,334.915,155.488,257.706z"/>
			</g>
			<g>
				<path style="fill:#222A5C;" d="M319.831,260.973L98.31,306.741c0,0-121.945-171.335-94.205-227.259      c27.74-55.92,252.742-100.605,295.313-64.889C341.988,50.31,319.831,260.973,319.831,260.973z"/>
				
					<rect x="94.818" y="268.928" transform="matrix(0.9788 -0.205 0.205 0.9788 -51.068 48.3108)" style="fill:#FF9509;" width="225.503" height="3.27"/>
				
					<rect x="87.91" y="254.67" transform="matrix(0.9762 -0.2167 0.2167 0.9762 -50.6918 50.368)" style="fill:#FF9509;" width="232.778" height="3.271"/>
			</g>
		</g>
	</g>
	<g>
		<path style="fill:#FFBEDB;" d="M418.798,191.132c-51.471,0-93.202,23.034-93.202,51.449c0,21.817,24.616,40.449,59.34,47.93    l-26.526,51.157l48.833-48.046c3.788,0.259,7.639,0.408,11.554,0.408c51.475,0,93.202-23.034,93.202-51.448    C512,214.166,470.273,191.132,418.798,191.132z"/>
		<g>
			<path style="fill:#222A5C;" d="M379.232,258.691l-7.869,0.198c-0.11-3.434-0.126-6.768-0.236-10.2l-7.432,0.354     c-0.18,3.439,0.226,6.868,0.514,10.28c-3.129,0.187-6.282-0.025-9.411-0.04c0.281-9.6,0.532-19.142,0.556-28.742h6.601     c0.447,3.954,0.446,7.86,0.792,11.821c2.559-0.059,4.976-0.021,7.55-0.078l0.396-12.81c2.805-0.09,5.573-0.086,8.342,0.394     C379.328,239.526,379.094,249.033,379.232,258.691z"/>
			<path style="fill:#222A5C;" d="M407.617,234.733c-5.178,0.27-10.207,0.52-15.377,0.949l-0.08,3.123l10.201-0.594     c0.396,2.531,0.438,5.039,0.354,7.591l-9.488,1.701l0.594,4.902c4.034-0.242,7.98-0.883,12.018-1.226     c0.39,2.609,0.636,5.329,1.345,7.869c-7.498-0.068-14.798,0.092-22.298,0.078c0.327-10.001,0.65-19.95,0.198-29.967     c7.369,0.079,14.731-0.163,22.1,0.316L407.617,234.733z"/>
			<path style="fill:#222A5C;" d="M430.272,257.821c-6.279,0.475-12.417,0.896-18.702,1.265c-0.287-10.109-0.305-19.928-0.75-30.047     c3.527-0.051,6.893-0.209,10.398-0.474c-1.176,7.179-1.657,14.437-1.817,21.705c3.464,0.119,6.826,0.04,10.277,0.158     L430.272,257.821z"/>
			<path style="fill:#222A5C;" d="M452.928,257.821c-6.279,0.475-12.417,0.896-18.702,1.265     c-0.287-10.109-0.305-19.928-0.751-30.047c3.527-0.051,6.893-0.209,10.398-0.474c-1.176,7.179-1.657,14.437-1.817,21.705     c3.463,0.119,6.826,0.04,10.277,0.158L452.928,257.821z"/>
			<path style="fill:#222A5C;" d="M489.102,241.928c-0.409,12.862,0.267,17.932-14.749,16.763     c-11.93-0.388-16.848,1.848-18.046-12.453c-0.282-5.295,0.091-11.997,2.943-16.527c2.866-1.215,6.909-1.147,10.083-1.482     c6.018-0.138,13.559-0.585,18.581,2.944C488.976,234.416,488.92,238.55,489.102,241.928z M482.025,243.232     c0.902-6.964-11.302-4.266-15.499-3.777c-3.104,0.846-2.1,8.125-1.463,10.576c4.525,1.634,10.061,1.26,14.806,0.338     C482.885,249.85,481.648,245.385,482.025,243.232z"/>
		</g>
	</g>
</g>
<g>
</g>
<g>
</g>
<g>
</g>
<g>
</g>
<g>
</g>
<g>
</g>
<g>
</g>
<g>
</g>
<g>
</g>
<g>
</g>
<g>
</g>
<g>
</g>
<g>
</g>
<g>
</g>
<g>
</g>
</svg>
