<?xml version="1.0" encoding="iso-8859-1"?>
<!-- Generator: Adobe Illustrator 27.9.0, SVG Export Plug-In . SVG Version: 6.00 Build 0)  -->
<svg xmlns="http://www.w3.org/2000/svg" xmlns:xlink="http://www.w3.org/1999/xlink" version="1.1" id="Capa_1" x="0px" y="0px" viewBox="0 0 512 512" style="enable-background:new 0 0 512 512;" xml:space="preserve">
<g>
	<g>
		<path style="fill:#848BF1;" d="M285.086,409.885l-56.432,69.063c0,0,53.171,78.407,169.432-6.306l-46.862-67.593l149.603-269.466    c0,0-130.676-200.973-337.059-113.554C-42.616,109.449,45.36,410.788,285.086,409.885z"/>
		<path style="fill:#555AFF;" d="M314.926,407.856c-14.293-1.829-135.371,14.214-227.488-125.617    C18.014,176.849,116.295,8.659,286.368,40.881C400.602,62.522,521.869,136.354,314.926,407.856z"/>
		<g>
			<g>
				<path style="fill:#FF80B5;" d="M407.098,198.366c-6.335,50.383-35.898,117.659-101.39,207.569      c0,0-144.647-19.368-208.194-120.298C75.899,251.29,72.039,209.98,82.498,171.641l154.642-22.217L407.098,198.366z"/>
				<g>
					<path style="fill:#222A5C;" d="M220.408,226.083c-1.208,11.371-7.105,40.884-19.69,40.884c-1.927,0-3.483-0.746-4.762-2.278       c-6.508-7.794-3.667-32.991-2.023-42.042l-3.248-0.59c-0.071,0.396-0.596,3.391-1.109,7.649l-9.464-7.448l-2.043,2.594       l11.09,8.726c-0.125,1.318-0.238,2.69-0.332,4.121l-15.36-3.733l-0.78,3.206l15.959,3.878       c-0.081,2.064-0.097,4.174-0.052,6.277l-13.017,1.627l0.412,3.274l12.753-1.595c0.422,6.539,1.707,12.615,4.675,16.17       c1.92,2.299,4.375,3.464,7.298,3.464c18.102,0,22.78-42.046,22.97-43.835L220.408,226.083z"/>
					<path style="fill:#222A5C;" d="M281.226,251.528l0.029-3.299l-15.804-0.139c0.258-1.411,0.483-2.771,0.686-4.079l12.889-5.747       l-1.347-3.013l-11,4.904c0.548-4.251,0.77-7.284,0.799-7.686l-3.293-0.222c-0.619,9.176-4.024,34.298-12.247,40.268       c-1.611,1.171-3.299,1.516-5.178,1.044c-12.196-3.076-10.701-33.135-9.093-44.457l-3.267-0.464       c-0.255,1.782-6,43.694,11.554,48.121c0.815,0.206,1.618,0.309,2.404,0.309c1.946,0,3.796-0.63,5.52-1.883       c3.744-2.721,6.483-8.295,8.49-14.532l11.977,4.667l1.199-3.074l-12.225-4.764c0.561-2.027,1.06-4.077,1.489-6.099       L281.226,251.528z"/>
					<path style="fill:#222A5C;" d="M231.966,213.389l49.82,13.217C281.786,226.607,260.501,187.255,231.966,213.389z"/>
					<g>
						<path style="fill:#222A5C;" d="M322.82,329.421c-4.553-33.048-37.982-58.317-39.403-59.377l-2.504-1.867l-0.132,3.121        c-0.586,14.05-5.155,24.588-13.575,31.321c-12.901,10.311-31.296,8.777-36.142,8.158l-2.246-20.491l-2.197,1.289        c-31.638,18.563-65.164,5.009-71.75,2.011l21.05-87.527l51.535-4.685c0,0-30.043-29.439-62.786,5.708l7.785-0.707        l-21.404,88.995l1.144,0.596c0.38,0.196,37.847,19.213,73.896-0.303l1.969,17.963l1.208,0.221        c0.886,0.163,20.087,3.491,35.662-5.711c8.703,13.965,21.736,39.899,14.857,61.191c-3.838-1.485-7.424-3.968-10.543-7.437        l-2.455,2.207c6.041,6.712,13.62,10.193,21.569,10.192c4.169,0,8.442-0.957,12.643-2.908        C313.492,365.578,325.649,349.975,322.82,329.421z"/>
						<path style="fill:#F4E4CE;" d="M268.173,305.392l6.316,8.867l22.207-27.049l-12.286-13.987        C284.409,273.223,286.787,296.113,268.173,305.392z"/>
						<path style="fill:#FFBEDB;" d="M291.698,367.463c0,0,8.796-33.818,28.319-33.268        C320.017,334.195,316.443,369.938,291.698,367.463z"/>
					</g>
				</g>
			</g>
			<g>
				<path style="fill:#FFB93F;" d="M407.098,198.366L82.498,171.641c20.325-74.336,94.398-137.52,197.078-117.163      C347.972,68.038,419.11,102.979,407.098,198.366z"/>
				<g>
					
						<rect x="244.574" y="14.41" transform="matrix(0.0915 -0.9958 0.9958 0.0915 56.9881 397.2841)" style="fill:#FF9509;" width="3.3" height="305.999"/>
					<path style="fill:#FF9509;" d="M141.592,152.147c15.801-2.902,32.879-36.534,40.663-53.753       c-1.125,15.152-1.428,41.962,9.009,52.409c3.564,3.564,8.081,4.986,13.362,4.242c21.559-3.037,36.226-33.839,43.031-51.854       c-0.676,15.273,0.08,39.434,10.214,50.832c3.779,4.248,8.555,6.401,14.2,6.401c0.097,0,0.197,0,0.297-0.002       c24.843-0.33,39.387-33.937,44.906-49.935c1.514,14.541,6.083,43.444,18.975,54.446c3.47,2.963,7.334,4.458,11.509,4.458       c0.657,0,1.324-0.037,1.995-0.111c29.157-3.216,30.304-56.867,30.34-59.148l-3.299-0.051       c-0.007,0.53-1.125,53.021-27.401,55.92c-4.082,0.456-7.659-0.725-11-3.577c-16.082-13.723-18.495-60.178-18.517-60.645       l-0.467-9.703l43.164,5.234l0.399-3.277L169.128,70.524l-0.399,3.277l19.152,2.323l-4.421,11.1       c-0.232,0.582-23.37,58.171-42.461,61.678c-2.127,0.387-3.664-0.047-4.879-1.371c-7.262-7.907,0.039-42.184,3.467-54.725       l-3.183-0.87c-1.312,4.794-12.518,47.147-2.713,57.825C135.657,151.91,138.402,152.736,141.592,152.147z M186.628,88.067       l1.682-11.891l130.792,15.862l-2.468,9.4c-0.145,0.553-14.87,55.293-44.311,55.685c-4.885,0.106-8.758-1.666-11.983-5.291       c-14.123-15.879-8.371-61.265-8.31-61.721l-3.225-0.662c-0.164,0.585-16.758,58.402-44.636,62.329       c-4.308,0.609-7.739-0.479-10.569-3.306C180.157,135.02,186.56,88.534,186.628,88.067z"/>
					<path style="fill:#FF9509;" d="M146.918,134.44c3.332,0,6.035-5.632,6.035-12.579c0-6.947-2.703-12.579-6.035-12.579       c-3.332,0-6.035,5.632-6.035,12.579C140.883,128.807,143.586,134.44,146.918,134.44z"/>
					<ellipse style="fill:#FF9509;" cx="209.14" cy="122.892" rx="7.63" ry="17.735"/>
					<path style="fill:#FF9509;" d="M276.96,142.688c3.026,0,5.474-6.464,5.474-14.435s-2.449-14.435-5.474-14.435       c-3.022,0-5.471,6.464-5.471,14.435S273.937,142.688,276.96,142.688z"/>
					<path style="fill:#FF9509;" d="M341.737,134.646c0,11.503,4.153,20.828,9.28,20.828c5.126,0,9.28-9.325,9.28-20.828       s-4.153-20.828-9.28-20.828C345.89,113.818,341.737,123.143,341.737,134.646z"/>
					
						<rect x="244.816" y="19.231" transform="matrix(0.0976 -0.9952 0.9952 0.0976 46.131 405.1284)" style="fill:#FF9509;" width="3.299" height="315.791"/>
					
						<rect x="269.149" y="-9.181" transform="matrix(0.1301 -0.9915 0.9915 0.1301 161.3675 333.6064)" style="fill:#FF9509;" width="3.299" height="168.05"/>
				</g>
			</g>
		</g>
		<g>
			<polygon style="fill:#555AFF;" points="346.225,407.308 316.778,425.719 285.643,411.603 284.283,414.609 313.418,427.818      308.394,430.96 288.878,420.852 287.364,423.781 305.147,432.991 234.083,477.421 235.829,480.218 347.972,410.104    "/>
			
				<rect x="250.949" y="451.804" transform="matrix(0.8785 -0.4778 0.4778 0.8785 -180.2355 198.3147)" style="fill:#555AFF;" width="97.54" height="3.302"/>
			
				<rect x="244.728" y="463.147" transform="matrix(0.9119 -0.4103 0.4103 0.9119 -163.5027 167.745)" style="fill:#555AFF;" width="128.656" height="3.3"/>
		</g>
	</g>
	<g>
		<path style="fill:#FF9509;" d="M90.995,504.061c45.641,2.874,83.93-15.223,85.515-40.417c1.218-19.346-19.565-37.24-49.94-45.812    l36.636-22.969l-56.242,18.967c-3.344-0.442-6.75-0.789-10.224-1.007c-45.641-2.872-83.926,15.221-85.515,40.418    C9.64,478.436,45.354,501.189,90.995,504.061z"/>
		<g>
			<path style="fill:#F4E4CE;" d="M52.14,465.33c-1.425,8.798-18.738,4.873-25.323,5.413c0.068-2.33,0-4.636-0.206-6.921     c5.538-0.171,11.289,0.895,16.723,0.001c1.731-4.874-7.488-2.348-10.282-3.291c-6.722,0.911-8.513-7.151-6.048-12.026     c4.919-6.432,15.224-4.19,22.223-3.22c-0.115,2.654-0.118,5.31,0.239,7.949c-5.752,0.147-11.321,0.096-17.097,0.548     C29.495,460.771,51.951,452.244,52.14,465.33z"/>
			<path style="fill:#F4E4CE;" d="M77.63,471.257l-5.207,0.788c-0.725-2.328-1.477-4.618-2.159-6.955l-8.429,0.307l-1.063,4.558     h-5.275c0.632-7.758,1.35-15.383,1.988-23.128c5.278-0.988,10.613-1.096,15.966-0.857     C74.78,454.421,75.873,462.881,77.63,471.257z M69.065,460.429c-0.619-2.376,0.071-6.499-3.58-5.721     c-2.891-0.418-2.16,4.067-3,5.893L69.065,460.429z"/>
			<path style="fill:#F4E4CE;" d="M97.642,470.503c-5.443,0.412-10.761,0.778-16.207,1.097c-0.249-8.763-0.269-17.271-0.651-26.041     c3.052-0.046,5.975-0.182,9.009-0.411c-1.018,6.221-1.434,12.513-1.576,18.811c3.005,0.105,5.915,0.034,8.909,0.137     L97.642,470.503z"/>
			<path style="fill:#F4E4CE;" d="M123.097,471.257l-5.207,0.788c-0.725-2.328-1.477-4.618-2.159-6.955l-8.429,0.307l-1.063,4.558     h-5.275c0.631-7.758,1.35-15.383,1.988-23.128c5.278-0.989,10.613-1.096,15.966-0.857     C120.247,454.421,121.34,462.881,123.097,471.257z M114.533,460.429c-0.619-2.376,0.071-6.499-3.58-5.721     c-2.891-0.418-2.159,4.067-3,5.893L114.533,460.429z"/>
			<path style="fill:#F4E4CE;" d="M155.718,471.943c-2.794-0.318-5.556-0.295-8.326,0c0.161-5.285,0.003-10.554-0.171-15.83     l-7.195,16.275c-2.098-5.717-4.527-11.154-7.127-16.652l0.548,16.926c-2.233-0.111-4.431,0.08-6.647,0.274     c0.685-9.186,0.504-18.347,0.377-27.547c3.314,0.002,6.325-0.198,9.628-0.514c1.101,3.652,2.228,7.222,3.564,10.793     c1.405-3.403,3.33-6.61,5.175-9.8c3.113-0.087,6.1-0.197,9.215-0.239C155.08,454.394,155.671,463.17,155.718,471.943z"/>
		</g>
	</g>
</g>
<g>
</g>
<g>
</g>
<g>
</g>
<g>
</g>
<g>
</g>
<g>
</g>
<g>
</g>
<g>
</g>
<g>
</g>
<g>
</g>
<g>
</g>
<g>
</g>
<g>
</g>
<g>
</g>
<g>
</g>
</svg>
