<?xml version="1.0" encoding="iso-8859-1"?>
<!-- Generator: Adobe Illustrator 27.9.0, SVG Export Plug-In . SVG Version: 6.00 Build 0)  -->
<svg xmlns="http://www.w3.org/2000/svg" xmlns:xlink="http://www.w3.org/1999/xlink" version="1.1" id="Capa_1" x="0px" y="0px" viewBox="0 0 512 512" style="enable-background:new 0 0 512 512;" xml:space="preserve">
<g>
	<g>
		<path style="fill:#FFBEDB;" d="M428.442,64.58c-46.147,0-83.558,20.65-83.558,46.125c0,19.56,22.066,36.263,53.199,42.97    l-29.499,83.678l49.499-80.889c3.396,0.232,6.847,0.365,10.359,0.365c46.146,0,83.558-20.65,83.558-46.124    C512,85.231,474.589,64.58,428.442,64.58z"/>
		<g>
			<path style="fill:#222A5C;" d="M408.416,131.475l-7.755,1.174c-1.084-3.467-2.195-6.875-3.215-10.357l-12.551,0.46l-1.582,6.786     h-7.858c0.942-11.552,2.013-22.904,2.959-34.439c7.862-1.473,15.803-1.631,23.777-1.275     C404.173,106.404,405.792,119.005,408.416,131.475z M395.661,115.352c-0.449-2.269-0.665-6.29-1.938-8.266     c-1.05-0.268-2.3-0.265-3.395-0.255c-0.731,0.023-1.831-0.024-2.422,0.408c-0.894,2.41-1.419,5.862-2.041,8.368L395.661,115.352z     "/>
			<path style="fill:#222A5C;" d="M445.509,92.087c-2.718,13.269-5.608,26.109-8.674,39.287l-16.327,0.255     c-2.832-12.926-6.346-25.648-10.511-38.216c2.877,0.267,5.844,0.733,8.724,0.41c2.716,8.594,5.666,16.681,8.725,25.153     c3.698-8.94,7.16-17.776,10.204-27.041C440.291,92.175,442.873,92.046,445.509,92.087z"/>
			<path style="fill:#222A5C;" d="M478.775,100.556c-6.685,0.349-13.173,0.673-19.848,1.224l-0.101,4.031l13.163-0.766     c0.514,3.264,0.561,6.503,0.46,9.796l-12.246,2.195l0.766,6.326c5.208-0.311,10.294-1.139,15.51-1.582     c0.5,3.369,0.819,6.877,1.735,10.154c-9.678-0.086-19.099,0.119-28.776,0.102c0.419-12.908,0.841-25.746,0.255-38.674     c9.509,0.103,19.011-0.21,28.521,0.408L478.775,100.556z"/>
		</g>
	</g>
	<g>
		<g>
			<g>
				<path style="fill:#FF80B5;" d="M0.186,209.645l47.922,8.552c0,0,32.089-142.908,202.817-133.92l2.568-75.306      C253.493,8.971-7.946-23.125,0.186,209.645z"/>
				<path style="fill:#FFBEDB;" d="M50.457,205.145c-4.156-0.063-40.764-0.835-46.559-8.559c-0.868-1.157-1.132-2.471-0.766-3.802      c2.445-8.886,30.803-5.586,44.323-3.482c-12.119-9.673-41.378-34.65-33.818-44.655c6.819-9.03,29.887,3.085,42.112,10.469      c-9.122-11.858-26.332-35.912-24.946-46.947c0.266-2.126,1.171-3.764,2.687-4.869c9.174-6.677,33.709,11.348,47.578,22.74      c-9.959-14.439-26.059-40.659-22.464-54.686c0.978-3.817,3.308-6.548,6.926-8.119c18.543-8.055,39.841,23.916,49.585,40.932      c-4.174-18.997-10.976-57.154-1.853-70.77c1.99-2.97,4.64-4.696,7.874-5.129c19.521-2.622,31.659,35.378,36.173,52.849      c2.051-17.434,7.669-55.75,18.159-64.388c1.782-1.466,3.674-2.12,5.629-1.904c13.127,1.372,16.578,32.763,17.479,50.212      c4.922-18.663,16.036-53.947,29.735-51.916c17.426,2.562,15.24,58.438,14.934,64.8l-2.929-0.14      c0.797-16.552,0.116-59.914-12.432-61.759c-12.558-1.849-25.197,42.844-29.025,60.219l-2.87,13.024l-0.027-13.337      c-0.033-15.747-2.822-56.898-15.169-58.189c-1.154-0.122-2.29,0.288-3.461,1.253c-12.46,10.26-17.961,70.385-18.015,70.99      l-0.896,10.032l-2.001-9.872c-0.125-0.619-12.818-61.91-34.895-58.969c-2.398,0.321-4.303,1.582-5.826,3.855      c-11.354,16.944,4.687,78.721,4.85,79.343l-2.734,1.018c-0.289-0.591-29.205-58.961-51.117-49.466      c-2.783,1.208-4.502,3.223-5.254,6.157c-4.667,18.21,28.944,61.85,29.283,62.289l-2.142,1.984      c-11.851-10.717-44.539-37.119-53.369-30.687c-0.847,0.618-1.34,1.556-1.505,2.866c-1.396,11.112,20.978,40.98,29.717,51.551      l6.494,7.854l-8.444-5.706c-14.705-9.937-40.061-23.013-45.502-15.819c-5.408,7.159,20.333,30.865,37.831,44.125l4.893,3.709      l-6.041-1.1c-18.421-3.347-45.089-5.436-46.701,0.414c-0.124,0.452-0.038,0.83,0.286,1.264      c3.713,4.95,29.116,7.158,44.255,7.387L50.457,205.145z"/>
			</g>
			<path style="fill:#555AFF;" d="M175.189,254.741l-62.654,6.592l-2.258,100.439l-5.248,37.851l-10.701-8.561l-3.02,15.832     c63.768,38.085,117.685,4.28,117.685,4.28L175.189,254.741z"/>
			<g>
				<path style="fill:#FF9509;" d="M406.249,333.304c-8.151,19.82-52.891,42.424-84.438,56.262      c10.555,6.89,9.793,18.881-8.415,27.178c-29.084,13.252-77.869-13.28-77.869-13.28l-6.861,56.497l-30.784-8.561v-92.003      l-22.692-137.415l114.664-37.147C289.854,184.836,419.09,302.052,406.249,333.304z"/>
				<g>
					<g>
						<path style="fill:#222A5C;" d="M293.908,382.99l8.084-33.223l-3.086,1.988c-0.18,0.118-6.489,4.145-15.404,8.811        c-2.816-11.74-2.338-20.682-0.747-27.157c4.736-0.986,9.839-2.512,15.357-4.738l1.371-0.554l-7.549-18.241l48.249-6.982        l-0.083-1.347c-0.119-1.931-3.138-47.436-22.988-58.571c-5.948-3.336-12.758-3.251-20.268,0.246l-2.709-15.12l8.537-0.485        c0,0-9.844-30.81-37.656,2.139l26.171-1.486l3.47,19.37l1.775-0.939c7.28-3.852,13.756-4.247,19.245-1.169        c16.659,9.342,20.735,47.209,21.393,54.852l-49.288,7.131l7.857,18.982c-45.79,17.752-61.154-13.031-61.792-14.364        l-1.422-2.968l-1.255,3.039c-13.364,32.315-15.016,52.975-4.912,61.404c16.622,13.87,59.25-10.253,71.17-17.482l-7.35,30.205        l2.079-0.228c20.049-2.209,32.66,4.312,34.744,11.883c1.681,6.11-3.596,12.621-14.115,17.415        c-28.097,12.811-76.085-12.953-76.568-13.216l-1.895-1.031l-7.102,58.624l2.912,0.352l6.585-54.374        c9.449,4.817,50.791,24.389,77.285,12.313c11.942-5.444,17.82-13.242,15.724-20.861        C327.392,388.723,314.404,381.315,293.908,382.99z"/>
						<path style="fill:#F4E4CE;" d="M233.657,319.73c0,0,20.093,20.288,46.237,15.275v7.374l-51.551-5.974        C228.343,336.405,228.16,325.96,233.657,319.73z"/>
						<path style="fill:#FFBEDB;" d="M224.19,352.714c0,0-6.353,31.274,36.403,16.37        C260.594,369.084,249.601,341.474,224.19,352.714z"/>
					</g>
					<path style="fill:#222A5C;" d="M224.819,250.293l36.372-23.961C261.191,226.332,231.663,214.35,224.819,250.293z"/>
					<path style="fill:#222A5C;" d="M259.841,289.295c-1.765,0-3.421-0.482-4.956-1.447c-7.464-4.694-9.098-19.442-9.164-20.068       l2.915-0.308c0.016,0.14,1.55,13.961,7.812,17.895c1.84,1.159,3.898,1.305,6.285,0.449c2.366-0.845,3.857-2.256,4.555-4.313       c2.415-7.109-5.215-19.065-5.293-19.186l2.462-1.591c0.348,0.538,8.475,13.266,5.608,21.715       c-0.991,2.92-3.126,4.985-6.346,6.134C262.378,289.056,261.082,289.295,259.841,289.295z"/>
					<path style="fill:#222A5C;" d="M285.515,279.669c-1.765,0-3.423-0.484-4.956-1.449c-7.464-4.696-9.096-19.449-9.162-20.075       l2.915-0.308c0.016,0.14,1.549,13.966,7.811,17.903c1.837,1.152,3.889,1.298,6.283,0.449c2.367-0.846,3.857-2.259,4.555-4.319       c2.415-7.125-5.217-19.06-5.294-19.179l2.462-1.592c0.348,0.538,8.474,13.26,5.607,21.711       c-0.991,2.922-3.125,4.987-6.344,6.138C288.05,279.43,286.756,279.669,285.515,279.669z"/>
				</g>
			</g>
			<g>
				<path style="fill:#848BF1;" d="M351.481,175.424l-12.841-36.383l-38.495,35.534c-16.726-102.104-99.434-93.156-162.471-53.45      l-3.122-7.096c29.923-17.21,70.032-28.024,123.599-23.96l1.956-25.409c0,0-180.797-8.797-230.15,160.274l20.033,6.353      c0,0,10.764-59.779,62.14-101.786l5.029,6.167c-19.848,15.759-36.202,34.096-45.523,51.718      c-24.538,46.47-1.817,91.063,18.765,118.037l36.346,24.324l33.197,20.006l-10.437,48.169l65.908-9L185.89,240.014      L351.481,175.424z"/>
				<path style="fill:#555AFF;" d="M345.411,170.841l-1.054-2.737l-73.484,28.279c3.051-34.144-4.398-58.62-22.212-72.714      c-33.706-26.667-91.643-7.005-94.096-6.156l0.962,2.769c0.584-0.202,58.859-19.995,91.314,5.686      c17.237,13.637,24.287,37.729,20.991,71.584l-189.174,72.8l1.054,2.737l96.14-36.997l24.879,143.486l-41.252,4.793      l19.723-91.083l-2.866-0.622l-20.59,95.089l48.404-5.623l-25.507-147.114L345.411,170.841z"/>
			</g>
			<g>
				<path style="fill:#FF9509;" d="M172.61,291.38l-12.667,58.373c-19.584,11.052-36.618,14.249-49.665,12.019      c-22.311-3.841-32.866-23.631-24.51-47.29c1.201-3.401,2.784-6.421,4.633-9.059C111.831,275.078,172.61,291.38,172.61,291.38z"/>
				<path style="fill:#222A5C;" d="M133.234,345.652c-2-2.744-4.409-8.947,0.795-12.775c1.961-1.445,4.143-1.737,6.237-1.437      c-5.553-4.245-13.975-8.797-23.325-7.268c-4.912,0.803-8.09,2.604-9.446,5.353c-2.101,4.262,0.736,9.647,0.765,9.702      l-2.578,1.394c-0.149-0.274-3.587-6.746-0.825-12.374c1.794-3.658,5.701-6.001,11.612-6.969      c18.144-2.94,32.306,13.925,32.9,14.644l-2.08,2.05c-0.072-0.059-7.131-5.962-11.523-2.731      c-4.179,3.073-0.328,8.459-0.162,8.686L133.234,345.652z"/>
			</g>
		</g>
		<g>
			<path style="fill:#555AFF;" d="M144.486,459.955l49.422-22.891c0,0,22.464,31.131,45.889-6.74l50.061,19.896     C289.858,450.22,235.949,565.639,144.486,459.955z"/>
			
				<rect x="162.141" y="462.474" transform="matrix(0.6295 -0.777 0.777 0.6295 -292.108 315.2886)" style="fill:#FFB93F;" width="44.816" height="2.933"/>
			
				<rect x="192.789" y="476.402" transform="matrix(0.0949 -0.9955 0.9955 0.0949 -281.0499 646.6326)" style="fill:#FFB93F;" width="44.545" height="2.931"/>
			
				<rect x="245.11" y="442.391" transform="matrix(0.8036 -0.5951 0.5951 0.8036 -227.4102 237.755)" style="fill:#FFB93F;" width="2.932" height="42.183"/>
			<path style="fill:#FFB93F;" d="M171.356,465.59c0,2.024-2.666,3.665-5.956,3.665c-3.29,0-5.955-1.641-5.955-3.665     c0-2.024,2.666-3.665,5.955-3.665C168.69,461.925,171.356,463.566,171.356,465.59z"/>
			<path style="fill:#FFB93F;" d="M183.266,454.321c0,1.265-1.641,2.29-3.665,2.29c-2.024,0-3.665-1.025-3.665-2.29     c0-1.266,1.641-2.291,3.665-2.291C181.626,452.03,183.266,453.055,183.266,454.321z"/>
			<path style="fill:#FFB93F;" d="M204.705,484.097c0,2.53-3.487,4.581-7.788,4.581c-4.3,0-7.788-2.051-7.788-4.581     s3.487-4.581,7.788-4.581C201.218,479.516,204.705,481.568,204.705,484.097z"/>
			<path style="fill:#FFB93F;" d="M206.224,466.002c0,1.391-1.694,2.52-3.782,2.52c-2.09,0-3.784-1.128-3.784-2.52     c0-1.392,1.693-2.519,3.784-2.519C204.531,463.483,206.224,464.611,206.224,466.002z"/>
			<path style="fill:#FFB93F;" d="M244.526,486.451c0,2.818-3.367,5.102-7.521,5.102c-4.155,0-7.521-2.285-7.521-5.102     c0-2.817,3.367-5.102,7.521-5.102C241.159,481.349,244.526,483.633,244.526,486.451z"/>
			<path style="fill:#FFB93F;" d="M237.912,470.088c0,1.47-1.684,2.663-3.761,2.663c-2.077,0-3.761-1.193-3.761-2.663     c0-1.469,1.684-2.661,3.761-2.661C236.229,467.427,237.912,468.619,237.912,470.088z"/>
			<path style="fill:#FFB93F;" d="M259.128,448.047c0,1.684-2.223,3.048-4.967,3.048c-2.743,0-4.966-1.365-4.966-3.048     c0-1.682,2.223-3.046,4.966-3.046C256.905,445.001,259.128,446.365,259.128,448.047z"/>
			<path style="fill:#FFB93F;" d="M277.073,459.516c0,2.869-3.542,5.195-7.909,5.195c-4.368,0-7.91-2.327-7.91-5.195     s3.542-5.195,7.91-5.195C273.531,454.321,277.073,456.647,277.073,459.516z"/>
		</g>
	</g>
</g>
<g>
</g>
<g>
</g>
<g>
</g>
<g>
</g>
<g>
</g>
<g>
</g>
<g>
</g>
<g>
</g>
<g>
</g>
<g>
</g>
<g>
</g>
<g>
</g>
<g>
</g>
<g>
</g>
<g>
</g>
</svg>
