<?xml version="1.0" encoding="iso-8859-1"?>
<!-- Generator: Adobe Illustrator 27.9.0, SVG Export Plug-In . SVG Version: 6.00 Build 0)  -->
<svg xmlns="http://www.w3.org/2000/svg" xmlns:xlink="http://www.w3.org/1999/xlink" version="1.1" id="Capa_1" x="0px" y="0px" viewBox="0 0 512 512" style="enable-background:new 0 0 512 512;" xml:space="preserve">
<g>
	<g>
		<g>
			<g>
				<path style="fill:#FFBEDB;" d="M216.701,145.527l-12.274,33.122c0,0-93.029,147.938-84.63,191.225      c8.402,43.286,171.846,21.318,171.846,21.318l-9.045,78.816l55.311-12.998l-7.433-63.052c0,0,74.222,12.74,83.912-3.413      c9.69-16.153-14.213-83.985-14.213-83.985s80.75,17.448,91.088-11.624c10.339-29.075-35.53-67.836-80.106-27.783      l-12.275-103.363L216.701,145.527z"/>
				<g>
					<path style="fill:#222A5C;" d="M266.638,263.535l-2.963-0.513c0.997-5.78,2.404-21.981-2.997-27.482       c-1.579-1.61-3.631-2.194-6.276-1.787c-3.156,0.486-5.603,1.975-7.483,4.552c-6.063,8.313-3.561,24.573-3.536,24.736       l-2.969,0.473c-0.115-0.717-2.716-17.67,4.075-26.981c2.344-3.212,5.524-5.147,9.455-5.752       c3.614-0.561,6.608,0.335,8.883,2.653C270.407,241.161,266.795,262.624,266.638,263.535z"/>
					<path style="fill:#222A5C;" d="M303.47,261.919l-2.963-0.512c0.997-5.78,2.403-21.982-2.997-27.482       c-1.579-1.608-3.632-2.198-6.276-1.784c-3.154,0.485-5.601,1.972-7.48,4.546c-6.056,8.295-3.564,24.576-3.539,24.739       l-2.969,0.473c-0.115-0.716-2.717-17.669,4.075-26.979c2.344-3.212,5.524-5.147,9.455-5.751       c3.627-0.559,6.607,0.334,8.881,2.651C307.238,239.543,303.628,261.009,303.47,261.919z"/>
					
						<rect x="286.718" y="178.709" transform="matrix(0.0821 -0.9966 0.9966 0.0821 66.7195 488.8498)" style="fill:#222A5C;" width="24.058" height="58.991"/>
					<g>
						<path style="fill:#222A5C;" d="M332.879,262.351l-2.618-3.349l-0.07,4.251c-0.551,33.077-39.999,41.357-48.674,42.775v-17.125        l-63.257,23.238l2.16-89.492l44.94-16.211l-8.164-22.631l-59.109,21.321l8.165,22.632l11.132-4.016l-2.236,92.745        l63.363-23.276v16.238l1.671-0.186c0.138-0.016,3.847-0.469,9.23-1.841l12.383,45.661c-4.96,0.139-10.231,0.084-15.887-0.214        l-2.031-0.107l3.022,12.091c-7.586-2.709-29.106-8.972-45.308,0.25c-9.95,5.665-16.006,16.156-17.997,31.179l2.981,0.397        c1.86-14.038,7.411-23.781,16.495-28.958c18.266-10.408,45.131,0.842,45.399,0.956l2.783,1.186l-3.473-13.891        c35.204,1.546,57.188-5.614,65.369-21.317C367.472,307.147,334.297,264.167,332.879,262.351z"/>
						<path style="fill:#F4E4CE;" d="M293.469,306.275c0,0,34.082-6.515,39.095-37.841        C332.564,268.433,333.817,326.824,293.469,306.275z"/>
						<path style="fill:#FF80B5;" d="M353.115,310.656c0,0,8.021,31.957-32.578,39.727        C320.537,350.383,326.801,309.273,353.115,310.656z"/>
					</g>
					<path style="fill:#222A5C;" d="M436.236,301.913l-2.433-1.768c0.169-0.235,4.094-5.781-0.165-8.913       c-4.446-3.273-11.746,2.74-11.818,2.802l-2.135-2.103c0.61-0.739,15.149-18.044,33.747-15.021       c6.063,0.993,10.071,3.396,11.911,7.148c2.834,5.774-0.693,12.413-0.846,12.693l-2.645-1.43c0.03-0.056,2.94-5.58,0.784-9.952       c-1.391-2.819-4.651-4.667-9.689-5.491c-9.617-1.564-18.251,3.102-23.941,7.458c2.145-0.307,4.396-0.013,6.414,1.471       C440.758,292.736,438.287,299.098,436.236,301.913z"/>
				</g>
			</g>
			<g>
				<path style="fill:#222A5C;" d="M381.44,172.191c0,0-51.683,109.824,21.966,73.644l-8.286,32.226c0,0,49.652-9.629,47.715-9.629      c-1.938,0-16.175-124.022-16.175-124.022l-56.849-16.15c0,0,52.195-68.479,36.435-74.94      c-15.762-6.461-63.568,33.592-63.568,33.592s28.427-79.46,0-86.57c-28.426-7.102-75.584,98.197-75.584,98.197      S262.572,32,243.836,33.944c-18.736,1.932-10.338,93.028-10.338,93.028s-27.134-42.64-52.327-32.951      c-25.195,9.689,23.255,84.628,23.255,84.628L381.44,172.191z"/>
				<path style="fill:#848BF1;" d="M389.393,240.872c-6.392,0.002-10.963-1.81-13.662-5.429      c-11.266-15.104,15.582-56.071,16.73-57.808l2.508,1.659c-7.498,11.341-25.135,43.213-16.827,54.351      c3.935,5.273,13.454,5.661,28.292,1.144l0.875,2.878C400.281,239.805,394.3,240.872,389.393,240.872z"/>
				<path style="fill:#848BF1;" d="M398.327,228.17c-4.391,0-7.667-1.192-9.88-3.573c-7.646-8.227,2.01-27.341,2.426-28.15      l2.675,1.371c-2.555,4.997-8.06,19.181-2.896,24.733c4.03,4.336,14.264,3.195,29.607-3.296l1.172,2.77      C411.742,226.125,404.078,228.17,398.327,228.17z"/>
			</g>
		</g>
		<g>
			<path style="fill:#F4E4CE;" d="M267.092,420.267l30.363-4.526l8.545,32.299l15.358-32.299h36.823l-10.335,29.072l56.206,11.63     c0,0-75.586,112.408-172.49,17.439l43.282-29.069L267.092,420.267z"/>
			<polygon style="fill:#848BF1;" points="289.256,453.26 276.055,447.235 277.303,444.498 287.159,448.998 294.262,418.46      297.19,419.141    "/>
			<polygon style="fill:#848BF1;" points="324.005,453.097 320.294,419.971 323.284,419.636 326.59,449.161 346.161,443.176      347.039,446.051    "/>
			<path style="fill:#848BF1;" d="M324.585,472.295c0,2.251-3.485,4.075-7.783,4.075s-7.783-1.824-7.783-4.075     c0-2.251,3.485-4.075,7.783-4.075S324.585,470.044,324.585,472.295z"/>
			<ellipse style="fill:#848BF1;" cx="316.802" cy="495.364" rx="7.28" ry="3.812"/>
			
				<rect x="276.113" y="477.569" transform="matrix(0.0674 -0.9977 0.9977 0.0674 -194.357 750.2191)" style="fill:#848BF1;" width="56.013" height="3.008"/>
		</g>
	</g>
	<g>
		<path style="fill:#555AFF;" d="M88.432,178.465c38.2,0,69.169,17.096,69.169,38.184c0,16.191-18.266,30.018-44.038,35.57    l24.358,27.858l-40.913-25.549c-2.812,0.192-5.668,0.303-8.576,0.303c-38.2,0-69.169-17.094-69.169-38.181    C19.264,195.561,50.233,178.465,88.432,178.465z"/>
		<g>
			<path style="fill:#FFB93F;" d="M60.36,231.157l-6.643,0.166c-0.095-2.899-0.105-5.713-0.201-8.613l-6.275,0.301     c-0.149,2.902,0.191,5.8,0.433,8.68c-2.64,0.158-5.304-0.021-7.946-0.034c0.237-8.107,0.451-16.162,0.468-24.269h5.574     c0.378,3.338,0.379,6.637,0.668,9.981c2.161-0.051,4.203-0.016,6.376-0.068l0.333-10.815c2.367-0.076,4.709-0.073,7.044,0.333     C60.442,214.976,60.245,223.002,60.36,231.157z"/>
			<path style="fill:#FFB93F;" d="M92.976,217.003c-0.479,7.851,0.945,15.066-9.648,14.187     c-10.329-0.747-17.236,3.012-18.043-10.549c-0.236-4.47,0.075-10.132,2.486-13.954c2.42-1.025,5.831-0.968,8.513-1.251     c4.911-0.333,10.079-0.057,14.689,1.686C93.654,209.127,92.451,214.004,92.976,217.003z M86.999,218.104     c0.599-5.958-9.431-3.568-13.085-3.189c-2.621,0.71-1.774,6.86-1.236,8.93c3.82,1.379,8.496,1.064,12.502,0.284     C87.728,223.691,86.681,219.922,86.999,218.104z"/>
			<path style="fill:#FFB93F;" d="M113.472,230.423c-5.303,0.399-10.484,0.757-15.79,1.068c-0.243-8.535-0.26-16.826-0.635-25.37     c2.976-0.045,5.82-0.178,8.78-0.401c-0.994,6.061-1.399,12.192-1.536,18.327c2.927,0.099,5.763,0.033,8.68,0.132L113.472,230.423     z"/>
			<path style="fill:#FFB93F;" d="M138.275,231.157l-5.073,0.768c-0.708-2.268-1.437-4.498-2.103-6.777l-8.213,0.299l-1.035,4.441     h-5.141c0.618-7.558,1.318-14.986,1.937-22.533c5.144-0.964,10.34-1.067,15.556-0.835     C135.5,214.753,136.559,222.996,138.275,231.157z M129.93,220.608c-0.565-2.267,0.006-6.373-3.489-5.574     c-2.816-0.405-2.104,3.961-2.921,5.741L129.93,220.608z"/>
		</g>
	</g>
</g>
<g>
</g>
<g>
</g>
<g>
</g>
<g>
</g>
<g>
</g>
<g>
</g>
<g>
</g>
<g>
</g>
<g>
</g>
<g>
</g>
<g>
</g>
<g>
</g>
<g>
</g>
<g>
</g>
<g>
</g>
</svg>
