<?xml version="1.0" encoding="iso-8859-1"?>
<!-- Generator: Adobe Illustrator 27.9.0, SVG Export Plug-In . SVG Version: 6.00 Build 0)  -->
<svg xmlns="http://www.w3.org/2000/svg" xmlns:xlink="http://www.w3.org/1999/xlink" version="1.1" id="Capa_1" x="0px" y="0px" viewBox="0 0 512 512" style="enable-background:new 0 0 512 512;" xml:space="preserve">
<g>
	<g>
		<g>
			<path style="fill:#222A5C;" d="M407.847,405.466c2.75,11.592-4.423,23.223-16.018,25.975L115.364,497     c-11.594,2.751-23.228-4.416-25.979-16.016L0.587,106.54c-2.75-11.597,4.42-23.229,16.018-25.981l276.462-65.56     c11.595-2.751,23.228,4.422,25.979,16.016L407.847,405.466z"/>
			<path style="fill:#848BF1;" d="M186.277,448.752c1.335,4.797-7.791,11.53-20.385,15.04c-12.595,3.509-23.891,2.467-25.227-2.33     c-1.335-4.797,7.791-11.53,20.386-15.04C173.646,442.913,184.94,443.955,186.277,448.752z"/>
			<path style="fill:#848BF1;" d="M356.826,406.801c1.335,4.797-7.791,11.53-20.385,15.04c-12.595,3.509-23.89,2.467-25.227-2.33     c-1.335-4.797,7.791-11.53,20.386-15.04C344.195,400.962,355.489,402.004,356.826,406.801z"/>
			<polygon style="fill:#848BF1;" points="214.989,430.88 221.613,450.015 290.795,434.56 287.115,414.32    "/>
			<polygon style="fill:#555AFF;" points="103.659,490.122 103.324,488.677 11.081,89.776 13.95,89.112 105.858,486.569      402.243,415.588 402.927,418.452    "/>
		</g>
		<g>
			<polygon style="fill:#F4E4CE;" points="25.993,104.41 103.287,451.885 385.39,379.632 300.774,44.059    "/>
			<g>
				<g>
					<polygon style="fill:#FFBEDB;" points="166.884,395.563 140.535,402.394 122.912,378.194 126.611,350.373 154.755,342.485        170.015,369.039      "/>
					<polygon style="fill:#FF9509;" points="126.611,350.373 140.535,402.394 111.332,409.959 98.026,358.382      "/>
					<polygon style="fill:#FF80B5;" points="189.964,389.587 166.884,395.563 154.755,342.485 179.308,335.595      "/>
				</g>
				<g>
					<polygon style="fill:#848BF1;" points="355.295,331.386 318.927,350.212 275.573,351.699 272.188,338.51 312.722,318.58        352.38,316.636      "/>
					<polygon style="fill:#555AFF;" points="352.38,316.636 272.188,338.51 266.742,317.431 348.053,294.675      "/>
					<polygon style="fill:#FFB93F;" points="358.711,348.637 280.048,369.039 275.573,351.699 355.295,331.386      "/>
				</g>
				<path style="fill:#222A5C;" d="M266.749,345.912l-41.403-17.531l3.657,16.036l-34.677,8.24l4.496,14.837      c0,0,19.38-2.038,34.623-3.614l3.594,15.752L266.749,345.912z"/>
			</g>
			<g>
				<polygon style="fill:#848BF1;" points="51.291,119.865 72.115,191.011 305.911,139.001 291.191,72.762     "/>
				<path style="fill:#848BF1;" d="M64.477,202.557L37.14,108.397l261.086-46.161l18.779,84.756L64.477,202.557z M40.881,110.726      l25.654,88.363l246.957-54.34l-17.531-79.123L40.881,110.726z"/>
				<g>
					<path style="fill:#FFB93F;" d="M93.436,149.171l0.525,2.274l-6.195,1.769c0.203,1.277,0.424,2.538,0.666,3.779       c0.24,1.247,0.503,2.487,0.788,3.72c0.348,1.515,0.658,3.037,0.928,4.558c0.27,1.524,0.525,3.045,0.762,4.562       c-0.772,0.223-1.541,0.443-2.314,0.653c-0.77,0.211-1.547,0.408-2.329,0.588c-0.282,0.065-0.558,0.122-0.831,0.174       c-0.274,0.052-0.541,0.106-0.799,0.166c-0.261-1.33-0.526-2.655-0.796-3.973c-0.269-1.315-0.552-2.625-0.851-3.924       c-0.299-1.299-0.634-2.593-1.001-3.892c-0.365-1.297-0.746-2.595-1.135-3.896c-0.624,0.168-1.254,0.335-1.886,0.505       c-0.633,0.17-1.277,0.331-1.926,0.48c-0.368,0.083-0.73,0.168-1.088,0.25c-0.356,0.082-0.723,0.154-1.097,0.215       c-0.433-1.59-0.844-3.168-1.23-4.748c-0.382-1.574-0.771-3.149-1.156-4.728c3.263-0.683,6.513-1.334,9.745-1.952       c3.233-0.62,6.473-1.257,9.722-1.913c0.299,0.911,0.572,1.8,0.819,2.666C92.999,147.371,93.226,148.259,93.436,149.171z"/>
					<path style="fill:#FFB93F;" d="M121.124,145.499c0.408,1.777,0.187,3.299-0.661,4.565c-0.848,1.264-2.15,2.149-3.907,2.641       c2.967,3.082,5.684,6.313,8.151,9.691l-9.434,2.408c-0.578-1.713-1.212-3.266-1.896-4.659       c-0.684-1.391-1.529-2.829-2.533-4.309c-0.704,0.208-1.4,0.425-2.09,0.651c-0.687,0.229-1.374,0.444-2.058,0.647l1.86,7.337       c-1.216,0.351-2.445,0.665-3.68,0.95c-0.628,0.145-1.242,0.275-1.843,0.391c-0.601,0.115-1.211,0.21-1.833,0.283       c-0.308-2.027-0.622-4.044-0.951-6.056c-0.325-2.011-0.704-4.008-1.137-5.981c-0.743-3.529-1.453-7.058-2.13-10.595       c2.011-0.578,4.013-1.163,6.009-1.759c1.995-0.595,4.01-1.128,6.047-1.599c0.521-0.119,1.085-0.237,1.696-0.356       c0.611-0.116,1.236-0.2,1.876-0.244c0.641-0.042,1.268-0.046,1.88-0.003c0.615,0.04,1.183,0.148,1.699,0.325       c1.266,0.44,2.329,1.17,3.193,2.191C120.242,143.04,120.825,144.2,121.124,145.499z M113.465,146.714       c-0.04-0.173-0.101-0.41-0.181-0.712c-0.082-0.3-0.178-0.601-0.293-0.907c-0.118-0.303-0.247-0.579-0.398-0.832       c-0.148-0.25-0.315-0.421-0.496-0.519c-0.127-0.06-0.328-0.085-0.595-0.064c-0.273,0.013-0.558,0.039-0.857,0.076       c-0.299,0.035-0.586,0.076-0.86,0.128c-0.273,0.05-0.463,0.088-0.572,0.114c-0.867,0.198-1.705,0.441-2.519,0.719       c-0.815,0.279-1.62,0.576-2.412,0.894l2.329,6.104c0.502,0,1.018-0.04,1.547-0.118c0.531-0.076,1.044-0.169,1.542-0.285       c0.215-0.05,0.534-0.135,0.95-0.256c0.418-0.116,0.841-0.26,1.271-0.425c0.427-0.171,0.819-0.355,1.17-0.563       c0.351-0.204,0.581-0.424,0.687-0.654c0.046-0.102,0.06-0.28,0.046-0.541c-0.015-0.26-0.046-0.522-0.098-0.798       c-0.052-0.273-0.104-0.543-0.151-0.803C113.527,147.009,113.491,146.821,113.465,146.714z"/>
					<path style="fill:#FFB93F;" d="M149.52,156.065l-4.764,1.884c-0.604-1.023-1.202-2.045-1.8-3.059       c-0.599-1.012-1.187-2.036-1.767-3.065l-7.928,2.131l-0.01,4.557l-5.002,1.151c-0.546-3.753-1.074-7.485-1.587-11.199       c-0.513-3.714-1.039-7.434-1.58-11.165c1.501-0.621,3.004-1.195,4.514-1.724c1.506-0.532,3.053-0.979,4.633-1.342       c1.928-0.444,3.862-0.854,5.807-1.234c0.864,2.174,1.721,4.341,2.574,6.506c0.853,2.165,1.722,4.333,2.609,6.497       c0.669,1.718,1.359,3.405,2.073,5.063C148.007,152.731,148.746,154.396,149.52,156.065z M139.035,147.668       c-0.068-0.19-0.204-0.54-0.414-1.052c-0.208-0.509-0.434-1.051-0.681-1.62c-0.244-0.57-0.495-1.085-0.746-1.542       c-0.255-0.45-0.454-0.709-0.605-0.765c-0.047-0.012-0.155-0.007-0.325,0.007c-0.167,0.015-0.344,0.035-0.535,0.053       c-0.188,0.023-0.369,0.052-0.542,0.092c-0.174,0.04-0.293,0.067-0.358,0.082c-0.109,0.026-0.254,0.059-0.44,0.102       c-0.182,0.042-0.376,0.092-0.58,0.151c-0.201,0.056-0.391,0.131-0.564,0.215c-0.175,0.085-0.288,0.168-0.339,0.247       c-0.037,0.033-0.06,0.185-0.063,0.46c-0.006,0.278-0.014,0.614-0.023,1.016c-0.011,0.4-0.014,0.83-0.013,1.287       c0.004,0.453,0.007,0.885,0.007,1.294c0.004,0.411,0.012,0.763,0.021,1.058c0.012,0.295,0.01,0.464-0.001,0.515       L139.035,147.668z"/>
					<path style="fill:#FFB93F;" d="M175.791,139.101c0.438,1.906,0.866,3.788,1.279,5.642c0.417,1.854,0.834,3.737,1.251,5.649       c-1.357,0.243-2.697,0.515-4.018,0.819c-0.65,0.15-1.298,0.335-1.942,0.553c-0.647,0.216-1.282,0.452-1.906,0.712       c-1.238-1.608-2.472-3.201-3.7-4.777c-1.231-1.576-2.464-3.168-3.702-4.775c-0.91-1.18-1.79-2.37-2.633-3.565       c-0.847-1.199-1.693-2.405-2.546-3.625c0.479,2.968,0.949,5.924,1.407,8.864c0.461,2.937,0.963,5.885,1.505,8.837l-7.061,1.422       c-1.067-4.133-2.116-8.25-3.149-12.343c-1.034-4.094-2.141-8.196-3.313-12.308l12.687-2.99c0.684,0.986,1.34,1.979,1.971,2.987       c0.631,1.006,1.249,2.033,1.856,3.076c0.891,1.599,1.844,3.163,2.86,4.697c1.012,1.535,2.03,3.075,3.048,4.618       c-0.647-2.701-1.314-5.386-2.01-8.054c-0.695-2.671-1.377-5.363-2.05-8.08l6.743-0.733c0.605,2.231,1.197,4.456,1.775,6.673       C174.724,134.615,175.271,136.85,175.791,139.101z"/>
					<path style="fill:#FFB93F;" d="M206.317,137.067c0.238,1.041,0.184,1.938-0.168,2.691c-0.352,0.753-0.936,1.43-1.757,2.03       c-0.684,0.5-1.578,0.974-2.684,1.42c-1.105,0.448-2.265,0.853-3.484,1.215c-1.216,0.359-2.418,0.687-3.604,0.98       c-1.186,0.298-2.181,0.539-2.983,0.725c-1.363,0.313-2.717,0.601-4.058,0.867c-1.343,0.262-2.707,0.506-4.092,0.733       c-0.441-2.222-1.012-4.396-1.705-6.516c1.634-0.331,3.263-0.666,4.882-1.006c1.623-0.337,3.252-0.673,4.886-1.003       c0.634-0.121,1.271-0.244,1.915-0.374c0.644-0.124,1.292-0.262,1.939-0.411c0.109-0.025,0.273-0.062,0.489-0.112       c0.216-0.049,0.441-0.114,0.674-0.191c0.234-0.072,0.45-0.158,0.646-0.251c0.196-0.088,0.336-0.19,0.425-0.3       c0.066-0.106,0.092-0.246,0.075-0.414c-0.014-0.167-0.037-0.315-0.066-0.444c-0.056-0.236-0.155-0.516-0.296-0.838       c-0.144-0.321-0.305-0.575-0.483-0.76c-0.029-0.017-0.104-0.022-0.227-0.017c-0.124,0.007-0.264,0.021-0.417,0.044       c-0.154,0.026-0.297,0.047-0.428,0.065c-0.135,0.019-0.213,0.032-0.233,0.036c-1.412,0.21-2.81,0.453-4.195,0.726       c-1.387,0.275-2.784,0.515-4.195,0.727c-0.644,0.079-1.302,0.164-1.978,0.25c-0.675,0.089-1.315,0.109-1.919,0.063       c-0.576-0.026-1.114-0.259-1.617-0.703c-0.5-0.441-0.943-0.982-1.327-1.61c-0.384-0.63-0.706-1.279-0.962-1.952       c-0.256-0.671-0.44-1.243-0.549-1.721c-0.181-0.779-0.276-1.538-0.287-2.277c-0.009-0.736,0.083-1.449,0.279-2.136       c0.195-0.68,0.5-1.314,0.914-1.902c0.411-0.585,0.963-1.114,1.65-1.594c1.184-0.796,2.495-1.465,3.936-1.999       c1.439-0.536,2.839-0.964,4.203-1.279c1.603-0.369,3.207-0.632,4.813-0.796c1.604-0.167,3.22-0.275,4.85-0.332       c0.124,0.634,0.25,1.262,0.38,1.88c0.134,0.617,0.271,1.245,0.417,1.871c0.144,0.627,0.322,1.255,0.532,1.877       c0.214,0.624,0.425,1.242,0.635,1.856c-2.048,0.518-4.091,1.031-6.132,1.529c-2.037,0.506-4.088,1.042-6.148,1.607       c-0.259,0.059-0.61,0.152-1.048,0.275c-0.44,0.122-0.861,0.25-1.262,0.38c-0.405,0.124-0.907,0.28-1.501,0.463       c-0.057,0.262-0.063,0.52-0.029,0.776c0.034,0.254,0.083,0.509,0.144,0.77c0.03,0.13,0.073,0.29,0.128,0.483       c0.055,0.193,0.14,0.331,0.252,0.42c0.026,0.019,0.218,0.009,0.575-0.026c0.356-0.04,0.75-0.082,1.184-0.14       c0.431-0.05,0.841-0.099,1.231-0.147c0.388-0.042,0.627-0.072,0.713-0.092c0.73-0.102,1.587-0.22,2.57-0.352       c0.985-0.137,1.993-0.266,3.022-0.391c1.034-0.122,2.034-0.21,3.003-0.264c0.97-0.05,1.827-0.048,2.569,0.009       c0.679,0.07,1.334,0.279,1.972,0.624c0.638,0.342,1.225,0.779,1.755,1.305c0.532,0.526,0.992,1.104,1.376,1.736       C205.897,135.778,206.167,136.418,206.317,137.067z"/>
					<path style="fill:#FFB93F;" d="M226.418,137.603c-2.533,0.792-5.051,1.563-7.555,2.322c-2.507,0.76-5.028,1.511-7.573,2.258       c-1.058-4.11-2.093-8.201-3.099-12.272c-1.004-4.066-2.073-8.159-3.203-12.277c1.445-0.356,2.865-0.729,4.259-1.117       c1.391-0.392,2.79-0.804,4.195-1.241c0.132,1.659,0.28,3.316,0.445,4.976c0.165,1.663,0.382,3.318,0.648,4.968       c0.227,1.386,0.469,2.758,0.727,4.126c0.257,1.366,0.521,2.734,0.793,4.11c1.438-0.286,2.858-0.591,4.252-0.913       c1.397-0.322,2.804-0.621,4.225-0.9L226.418,137.603z"/>
					<path style="fill:#FFB93F;" d="M250.72,132.761l-4.764,1.884c-0.601-1.023-1.202-2.045-1.8-3.059       c-0.598-1.012-1.186-2.035-1.765-3.065l-7.926,2.131l-0.013,4.557l-5.001,1.151c-0.546-3.753-1.075-7.485-1.588-11.199       c-0.513-3.714-1.039-7.435-1.578-11.165c1.499-0.621,3.003-1.194,4.512-1.723c1.508-0.532,3.055-0.977,4.634-1.343       c1.928-0.442,3.864-0.852,5.808-1.233c0.862,2.174,1.722,4.341,2.573,6.506c0.854,2.165,1.722,4.332,2.61,6.499       c0.67,1.716,1.36,3.404,2.073,5.063C249.208,129.427,249.949,131.092,250.72,132.761z M240.235,124.364       c-0.066-0.19-0.202-0.541-0.414-1.052c-0.207-0.509-0.434-1.049-0.68-1.62c-0.245-0.571-0.495-1.085-0.748-1.541       c-0.253-0.452-0.454-0.71-0.604-0.766c-0.047-0.01-0.157-0.007-0.327,0.007c-0.167,0.014-0.342,0.034-0.532,0.053       c-0.19,0.023-0.372,0.053-0.544,0.092c-0.174,0.04-0.293,0.067-0.358,0.083c-0.109,0.024-0.254,0.057-0.44,0.101       c-0.184,0.043-0.376,0.092-0.579,0.152c-0.204,0.055-0.392,0.13-0.566,0.214c-0.174,0.086-0.287,0.17-0.336,0.247       c-0.037,0.033-0.06,0.187-0.066,0.46c-0.006,0.278-0.012,0.615-0.021,1.016c-0.013,0.4-0.016,0.83-0.013,1.286       c0.003,0.453,0.006,0.885,0.008,1.294c0.003,0.411,0.01,0.763,0.02,1.058c0.012,0.295,0.008,0.464,0,0.515L240.235,124.364z"/>
					<path style="fill:#FFB93F;" d="M267.671,109.05l0.523,2.274l-6.195,1.768c0.203,1.276,0.423,2.54,0.666,3.781       c0.241,1.246,0.503,2.487,0.786,3.72c0.351,1.515,0.661,3.036,0.931,4.557c0.27,1.524,0.523,3.046,0.759,4.564       c-0.77,0.223-1.541,0.441-2.312,0.654c-0.772,0.21-1.549,0.407-2.329,0.586c-0.282,0.065-0.56,0.124-0.832,0.174       c-0.275,0.05-0.541,0.106-0.799,0.165c-0.263-1.328-0.528-2.655-0.795-3.973c-0.27-1.315-0.553-2.625-0.854-3.924       c-0.299-1.299-0.633-2.593-0.998-3.892c-0.368-1.297-0.748-2.596-1.136-3.896c-0.625,0.168-1.253,0.334-1.889,0.505       c-0.633,0.17-1.274,0.329-1.924,0.479c-0.369,0.086-0.731,0.17-1.089,0.252c-0.357,0.082-0.722,0.154-1.095,0.216       c-0.434-1.589-0.845-3.168-1.23-4.748c-0.385-1.573-0.77-3.149-1.156-4.729c3.263-0.681,6.512-1.332,9.743-1.949       c3.233-0.621,6.474-1.258,9.72-1.915c0.302,0.911,0.575,1.8,0.821,2.665C267.233,107.25,267.461,108.138,267.671,109.05z"/>
					<path style="fill:#FFB93F;" d="M289.462,103.109c-2.099,0.598-4.177,1.195-6.238,1.797c-2.064,0.599-4.137,1.23-6.218,1.892       l0.525,2.583l8.27-2.419c0.277,0.711,0.526,1.419,0.745,2.12c0.218,0.703,0.414,1.425,0.582,2.158       c0.07,0.308,0.139,0.623,0.203,0.95c0.062,0.323,0.131,0.641,0.2,0.943l-7.476,3.193l1.415,3.915       c1.621-0.484,3.226-1.02,4.815-1.606c1.587-0.579,3.197-1.138,4.83-1.675c0.402,1.048,0.803,2.1,1.206,3.158       c0.404,1.061,0.866,2.077,1.387,3.053c-3.081,0.684-6.132,1.395-9.158,2.125c-3.026,0.733-6.075,1.452-9.149,2.161       c-0.519-2.55-1.025-5.089-1.515-7.624c-0.493-2.533-1.034-5.076-1.621-7.632l-0.144-0.618       c-0.339-1.472-0.697-2.932-1.078-4.387c-0.379-1.449-0.762-2.921-1.15-4.403c1.716-0.371,3.424-0.76,5.122-1.16       c1.696-0.404,3.41-0.805,5.145-1.204c1.319-0.303,2.642-0.581,3.965-0.828c1.323-0.247,2.652-0.492,3.989-0.73L289.462,103.109       z"/>
				</g>
			</g>
			<g>
				<path style="fill:#222A5C;" d="M134.166,251.637c-2.653,0-5.067-0.787-7.212-2.36c-9.411-6.902-10.052-26.698-10.075-27.538      l2.944-0.081c0.004,0.191,0.622,19.2,8.875,25.246c2.53,1.854,5.485,2.27,9.029,1.251c17.383-4.965,12.493-34.002,12.443-34.293      l2.898-0.512c0.23,1.302,5.398,31.945-14.533,37.637C137.017,251.422,135.558,251.637,134.166,251.637z"/>
				<path style="fill:#222A5C;" d="M263.004,226.743c-2.654,0-5.069-0.788-7.213-2.36c-9.411-6.901-10.05-26.698-10.074-27.538      l2.944-0.08c0.004,0.191,0.623,19.199,8.874,25.246c2.534,1.854,5.487,2.267,9.03,1.25c17.405-4.971,12.493-34,12.441-34.294      l2.898-0.512c0.23,1.302,5.398,31.945-14.531,37.637C265.855,226.527,264.396,226.743,263.004,226.743z"/>
				<g>
					<path style="fill:#222A5C;" d="M173.199,206.994h59.343c0,0-9.891,74.052-29.672,74.052       C183.089,281.046,173.199,206.994,173.199,206.994z"/>
					<path style="fill:#F4E4CE;" d="M181.545,213.606l46.367-1.744C227.912,211.863,205.096,235.957,181.545,213.606z"/>
					<path style="fill:#FFBEDB;" d="M185.471,248.171c0,0,9.322,42.933,26.985,20.853       C212.456,269.025,205.588,242.284,185.471,248.171z"/>
				</g>
			</g>
		</g>
	</g>
	<g>
		<path style="fill:#FFB93F;" d="M428.098,29.345c-46.337,0-83.902,20.735-83.902,46.315c0,19.64,22.157,36.412,53.417,43.147    l-29.62,84.023l49.703-81.222c3.41,0.233,6.875,0.367,10.402,0.367c46.336,0,83.902-20.735,83.902-46.313    C512,50.081,474.435,29.345,428.098,29.345z"/>
		<g>
			<path style="fill:#555AFF;" d="M392.077,92.371l-7.147,0.18c-0.101-3.117-0.115-6.147-0.216-9.264l-6.75,0.322     c-0.16,3.123,0.206,6.24,0.466,9.338c-2.84,0.171-5.706-0.023-8.546-0.036c0.252-8.72,0.485-17.388,0.502-26.107h5.997     c0.409,3.591,0.406,7.139,0.719,10.736c2.325-0.054,4.521-0.018,6.859-0.072l0.358-11.635c2.547-0.081,5.064-0.077,7.578,0.359     C392.164,74.962,391.953,83.599,392.077,92.371z"/>
			<path style="fill:#555AFF;" d="M417.861,70.609c-4.706,0.245-9.272,0.473-13.969,0.861l-0.072,2.838l9.264-0.539     c0.362,2.298,0.396,4.577,0.324,6.896l-8.619,1.544l0.539,4.453c3.665-0.22,7.245-0.801,10.918-1.114     c0.351,2.37,0.575,4.841,1.22,7.147c-6.812-0.061-13.442,0.084-20.254,0.072c0.296-9.086,0.591-18.12,0.18-27.221     c6.693,0.073,13.38-0.147,20.074,0.288L417.861,70.609z"/>
			<path style="fill:#555AFF;" d="M438.438,91.58c-5.704,0.431-11.277,0.814-16.985,1.15c-0.262-9.183-0.279-18.1-0.683-27.293     c3.202-0.047,6.26-0.191,9.444-0.43c-1.068,6.52-1.504,13.114-1.652,19.715c3.148,0.107,6.201,0.036,9.336,0.144L438.438,91.58z"/>
			<path style="fill:#555AFF;" d="M459.014,91.58c-5.704,0.431-11.277,0.814-16.985,1.15c-0.262-9.183-0.279-18.1-0.683-27.293     c3.202-0.047,6.26-0.191,9.444-0.43c-1.067,6.52-1.504,13.114-1.651,19.715c3.148,0.107,6.2,0.036,9.336,0.144L459.014,91.58z"/>
			<path style="fill:#555AFF;" d="M491.873,77.145c-0.366,11.677,0.238,16.292-13.395,15.225     c-10.839-0.349-15.303,1.676-16.393-11.311c-0.253-4.809,0.081-10.898,2.675-15.011c2.602-1.104,6.274-1.04,9.158-1.347     c5.468-0.124,12.314-0.531,16.879,2.675C491.755,70.323,491.713,74.076,491.873,77.145z M485.444,78.33     c0.644-6.409-10.146-3.839-14.077-3.431c-2.818,0.769-1.907,7.38-1.329,9.607c4.113,1.483,9.138,1.145,13.449,0.305     C486.228,84.341,485.102,80.284,485.444,78.33z"/>
		</g>
	</g>
</g>
<g>
</g>
<g>
</g>
<g>
</g>
<g>
</g>
<g>
</g>
<g>
</g>
<g>
</g>
<g>
</g>
<g>
</g>
<g>
</g>
<g>
</g>
<g>
</g>
<g>
</g>
<g>
</g>
<g>
</g>
</svg>
