<?xml version="1.0" encoding="iso-8859-1"?>
<!-- Generator: Adobe Illustrator 27.9.0, SVG Export Plug-In . SVG Version: 6.00 Build 0)  -->
<svg xmlns="http://www.w3.org/2000/svg" xmlns:xlink="http://www.w3.org/1999/xlink" version="1.1" id="Capa_1" x="0px" y="0px" viewBox="0 0 512 512" style="enable-background:new 0 0 512 512;" xml:space="preserve">
<g>
	<g>
		<g>
			<g>
				<path style="fill:#848BF1;" d="M345.287,40.17C88.402,0.785,74.538,362.844,124.194,427.719l5.829-34.912      c0,0,0,57.316,48.775,86.398l0.271-22.507l2.067-41.029l175.403-33.047l27.319,50.35c-3.729,19.761-8.372,40.097-13.965,60.977      c0,0,43.419-15.219,52.367-77.416v47.892c0,0,24.606-8.507,20.608-50.128l10.71,68.466      C453.578,482.762,618.406,82.029,345.287,40.17z"/>
				<path style="fill:#555AFF;" d="M397.332,451.364l-3.221-1.059c0.458-1.393,45.274-140.787,0.02-263.259l3.181-1.175      C442.981,309.472,397.793,449.958,397.332,451.364z"/>
				<path style="fill:#555AFF;" d="M435.324,356.752l-3.35-0.513c26.088-170.412-68.385-238.495-69.343-239.162l1.94-2.78      C365.546,114.977,461.728,184.279,435.324,356.752z"/>
				<path style="fill:#555AFF;" d="M432.841,406.576l-2.903-1.748c55.982-93.057,12.72-221.313,12.277-222.597l3.204-1.106      C445.868,182.425,489.649,312.147,432.841,406.576z"/>
				<path style="fill:#555AFF;" d="M470.891,374.942l-3.307-0.741c36.657-163.294-41.691-245.287-42.487-246.097l2.416-2.376      C428.323,126.55,507.948,209.87,470.891,374.942z"/>
				<path style="fill:#555AFF;" d="M123.092,293.73l-3.389-0.078c0.04-1.701,5.687-170.389,162.367-202.487l0.682,3.32      C128.745,126.036,123.13,292.055,123.092,293.73z"/>
				<path style="fill:#555AFF;" d="M123.082,233.675l-3.369-0.377c0.121-1.066,13.258-106.994,124.935-138.714l0.927,3.26      C136.059,128.95,123.198,232.633,123.082,233.675z"/>
			</g>
			<path style="fill:#222A5C;" d="M219.267,341.948l-34.843-73.5c-16.982,16.743-59.078,59.383-54.401,66.196     c5.831,8.507,24.608-12.101,24.608-12.101s-22.371,83.72-15.219,82.805c7.186-0.882,18.812-16.54,18.812-16.54     s9.354,37.656,20.845,67.89c7.762,20.505,16.472,37.623,23.895,37.251c17.862-0.847,11.558-50.841,11.219-53.587     c1.796,3.083,42.74,75.008,54.13,71.516c11.625-3.591,5.829-59.077,5.829-59.077s47.419,50.13,54.603,44.299     c7.153-5.829,4.475-62.197,4.475-62.197s19.693,32.2,26.844,26.404c7.151-5.829,0-55.519,0-55.519s10.405,28.234,23.794,27.183     c6.406-33.555,10.269-65.415,11.863-95.108L219.267,341.948z"/>
			<g>
				<path style="fill:#FFB93F;" d="M395.721,337.864c-80.263,84.363-177.844,76.567-215.84,48.435      c-8.71-6.44-14.302-13.965-15.828-21.692c-5.152-25.929,8.642-67.382,20.371-96.159c7.694-18.846,14.506-32.267,14.506-32.267      s-51.452,13.862-46.062-15.66c5.356-29.555,78.295-125.747,153.473-119.036C362.504,106.502,403.415,198.829,395.721,337.864z"/>
				<g>
					<path style="fill:#222A5C;" d="M360.213,323.892l-23.22-86.374l3.054,1.099c0.258,0.091,25.737,9.113,35.99,0.172       c4.083-3.56,5.227-9.74,3.399-18.367l3.316-0.702c2.1,9.922,0.591,17.199-4.492,21.626c-9.558,8.331-28.858,3.686-36.342,1.438       l21.568,80.228L360.213,323.892z"/>
					<path style="fill:#222A5C;" d="M346.509,204.282l12.78-23.914c-90.211-48.215-152.533-5.903-155.138-4.075l15.544,22.217       c0.141-0.099,4.229-2.873,11.704-5.918l3.333,49.979c-5.958,0.219-24.077,1.993-24.499,15.489       c-0.091,2.857,1.605,5.566,5.041,8.05c8.77,6.344,28.754,11.026,52.495,11.026c18.515,0,39.316-2.848,58.86-9.975l1.566-0.571       l-0.544-1.575c-0.18-0.518-4.495-12.701-13.503-14.276c-5.597-0.968-11.519,2.348-17.613,9.892l2.638,2.129       c5.256-6.506,10.1-9.416,14.384-8.682c5.399,0.939,8.897,7.453,10.254,10.493c-42.547,14.912-92.074,9.266-106.551-1.205       c-1.696-1.228-3.705-3.126-3.641-5.198c0.392-12.475,22.657-12.244,22.892-12.232l1.844,0.032l-3.643-54.645       C255.101,183.858,294.983,176.745,346.509,204.282z"/>
					<path style="fill:#222A5C;" d="M260.834,221.772c-2.497,0-4.603-0.932-6.263-2.77c-5.988-6.633-3.699-23.513-3.598-24.228       l3.357,0.47c-0.621,4.44-1.334,16.956,2.759,21.489c1.056,1.168,2.363,1.699,4.004,1.645       c10.185-0.377,10.719-21.829,10.721-22.046l3.389,0.04c-0.012,1.016-0.444,24.893-13.985,25.393       C261.089,221.769,260.962,221.772,260.834,221.772z"/>
					<path style="fill:#222A5C;" d="M297.246,224.473c-2.497,0-4.604-0.932-6.264-2.771c-5.988-6.635-3.699-23.512-3.598-24.228       l3.356,0.47c-0.621,4.441-1.334,16.955,2.761,21.488c1.052,1.167,2.368,1.725,4.002,1.645       c8.574-0.319,10.648-16.023,10.722-22.048l3.389,0.04c-0.012,1.016-0.447,24.893-13.986,25.394       C297.501,224.47,297.372,224.473,297.246,224.473z"/>
					<path style="fill:#222A5C;" d="M327.999,159.015c-35.339-25.887-81.916-11.757-82.382-11.613l-1.01-3.234       c0.483-0.151,48.69-14.774,85.394,12.113L327.999,159.015z"/>
					<path style="fill:#222A5C;" d="M314.216,140.176c-16.886-17.688-48.189-9.784-48.5-9.698l-0.857-3.28       c1.359-0.354,33.534-8.506,51.81,10.638L314.216,140.176z"/>
					<g>
						<path style="fill:#222A5C;" d="M273.508,284.386l1.967,77.871C275.476,362.257,335.091,371.207,273.508,284.386z"/>
						<path style="fill:#222A5C;" d="M274.465,379.671c-2.871,0-5.202-0.768-7.011-2.302c-8.268-7.007-0.915-26.786-0.049-29.019        l3.161,1.225c-2.109,5.444-6.38,20.583-0.919,25.211c2.764,2.337,9.51,3.074,26-6.694l1.728,2.916        C287.602,376.794,280.019,379.671,274.465,379.671z"/>
						<path style="fill:#F4E4CE;" d="M275.759,293.69l13.698,19.167c0,0,2.63,8.472-2.004,8.331        c-4.634-0.141-3.504-10.026-3.504-10.026s-2.745,5.238-6.215,4.237C274.266,314.397,275.759,293.69,275.759,293.69z"/>
					</g>
				</g>
			</g>
		</g>
		<g>
			<path style="fill:#F4E4CE;" d="M436.545,16.099c-6.134-9.988-21.606-11.636-34.56-3.681     c-7.795,4.788-12.874,11.962-14.367,19.095l-69.202,1.036l-52-8.831c-0.457-2.696-1.289-5.4-2.564-8.024     C257.474,2.566,242.93-3.526,231.37,2.09c-11.56,5.617-15.76,20.813-9.384,33.944c1.613,3.318,3.75,6.185,6.224,8.528     c-0.017,0.01-0.032,0.018-0.048,0.026c-14.432,8.498-21.425,23.372-15.623,33.222c5.801,9.851,22.202,10.948,36.63,2.45     c10.47-6.166,16.994-15.684,17.586-24.209l54.368-3.757l47.906,16.222c-0.007,0.252-0.018,0.505-0.018,0.759     c0,16.792,13.023,30.406,29.088,30.406c16.067,0,29.092-13.614,29.092-30.406c0-7.148-2.367-13.713-6.314-18.905     c1.12-0.535,2.234-1.11,3.323-1.782C437.154,40.633,442.68,26.087,436.545,16.099z"/>
			<g>
				<polygon style="fill:#FF80B5;" points="299.243,58.06 299.243,24.497 349.319,30.316 339.473,62.984     "/>
				<polygon style="fill:#FFBEDB;" points="345.754,28.886 343.599,26.271 322.915,43.314 311.982,23.672 309.019,25.321       320.255,45.505 303.492,59.318 305.647,61.933 321.93,48.516 331.332,65.405 334.294,63.757 324.59,46.323     "/>
			</g>
		</g>
	</g>
	<g>
		<polygon style="fill:#FFBEDB;" points="109.11,198.369 67.166,186.458 85.384,126.916 36.238,132.962 9.122,87.741 40.474,50.033     148.936,44.539 170.544,85.622 144.276,126.916 101.362,121.453 81.995,172.9   "/>
		<path style="fill:#222A5C;" d="M70.129,93.211l16.421,2.4l0.49-3.353l-16.911-2.471v-6.163l5.687,5.678l9.988-5.192L75.112,68.244    l4.69-2.362l-8.176-7.448l-2.284,2.506l4.535,4.131l-16.169,8.143l-4.053-8.469l-3.059,1.463l5.549,11.586l5.414-2.726    l5.058,5.049l-25.171,5.859l3.461,7.454l-11.696,9.199l2.095,2.664l11.067-8.704l1.077,2.322l-6.732,11.09l2.896,1.757    l6.787-11.179l17.219-2.486L67.479,98.3l17.371,11.863l1.91-2.8L70.129,96.005V93.211z M72.06,69.782l8.811,13.075l-4.417,2.295    L64.75,73.462L72.06,69.782z M66.739,94.797l-16.364,2.365l-4.099-8.828l20.464-4.763V94.797z"/>
		<path style="fill:#222A5C;" d="M139.116,102.403l-0.695-14.953l4.139-0.299l-0.245-3.38l-4.051,0.293l-1.026-22.059l1.773-0.76    l-1.337-3.115l-23.711,10.171l-3.282,17.755l-10.112,0.73l4.278-4.131l-2.353-2.439l-9.899,9.556l11.575,5.918l1.543-3.019    l-4.9-2.506l11.454-0.827l7.499,11.873l22.274,5.385l0.798-3.293L139.116,102.403z M116.964,70.701l18.612-7.983l0.998,21.469    l-22.4,1.617L116.964,70.701z M116.1,89.062l20.631-1.491l0.672,14.418l-15.507-3.75L116.1,89.062z"/>
	</g>
</g>
<g>
</g>
<g>
</g>
<g>
</g>
<g>
</g>
<g>
</g>
<g>
</g>
<g>
</g>
<g>
</g>
<g>
</g>
<g>
</g>
<g>
</g>
<g>
</g>
<g>
</g>
<g>
</g>
<g>
</g>
</svg>
