<?xml version="1.0" encoding="iso-8859-1"?>
<!-- Generator: Adobe Illustrator 27.9.0, SVG Export Plug-In . SVG Version: 6.00 Build 0)  -->
<svg xmlns="http://www.w3.org/2000/svg" xmlns:xlink="http://www.w3.org/1999/xlink" version="1.1" id="Capa_1" x="0px" y="0px" viewBox="0 0 512 512" style="enable-background:new 0 0 512 512;" xml:space="preserve">
<g>
	<g>
		<g>
			<g>
				<polygon style="fill:#848BF1;" points="321.238,333.935 217.402,368.408 215.993,386.988 197.7,399.192 183.477,386.988       188.984,373.157 88.565,391.894 76.065,226.314 286.008,188.788     "/>
				<g>
					<path style="fill:#222A5C;" d="M191.346,264.697l-2.574,0.436c0.145,0.851,3.308,20.91-16.516,26.441       c-19.651,5.487-25.574-14.03-25.816-14.865l-0.362-1.242l-22.269,6.232l0.704,2.513l19.847-5.554       c0.454,1.181,1.295,3.102,2.594,5.216l-17.465,8.818l1.177,2.329l17.76-8.968c0.762,1.027,1.639,2.052,2.63,3.033l-10.365,9.35       l1.748,1.937l10.579-9.543c3.168,2.49,7.291,4.331,12.589,4.331c2.235-0.001,4.682-0.329,7.35-1.073       C195.019,287.933,191.385,264.929,191.346,264.697z"/>
					<path style="fill:#222A5C;" d="M256.154,252.061l20.242-3.858l-0.489-2.564l-22.715,4.331l0.232,1.274       c0.158,0.854,3.608,20.957-16.494,24.813c-20.184,3.874-26.313-15.489-26.565-16.315l-2.497,0.758       c0.061,0.204,5.879,18.676,23.94,18.676c1.753,0,3.621-0.174,5.612-0.556c9.159-1.756,13.922-6.624,16.381-11.805l13.741,3.836       l0.703-2.513l-13.448-3.754c0.451-1.322,0.775-2.625,1.001-3.885l19.906,0.113l0.015-2.61l-19.56-0.112       C256.383,255.415,256.276,253.322,256.154,252.061z"/>
					<polygon style="fill:#222A5C;" points="130.186,253.803 190.314,241.834 136.384,270.987      "/>
					<polygon style="fill:#222A5C;" points="202.832,227.825 262.512,230.847 204.708,245.995      "/>
					<g>
						<path style="fill:#222A5C;" d="M204.28,255.178l-2.538,0.601l12.888,54.481h-17.281v6.075        c-6.465,0.498-37.717,1.994-40.441-14.348l-0.726-4.359l-1.758,4.055c-0.487,1.126-11.901,27.804-6.888,46.6        c0.872,3.262,2.898,5.698,6.022,7.243c2.857,1.412,6.468,1.973,10.403,1.973c14.794,0,34.167-7.921,35.194-8.346l-0.999-2.411        c-0.092,0.038-2.908,1.189-7.13,2.612c-2.059-9.613-1.659-22.689-1.167-30.106c4.906-0.009,8.459-0.366,8.935-0.416        l1.167-0.124v-5.837h17.969L204.28,255.178z"/>
						<path style="fill:#FFBEDB;" d="M148.795,334.495c0,0,20.525-0.652,25.744,18.594        C174.54,353.089,148.331,360.428,148.795,334.495z"/>
						<path style="fill:#F4E4CE;" d="M155.727,305.838c0,0,4.893,13.435,31.751,12.891        C187.478,318.729,159.315,337.094,155.727,305.838z"/>
					</g>
				</g>
			</g>
			<g>
				<path style="fill:#222A5C;" d="M411.061,362.718l-91.074,28.862l-48.252-186.535l-29.101-30.063l-109.349,22.834l-16.3,45.668      l1.147,186.691l-106.497,5.689c0,0-75.392-278.159,157.647-315.685C402.345,82.681,411.061,362.718,411.061,362.718z"/>
				<polygon style="fill:#FF9509;" points="0,405.063 121.588,394.19 121.588,435.866 6.764,443.338     "/>
				<polygon style="fill:#FF9509;" points="321.238,402.345 310.349,365.916 411.061,329.198 416.038,368.964     "/>
				
					<rect x="-25.846" y="315.551" transform="matrix(0.0342 -0.9994 0.9994 0.0342 -224.7053 401.1878)" style="fill:#FFB93F;" width="242.139" height="2.611"/>
				
					<rect x="-43.983" y="325.773" transform="matrix(0.1074 -0.9942 0.9942 0.1074 -264.9924 358.992)" style="fill:#FFB93F;" width="222.839" height="2.609"/>
				
					<rect x="-63.865" y="334.561" transform="matrix(0.1562 -0.9877 0.9877 0.1562 -298.5114 322.2941)" style="fill:#FFB93F;" width="206.499" height="2.611"/>
				
					<rect x="312.605" y="161.584" transform="matrix(0.9462 -0.3235 0.3235 0.9462 -73.15 116.5075)" style="fill:#FFB93F;" width="2.607" height="233.446"/>
				
					<rect x="339.056" y="166.802" transform="matrix(0.9326 -0.361 0.361 0.9326 -76.4076 141.4274)" style="fill:#FFB93F;" width="2.608" height="216.869"/>
				
					<rect x="362.541" y="175.027" transform="matrix(0.9273 -0.3744 0.3744 0.9273 -76.9049 156.2848)" style="fill:#FFB93F;" width="2.611" height="202.157"/>
			</g>
			<g>
				<path style="fill:#FFB93F;" d="M259.704,158.516l-64.876,10.803l2.123-33.972c66.693-1.132,18.191-61.007,18.191-61.007      l-97.769,21.219c-21.601,91.328,43.196,47.37,43.196,47.37l11.478,30.184l-55.429,9.229l0.367,61.144l154.749-38.439      L259.704,158.516z"/>
				
					<rect x="120.113" y="178.381" transform="matrix(0.9848 -0.1738 0.1738 0.9848 -28.3758 35.4103)" style="fill:#FF9509;" width="135.67" height="2.609"/>
				
					<rect x="118.978" y="216.519" transform="matrix(0.9707 -0.2402 0.2402 0.9707 -46.6669 52.7837)" style="fill:#FF9509;" width="148.425" height="2.61"/>
				<path style="fill:#FF9509;" d="M143.504,213.874c-2.322,6.056-7.25,9.799-11.007,8.359c-3.756-1.44-4.921-7.517-2.602-13.573      c2.321-6.056,7.25-9.799,11.007-8.359C144.659,201.74,145.824,207.817,143.504,213.874z"/>
				<path style="fill:#FF9509;" d="M173.128,207.635c-2.322,6.056-7.25,9.799-11.007,8.359c-3.756-1.44-4.921-7.516-2.602-13.573      c2.322-6.056,7.251-9.799,11.007-8.359C174.282,195.502,175.447,201.579,173.128,207.635z"/>
				<path style="fill:#FF9509;" d="M207.152,200.024c-2.322,6.056-7.25,9.799-11.007,8.359c-3.757-1.44-4.921-7.516-2.602-13.573      c2.322-6.056,7.25-9.799,11.007-8.359C208.307,187.891,209.471,193.968,207.152,200.024z"/>
				<path style="fill:#FF9509;" d="M243.903,191.395c-2.322,6.056-7.25,9.798-11.007,8.359c-3.756-1.44-4.921-7.517-2.602-13.573      c2.322-6.056,7.25-9.799,11.007-8.359C245.058,179.262,246.222,185.339,243.903,191.395z"/>
				<path style="fill:#FF9509;" d="M148.67,117.781c1.106,5.228-4.378,10.818-12.248,12.485c-7.872,1.667-15.151-1.219-16.259-6.447      c-1.106-5.23,4.378-10.819,12.248-12.486C140.283,109.665,147.564,112.551,148.67,117.781z"/>
				<path style="fill:#FF9509;" d="M222.201,100.391c1.241,5.199-4.101,10.926-11.927,12.794      c-7.824,1.867-15.176-0.833-16.417-6.031c-1.241-5.2,4.101-10.928,11.927-12.796C213.607,92.492,220.96,95.192,222.201,100.391z      "/>
				<path style="fill:#FF9509;" d="M183.505,117.303c1.106-1.69,2.166-3.64,3.17-5.892l-2.38-1.065      c-3.369,7.545-7.161,11.54-11.264,11.879c-6.012,0.47-11.017-7.001-11.068-7.076l-2.179,1.436      c0.14,0.211,2.151,3.198,5.293,5.524l6.779,15.288l-2.054-12.903c0.849,0.228,1.735,0.363,2.653,0.363      c0.257,0,0.517-0.01,0.78-0.032c2.767-0.224,5.352-1.683,7.745-4.272l3.165,15.974L183.505,117.303z"/>
			</g>
		</g>
		<g>
			<path style="fill:#FFB93F;" d="M258.348,442.311c-98.905,76.931-131.5-26.539-131.5-26.539l47.001-4.541l9.628-24.242h32.516     l-1.983,26.122L258.348,442.311z"/>
			
				<rect x="184.651" y="421.867" transform="matrix(0.1675 -0.9859 0.9859 0.1675 -295.0186 563.1971)" style="fill:#FF9509;" width="2.611" height="68.822"/>
			
				<rect x="186.5" y="391.924" transform="matrix(0.203 -0.9792 0.9792 0.203 -284.4291 537.2228)" style="fill:#FF9509;" width="2.61" height="102.828"/>
			
				<rect x="193.243" y="373.638" transform="matrix(0.2474 -0.9689 0.9689 0.2474 -271.6038 513.196)" style="fill:#FF9509;" width="2.61" height="115.587"/>
			
				<rect x="192.046" y="390.505" transform="matrix(0.0857 -0.9963 0.9963 0.0857 -238.8263 574.0037)" style="fill:#FF9509;" width="2.609" height="53.257"/>
			
				<rect x="195.424" y="382.601" transform="matrix(0.0868 -0.9962 0.9962 0.0868 -219.6009 561.9739)" style="fill:#FF9509;" width="2.609" height="36.335"/>
			<polygon style="fill:#FF9509;" points="181.716,383.317 218.796,383.317 217.272,394.19 179.433,391.581    "/>
		</g>
	</g>
	<g>
		<path style="fill:#F4E4CE;" d="M512,94.534C512,65.1,462.562,41.24,401.581,41.24c-60.982,0-110.419,23.86-110.419,53.293    c0,27.588,43.431,50.28,99.094,53.017l-16.238,48.009l41.366-48.159C469.846,144.119,512,121.71,512,94.534z"/>
		<rect x="367.495" y="104.044" style="fill:#222A5C;" width="7.829" height="2.61"/>
		<g>
			<path style="fill:#222A5C;" d="M364.858,97.584l5.92-4.932l-1.672-2.006l-5.831,4.86c-1.32-1.608-2.895-3.184-4.755-4.537     l4.011-5.749l-2.141-1.493l-4.078,5.843c-2.663-1.481-5.788-2.467-9.45-2.482v-8.323h-2.61v8.487     c-3.387,0.407-6.376,1.607-8.991,3.196l-5.344-6.783l-2.049,1.616l5.224,6.628c-1.679,1.254-3.17,2.63-4.457,4.023l-8.647-5.39     l-1.381,2.215l8.308,5.177c-2.115,2.63-3.486,4.983-4.095,6.126l-7.87,0.148l0.051,2.61l8.114-0.153     c7.199,7.097,14.779,10.719,22.536,10.719c13.458,0,22.472-10.747,22.85-11.204l0.461-0.558l-0.232-0.688     C368.706,104.855,367.513,101.419,364.858,97.584z M346.537,113.504c-4.093,0-7.421-4.977-7.421-11.096     c0-6.119,3.328-11.096,7.421-11.096c4.093,0,7.421,4.977,7.421,11.096C353.958,108.527,350.629,113.504,346.537,113.504z      M341.774,90.423c-3.122,2.327-5.268,6.797-5.268,11.985c0,5.191,2.148,9.664,5.27,11.988c-5.625-0.984-11.173-4.072-16.55-9.293     C326.789,102.295,332.553,93.063,341.774,90.423z M352.059,113.832c2.712-2.455,4.508-6.654,4.508-11.423     c0-5.34-2.268-9.926-5.538-12.188c9.307,2.384,13.864,12.15,14.962,14.851C364.432,106.745,359.284,111.745,352.059,113.832z"/>
			<path style="fill:#222A5C;" d="M346.537,94.911c-2.026,0-3.67,2.701-3.67,6.035c0,3.333,1.644,6.035,3.67,6.035     c2.026,0,3.67-2.701,3.67-6.035C350.206,97.612,348.563,94.911,346.537,94.911z"/>
		</g>
		<g>
			<path style="fill:#222A5C;" d="M427.577,92.034l-1.18-1.855c-0.364-0.575-9.18-14.081-29.381-14.081     c-6.132,0-12.727,1.281-19.597,3.806l-4.707,1.73l11.817,1.867l-5.897,38.982l37.635-1.254l-9.878-27.779L427.577,92.034z      M383.459,80.689c4.725-1.318,9.269-1.983,13.558-1.983c14.335,0,22.607,7.476,25.732,11.034l-19.972,1.334l2.339,6.583     l-20.133,0.28l2.513-16.611L383.459,80.689z M382.847,112.049l0.772-5.103l24.345-1.277l1.891,5.313L382.847,112.049z      M384.019,104.311l0.568-3.758l21.453-0.299l1.012,2.849L384.019,104.311z M381.68,119.771l0.77-5.095l28.321-1.119l1.843,5.181     L381.68,119.771z"/>
			<path style="fill:#222A5C;" d="M402.725,82.413h-8.998C398.726,92.841,402.725,82.413,402.725,82.413z"/>
		</g>
		<g>
			<path style="fill:#222A5C;" d="M464.897,86.649h-8.267C461.222,96.228,464.897,86.649,464.897,86.649z"/>
			<path style="fill:#222A5C;" d="M480.228,119.837l-7.666-52.033l-7.378,8.579l-10.084-10.348l0.94,14.564l-6.789-1.351     l2.013,6.368l-18.451,3.177l3.206,9.66l15.089-1.617l-16.845,25.748L480.228,119.837z M439.29,119.669l3.229-4.934l33.884-2.949     l0.828,5.614L439.29,119.669z M447.208,107.564l28.227-2.361l0.589,3.997l-31.688,2.757L447.208,107.564z M437.835,95.634     l-1.59-4.785l18.41-3.169l-1.585-5.011l5.795,1.152l-0.706-10.907l7.148,7.333l5.507-6.406l4.238,28.776l-26.032,2.178     l7.288-11.139L437.835,95.634z"/>
		</g>
	</g>
</g>
<g>
</g>
<g>
</g>
<g>
</g>
<g>
</g>
<g>
</g>
<g>
</g>
<g>
</g>
<g>
</g>
<g>
</g>
<g>
</g>
<g>
</g>
<g>
</g>
<g>
</g>
<g>
</g>
<g>
</g>
</svg>
