<?xml version="1.0" encoding="iso-8859-1"?>
<!-- Generator: Adobe Illustrator 27.9.0, SVG Export Plug-In . SVG Version: 6.00 Build 0)  -->
<svg xmlns="http://www.w3.org/2000/svg" xmlns:xlink="http://www.w3.org/1999/xlink" version="1.1" id="Capa_1" x="0px" y="0px" viewBox="0 0 512 512" style="enable-background:new 0 0 512 512;" xml:space="preserve">
<g>
	<g>
		<g>
			<path style="fill:#848BF1;" d="M417.452,233.789L402.63,463.045l-242.733-40.473l56.462-90.919     C146.485,304.763,85.073,223.68,85.073,223.68l49.206-113.269l101.165,119.322l39.786-69.426     C147.757,1.854,367.555,28.812,367.555,28.812l-58.628,131.494c66.056,9.421,71.456,53.264,71.456,53.264L484.882,89.504     C573.222,290.424,417.452,233.789,417.452,233.789z"/>
			<g>
				<path style="fill:#222A5C;" d="M305.757,262.684c-1.874,0-3.737-0.492-5.571-1.473c-7.173-3.83-9.503-12.094-6.743-23.897      c1.988-8.501,5.873-15.823,6.035-16.13l3.036,1.62c-0.151,0.279-14.688,27.909-0.708,35.375c2.337,1.251,4.634,1.398,7.005,0.44      c10.346-4.174,17.784-26.807,17.858-27.036l3.271,1.058c-0.322,0.994-8.009,24.39-19.839,29.165      C308.652,262.391,307.201,262.684,305.757,262.684z"/>
				<path style="fill:#222A5C;" d="M271.481,246.785c-1.87,0-3.734-0.49-5.568-1.471c-7.173-3.832-9.503-12.096-6.743-23.901      c1.988-8.501,5.873-15.823,6.034-16.13l3.036,1.62c-0.151,0.278-14.688,27.909-0.708,35.379c2.344,1.247,4.63,1.392,7.005,0.438      c10.346-4.176,17.784-26.815,17.858-27.044l3.271,1.058c-0.323,0.994-8.009,24.396-19.839,29.174      C274.376,246.493,272.925,246.785,271.481,246.785z"/>
				<path style="fill:#555AFF;" d="M300.451,158.329l27.852-115.624C328.303,42.704,198.608,75.801,300.451,158.329z"/>
				<path style="fill:#555AFF;" d="M388.566,215.066l98.001-78.659C486.568,136.407,517.086,266.646,388.566,215.066z"/>
				<g>
					<path style="fill:#222A5C;" d="M358.307,262.658l-1.578-2.98l-1.488,3.026c-22.905,46.623-52.543,71.995-88.095,75.412       c-55.327,5.291-113.865-43.53-148.839-79.344c3.143,0.586,6.333,0.923,9.58,0.923c42.634,0,77.195-52.07,77.195-116.302       c0-64.236-34.561-116.306-77.195-116.306c-42.641,0-77.202,52.07-77.202,116.306c0,56.063,26.331,102.852,61.378,113.848       c34.884,36.495,96.702,89.935,155.407,84.297c16.296-1.565,31.357-7.579,45.132-17.89c2.73,15.83,4.06,36.074-1.337,53.688       c-6.927-3.934-11.588-7.294-11.716-7.388l-2.029,2.777c1.323,0.967,28.513,20.624,51.264,20.622       c3.63-0.002,7.149-0.502,10.434-1.659c8.604-3.037,14.467-10.187,17.428-21.253       C389.48,322.468,358.619,263.251,358.307,262.658z"/>
					<path style="fill:#F4E4CE;" d="M328.303,312.065c0,0,15.558,10.314,18.426,7.45c2.868-2.864-2.29-15.759-2.29-15.759       s14.614,15.474,16.619,13.467c2.005-2.006-8.597-27.222-8.597-27.222s13.18,14.614,15.759,12.608       c2.579-2.006-10.027-31.807-10.027-31.807S348.518,296.974,328.303,312.065z"/>
					<path style="fill:#FF80B5;" d="M335.267,384.634c0,0,11.176-34.171,40.619-32.022       C375.886,352.612,372.233,401.828,335.267,384.634z"/>
				</g>
				<path style="fill:#222A5C;" d="M287.613,199.665c-11.518,0-21.585-5.514-27.123-10.413l11.347-12.915      c2.747,2.362,17.153,13.365,31.562-1.629l12.398,11.911C306.502,196.291,296.616,199.665,287.613,199.665z"/>
				<path style="fill:#222A5C;" d="M347.269,232.857l-17.126-1.481c0.514-5.96-0.625-10.281-3.482-13.206      c-5.561-5.69-16.421-5.29-16.518-5.27l-1.088-17.16c1.9-0.114,18.899-0.848,29.903,10.413      C343.411,210.711,348.465,219.042,347.269,232.857z"/>
			</g>
		</g>
		<g>
			<path style="fill:#FF9509;" d="M168.003,395.444l242.72,51.576v29.833c-147.654,33.375-260.417-47.533-260.417-47.533     L168.003,395.444z"/>
			
				<rect x="284.837" y="308.29" transform="matrix(0.2085 -0.978 0.978 0.2085 -191.6298 618.8641)" style="fill:#FFB93F;" width="3.438" height="239.084"/>
			<path style="fill:#FFB93F;" d="M342.595,479.719c-112.011,0-183.742-52.461-184.582-53.089l2.055-2.754     c0.981,0.729,99.727,72.88,246.538,46.678l0.604,3.385C384.479,477.998,362.87,479.719,342.595,479.719z"/>
			<path style="fill:#FFB93F;" d="M314.491,446.96c0-4.47-3.912-8.095-8.741-8.095c-4.466,0-8.11,3.118-8.634,7.124l-51.744-9.931     c0.289-0.84,0.49-1.713,0.49-2.638c0-4.905-4.392-8.882-9.812-8.882c-5.423,0-9.816,3.977-9.816,8.882     c0,1.869,0.645,3.598,1.733,5.03c-3.328,1.315-5.601,3.783-5.601,6.647c0,4.233,4.906,7.665,10.961,7.665     c5.107,0,9.359-2.451,10.575-5.756l45.952,11.286c0,0.019-0.007,0.037-0.007,0.057c0,5.381,5.195,9.743,11.605,9.743     c6.411,0,11.605-4.362,11.605-9.743c0-1.899-0.675-3.657-1.793-5.155C313.218,451.709,314.491,449.483,314.491,446.96z"/>
		</g>
	</g>
	<g>
		<path style="fill:#FF80B5;" d="M198.867,340.719h-44.33c-10.883-19.258-40.35-33.068-75.019-33.068    C35.602,307.651,0,329.809,0,357.14s35.602,49.488,79.519,49.488c43.92,0,79.522-22.157,79.522-49.488    c0-1.933-0.198-3.836-0.544-5.712L198.867,340.719z"/>
		<g>
			<path style="fill:#F4E4CE;" d="M68.276,330.685c-0.896,7.982-2.191,15.173-3.973,23.008c-1.584,0.056-3.167,0.091-4.735-0.19     c-1.347-2.872-2.941-5.568-4.227-8.486c-1.357,3.284-3.622,6.08-5.276,9.216l-5.178-0.128c-2.117-8.47-3.876-16.935-6.165-25.358     h9.215c0.509,5.073,0.999,10.068,1.622,15.126c1.274-4.888,3.046-9.59,4.479-14.428h1.558c1.396,5.143,3.15,10.012,5.181,14.936     c1.077-4.616,1.734-9.294,2.606-13.951L68.276,330.685z"/>
			<path style="fill:#F4E4CE;" d="M97.864,340.283c-0.218,10.16-0.003,14.53-11.855,13.473c-9.436-0.224-13.662,1.316-14.506-10.01     c-0.228-4.255,0.074-9.643,2.366-13.282c2.304-0.977,5.55-0.92,8.104-1.192c4.676-0.313,9.594-0.055,13.983,1.605     C98.51,332.784,97.362,337.428,97.864,340.283z M92.175,341.332c0.566-5.672-8.978-3.396-12.458-3.036     c-2.539,0.827-1.669,6.416-1.176,8.501c3.638,1.315,8.087,1.012,11.902,0.271C92.869,346.651,91.869,343.063,92.175,341.332z"/>
			<path style="fill:#F4E4CE;" d="M120.077,337.106c-3.685,0.23-7.202,0.245-10.87,0.603l0.255,2.733l5.275,0.349l0.89,3.178     c-1.903,0.444-3.844,0.549-5.753,0.954c0.427,3.171,0.564,6.31,0.571,9.501l-8.358,0.286c0.33-7.848,0.195-16.114,0.225-23.993     c5.759-0.194,11.465-0.142,17.224,0.223C119.779,332.983,120.089,335.038,120.077,337.106z"/>
			<path style="fill:#F4E4CE;" d="M68.276,369.735c-0.896,7.982-2.191,15.173-3.973,23.008c-1.584,0.057-3.167,0.091-4.735-0.19     c-1.347-2.872-2.941-5.567-4.227-8.486c-1.357,3.283-3.622,6.08-5.276,9.216l-5.178-0.128c-2.117-8.47-3.876-16.934-6.165-25.358     h9.215c0.509,5.073,0.999,10.068,1.622,15.126c1.274-4.888,3.046-9.59,4.479-14.428h1.558c1.396,5.143,3.15,10.012,5.181,14.937     c1.077-4.616,1.734-9.294,2.606-13.951L68.276,369.735z"/>
			<path style="fill:#F4E4CE;" d="M97.864,379.332c-0.218,10.161-0.003,14.529-11.855,13.474     c-9.436-0.225-13.662,1.316-14.506-10.01c-0.228-4.255,0.074-9.643,2.366-13.283c2.304-0.977,5.55-0.921,8.104-1.192     c4.676-0.314,9.594-0.055,13.983,1.605C98.51,371.833,97.362,376.476,97.864,379.332z M92.175,380.381     c0.566-5.672-8.978-3.397-12.458-3.036c-2.539,0.827-1.669,6.416-1.176,8.501c3.638,1.316,8.087,1.012,11.902,0.271     C92.869,385.7,91.869,382.112,92.175,380.381z"/>
			<path style="fill:#F4E4CE;" d="M120.077,376.155c-3.685,0.229-7.202,0.244-10.87,0.603l0.255,2.733l5.275,0.349l0.89,3.178     c-1.903,0.444-3.844,0.549-5.753,0.954c0.427,3.171,0.564,6.31,0.571,9.502l-8.358,0.285c0.33-7.847,0.195-16.114,0.225-23.993     c5.759-0.195,11.465-0.142,17.224,0.223C119.779,372.033,120.089,374.087,120.077,376.155z"/>
		</g>
	</g>
</g>
<g>
</g>
<g>
</g>
<g>
</g>
<g>
</g>
<g>
</g>
<g>
</g>
<g>
</g>
<g>
</g>
<g>
</g>
<g>
</g>
<g>
</g>
<g>
</g>
<g>
</g>
<g>
</g>
<g>
</g>
</svg>
