<?xml version="1.0" encoding="iso-8859-1"?>
<!-- Generator: Adobe Illustrator 27.9.0, SVG Export Plug-In . SVG Version: 6.00 Build 0)  -->
<svg xmlns="http://www.w3.org/2000/svg" xmlns:xlink="http://www.w3.org/1999/xlink" version="1.1" id="Capa_1" x="0px" y="0px" viewBox="0 0 512 512" style="enable-background:new 0 0 512 512;" xml:space="preserve">
<g>
	<g>
		<path style="fill:#FFBEDB;" d="M448.841,133.655L335.846,65.096c-36.101-7.684-75.871-7.802-116.225,1.144    c-21.202,4.691-41.205,11.614-59.681,20.353L87.131,187.911L73.447,313.294l107.432,117.488    c36.983,8.446,77.982,8.857,119.599-0.381c57.833-12.845,106.694-42.086,140.214-79.801l36.01-151.937L448.841,133.655z"/>
		<path style="fill:#FF80B5;" d="M222.496,367.317c-3.961,16.454-16.454,30.648-26.103,44.285    c-4.837,6.746-10.058,13.051-15.514,19.18C107.062,414.036,49.198,365.411,34.33,298.427    C15.794,214.961,69.786,129.177,159.94,86.593c-10.998,16.248-32.172,55.693-20.91,72.321c7.389,11.38,23.284,0,31.232,7.391    c8.506,7.948-11.35,27.833-15.337,33.493c-11.909,16.481-20.441,38.067-17.041,58.508c1.146,8.505,5.691,17.011,10.236,23.843    c1.701,2.815,11.937,11.907,10.792,15.31c-9.09,21.028-52.819-34.049-60.766-3.402c-2.844,13.051,9.649,24.987,20.441,28.947    c21.586,7.978,44.874-3.96,67.015-2.815C210.004,321.302,228.743,342.887,222.496,367.317z"/>
		<path style="fill:#FF80B5;" d="M440.692,350.601c-18.533-12.788-38.977-23.814-56.395-33.668    c-18.946-10.647-52.733-25.516-49.359-52.585c3.107-18.506,20.853-31.645,37.745-36.307c20.441-5.191,43.696-3.022,63.026-11.879    c11.849-5.513,28.769-20.529,28.858-34.9c-0.53-24.283-39.799-51.001-62.41-46.718c4.282,8.768,18.653,22.699,14.721,32.406    c-7.859,19.415-54.488-1.055-65.048-6.862c-26.395-14.224-45.134-36.338-33.168-66.574c3.958-10.558,10.03-19.855,17.184-28.418    c75.433,16.042,134.85,65.108,149.952,133.119C497.764,252.119,479.466,307.019,440.692,350.601z"/>
		<g>
			<path style="fill:#222A5C;" d="M197.35,247.098c-3.477,0-6.69-0.972-9.603-2.911c-12.725-8.473-15.131-32.468-15.228-33.486     l2.921-0.276c0.023,0.236,2.374,23.628,13.937,31.324c3.898,2.593,8.497,3.099,13.696,1.482     c5.885-1.831,10.173-5.301,12.742-10.312c6.255-12.201,0.556-29.664,0.496-29.839l2.784-0.928     c0.252,0.762,6.14,18.82-0.67,32.106c-2.942,5.737-7.813,9.699-14.48,11.774C201.655,246.743,199.455,247.098,197.35,247.098z"/>
			<path style="fill:#222A5C;" d="M307.518,219.552c-3.477,0-6.69-0.971-9.603-2.91c-12.722-8.473-15.125-32.469-15.223-33.488     l2.921-0.276c0.023,0.236,2.371,23.631,13.931,31.325c3.898,2.595,8.506,3.093,13.696,1.481     c5.886-1.83,10.17-5.294,12.739-10.299c6.252-12.179,0.558-29.674,0.498-29.85l2.784-0.926     c0.252,0.762,6.146,18.821-0.667,32.106c-2.941,5.737-7.813,9.698-14.483,11.771C311.823,219.197,309.62,219.552,307.518,219.552     z"/>
			<g>
				<path style="fill:#222A5C;" d="M227.354,214.538c0,0,27.254,24.419,52.801-11.923c0,0,9.085,106.745-10.786,114.69      C249.499,325.259,227.354,214.538,227.354,214.538z"/>
				<path style="fill:#F4E4CE;" d="M233.769,224.123c0,0,29.084,8.512,43.258-12.751l1.22,19.553l-42.525,6.842L233.769,224.123z"/>
				<path style="fill:#FFB93F;" d="M246.537,277.787c0,0,18.513,61.771,29.694,22.362      C276.231,300.15,266.883,270.089,246.537,277.787z"/>
			</g>
		</g>
	</g>
	<g>
		<path style="fill:#555AFF;" d="M94.239,69.386l-4.56-0.117c0.033-1.987,0.125-3.917,0.166-5.909l-4.313-0.017    c-0.205,1.984-0.075,3.986-0.009,5.966c-1.814,0.018-3.637-0.2-5.444-0.301c0.444-5.549,0.877-11.064,1.168-16.62l3.821,0.195    c0.146,2.306,0.031,4.563,0.109,6.868c1.486,0.041,2.881,0.133,4.376,0.178l0.607-7.403c1.622,0.032,3.23,0.118,4.814,0.475    C94.859,58.296,94.443,63.793,94.239,69.386z"/>
		<path style="fill:#555AFF;" d="M111.378,56.361c-3.01,0.005-5.921,0-8.93,0.095l-0.137,1.804l5.92-0.04    c0.155,1.474,0.105,2.93-0.02,4.402l-5.539,0.704l0.198,2.856c2.342-0.022,4.643-0.274,6.991-0.355    c0.151,1.523,0.206,3.104,0.547,4.594c-4.338-0.259-8.571-0.385-12.908-0.613c0.482-5.778,0.965-11.527,1-17.339    c4.261,0.265,8.531,0.339,12.782,0.836L111.378,56.361z"/>
		<path style="fill:#555AFF;" d="M123.805,70.395c-3.651,0.088-7.21,0.151-10.861,0.177c0.13-5.856,0.414-11.542,0.456-17.41    c2.039,0.073,3.992,0.08,6.032,0.031c-0.896,4.119-1.385,8.31-1.696,12.51c2.002,0.171,3.951,0.223,5.946,0.395L123.805,70.395z"/>
		<path style="fill:#555AFF;" d="M136.917,71.065c-3.652,0.088-7.21,0.151-10.861,0.177c0.13-5.859,0.414-11.542,0.455-17.413    c2.039,0.078,3.992,0.083,6.032,0.035c-0.896,4.118-1.385,8.31-1.696,12.51c2.002,0.172,3.951,0.22,5.946,0.395L136.917,71.065z"/>
		<path style="fill:#555AFF;" d="M158.325,62.934c-0.426,7.166-0.731,10.55-9.034,9.267c-6.666-0.435-9.973,0.3-10.074-7.741    c-0.007-3.07,0.404-6.942,2.193-9.477c1.694-0.623,4.031-0.46,5.877-0.561c3.49,0.096,7.865,0.063,10.669,2.253    C158.475,58.583,158.319,60.975,158.325,62.934z M154.189,63.481c0.459-4.117-6.232-2.756-8.858-2.644    c-1.9,0.624-1.418,4.464-1.161,6.078c2.758,1.046,6.574,1.292,9.395,0.321C154.087,66.277,154.092,64.546,154.189,63.481z"/>
	</g>
	<g>
		<path style="fill:#FFB93F;" d="M212.555,44.84l-4.402,1.189c-0.536-1.917-1-3.792-1.532-5.711l-4.135,1.219    c0.366,1.961,1.069,3.838,1.695,5.718c-1.736,0.533-3.538,0.848-5.301,1.266c-1.165-5.443-2.321-10.851-3.629-16.261l3.721-0.904    c0.791,2.165,1.327,4.365,2.062,6.549c1.435-0.384,2.798-0.693,4.242-1.081l-1.532-7.266c1.565-0.434,3.13-0.811,4.751-0.919    C209.986,34.032,211.152,39.423,212.555,44.84z"/>
		<path style="fill:#FFB93F;" d="M232.008,30.109c1.645,6.984,2.311,10.32-6.007,11.458c-6.503,1.49-9.481,3.135-11.867-4.54    c-0.887-2.941-1.593-6.766-0.608-9.708c1.448-1.078,3.729-1.59,5.474-2.217c3.372-0.9,7.554-2.188,10.869-0.887    C230.905,25.899,231.45,28.232,232.008,30.109z M228.204,31.813c-0.745-4.076-6.759-0.863-9.248-0.004    c-1.64,1.143-0.082,4.684,0.627,6.157c2.942,0.213,6.668-0.639,9.091-2.377C228.911,34.523,228.41,32.865,228.204,31.813z"/>
		<path style="fill:#FFB93F;" d="M247.855,35.732c-3.47,1.127-6.869,2.206-10.356,3.275c-1.548-5.654-2.901-11.18-4.54-16.819    c1.977-0.509,3.853-1.063,5.791-1.69c0.322,4.205,1.043,8.357,1.951,12.471c1.967-0.408,3.846-0.912,5.808-1.319L247.855,35.732z"/>
		<path style="fill:#FFB93F;" d="M264.518,32.197l-3.26,1.336c-0.844-1.397-1.689-2.766-2.503-4.179l-5.427,1.534l0.029,3.127    l-3.428,0.835c-0.817-5.139-1.554-10.208-2.363-15.341c3.272-1.477,6.72-2.39,10.236-3.08    C260.008,21.708,262.042,27.036,264.518,32.197z M257.237,26.517c-0.697-1.391-1.095-4.269-3.227-3.153    c-1.945,0.186-0.762,2.985-1.02,4.303L257.237,26.517z"/>
	</g>
	<g>
		<path style="fill:#222A5C;" d="M465.392,365.167c2.116,1.669,4.118,3.262,6.218,4.952c-1.228,1.425-2.434,2.844-3.313,4.507    c-4.672-1.129-9.347-2.13-13.948-3.538c3.079,2.76,6.048,5.529,9.188,8.218l-3.168,3.806c-4.723-3.501-9.271-7.033-14.085-10.409    l5.505-7.07c3.988,1.223,7.821,2.885,11.84,4.037c-3.032-2.355-6.076-4.555-9.131-6.889l3.296-3.298    C460.367,361.359,462.891,363.196,465.392,365.167z"/>
		<path style="fill:#222A5C;" d="M465.65,349.57c1.345,1.278,2.885,2.318,4.285,3.518l-1.644,1.943    c1.791,1.494,3.593,2.898,5.459,4.292l1.478-1.809c1.267,1.059,2.548,2.202,4.013,2.982l-4.978,6.548    c-1.183-0.927-2.309-1.788-3.548-2.644l0.905-1.184c-2.345-1.655-4.661-3.207-7.034-4.806l-1.564,1.541    c-1.046-0.744-2.057-1.495-3.105-2.24C461.891,355.001,463.766,352.361,465.65,349.57z"/>
		<path style="fill:#222A5C;" d="M489.524,346.314l-2.732,3.654c-1.601-1.179-3.124-2.368-4.729-3.547l-2.5,3.513    c1.5,1.31,3.209,2.359,4.863,3.448c-1.034,1.495-2.259,2.85-3.388,4.272c-4.273-3.564-8.528-7.104-12.894-10.551l2.368-3.007    c1.959,1.213,3.74,2.614,5.665,3.875c0.888-1.185,1.776-2.273,2.669-3.467l-5.694-4.77c0.965-1.309,1.96-2.567,3.171-3.657    C480.827,339.403,485.077,342.916,489.524,346.314z"/>
		<path style="fill:#222A5C;" d="M500.786,331.998l-1.742,3.063c-1.522-0.583-3.034-1.132-4.545-1.743l-3.325,4.558l1.959,2.442    l-2.182,2.774c-3.819-3.54-7.526-7.069-11.336-10.607c1.665-3.182,3.812-6.031,6.152-8.745    C490.759,326.533,495.655,329.462,500.786,331.998z M491.552,332.022c-1.406-0.659-3.499-2.683-4.485-0.484    c-1.416,1.347,1.244,2.817,1.856,4.012L491.552,332.022z"/>
		<path style="fill:#222A5C;" d="M506.267,309.315c3.995,3.465,8.509,6.051,3.562,11.227c-4.439,5.1-6.144,10.574-13.349,5.255    c-2.51-1.768-5.438-4.339-6.47-7.263c0.463-1.74,1.956-3.554,2.933-5.123c2.098-2.788,4.593-6.386,8.002-7.408    C502.802,306.684,504.667,308.185,506.267,309.315z M504.326,313.006c-3.096-2.75-5.846,3.499-7.272,5.706    c-0.591,1.91,2.829,3.737,4.293,4.457c2.444-1.644,4.855-4.625,5.683-7.484C506.557,314.701,505.137,313.701,504.326,313.006z"/>
	</g>
	<g>
		<g>
			<path style="fill:#FFB93F;" d="M402.756,417.13l-0.023,3.574c-4.478,0.373-11.968,3.367-14.618-1.603     c-3.41-10.589,2.787-16.42,13.312-13.336c-0.138,1.834-0.1,3.655-0.023,5.499c-2.944-0.957-6.945-1.213-9.623,0.481     c-0.524,1.986-0.326,4.609,0.252,6.553C395.507,418.624,399.325,417.666,402.756,417.13z"/>
			<path style="fill:#FFB93F;" d="M413.983,405.742c-0.17,1.852-0.036,3.699-0.114,5.545l-2.543-0.091     c-0.068,2.327-0.054,4.616,0,6.942l2.337,0.046c-0.052,1.649-0.153,3.362,0.137,4.995l-8.225,0.137     c-0.003-1.504-0.02-2.919-0.114-4.422l1.489-0.023c-0.15-2.866-0.361-5.644-0.573-8.501l-2.177-0.275     c-0.065-1.285-0.096-2.541-0.16-3.826C407.391,406.145,410.627,405.989,413.983,405.742z"/>
			<path style="fill:#FFB93F;" d="M431.717,422.491l-3.483,0.527c-0.486-1.557-0.986-3.087-1.444-4.651l-5.637,0.206l-0.71,3.047     h-3.529c0.425-5.188,0.903-10.285,1.329-15.466c3.532-0.66,7.096-0.732,10.677-0.573     C429.811,411.233,430.538,416.891,431.717,422.491z M425.989,415.251c-0.354-1.517-0.054-4.408-2.394-3.826     c-1.932-0.277-1.445,2.719-2.005,3.941L425.989,415.251z"/>
			<path style="fill:#FFB93F;" d="M452.933,412.776c-0.168,5.153,0.335,10.541-6.622,9.737c-6.75-0.327-12.11,1.706-12.383-7.24     c-0.163-3.067,0.052-6.952,1.706-9.577c1.659-0.704,4.004-0.664,5.843-0.859c3.487-0.079,7.859-0.338,10.769,1.706     C452.859,408.423,452.83,410.82,452.933,412.776z M448.832,413.532c0.247-4.134-6.363-2.436-8.981-2.188     c-1.866,0.717-1.189,4.533-0.848,6.129c2.804,0.904,6.634,0.957,9.395-0.16C448.879,416.333,448.786,414.602,448.832,413.532z"/>
		</g>
	</g>
	<g>
		<path style="fill:#222A5C;" d="M18.722,191.209c2.197,1.566,4.267,3.062,6.45,4.65c-1.159,1.484-2.297,2.954-3.093,4.66    c-4.722-0.905-9.44-1.68-14.102-2.871c3.206,2.613,6.305,5.233,9.569,7.773l-2.981,3.951C9.678,206.1,4.969,202.795,0,199.647    l5.158-7.325c4.045,1.036,7.945,2.507,12.018,3.468c-3.138-2.204-6.283-4.26-9.446-6.445l3.133-3.453    C13.522,187.644,16.132,189.36,18.722,191.209z"/>
		<path style="fill:#222A5C;" d="M35.374,180.426l-1.59,3.143c-1.549-0.507-3.088-0.986-4.625-1.523l-3.102,4.711l2.071,2.347    l-2.048,2.874c-3.979-3.354-7.854-6.703-11.826-10.056c1.509-3.259,3.52-6.205,5.728-9.029    C25.1,175.449,30.129,178.136,35.374,180.426z M26.157,180.891c-1.446-0.59-3.62-2.514-4.508-0.269    c-1.344,1.416,1.375,2.752,2.048,3.919L26.157,180.891z"/>
		<path style="fill:#222A5C;" d="M48.405,162.926c-1.261,1.399-2.315,2.91-3.231,4.535c-2.817-2.138-5.748-4.096-8.69-6.047    l6.072,10.233c-3.923-1.078-7.832-1.862-11.834-2.579l9.434,6.268c-0.925,1.172-1.679,2.447-2.429,3.727    c-4.741-3.936-9.796-7.391-14.859-10.893c1.285-1.803,2.347-3.518,3.454-5.443c2.417,0.82,4.797,1.585,7.26,2.247    c-1.307-2.085-2.307-4.378-3.331-6.62c1.162-1.732,2.261-3.396,3.445-5.114C38.599,156.464,43.605,159.549,48.405,162.926z"/>
		<path style="fill:#222A5C;" d="M58.663,147.729l-1.592,3.143c-1.545-0.506-3.085-0.986-4.621-1.523l-3.105,4.711l2.071,2.347    l-2.048,2.874c-3.979-3.354-7.852-6.702-11.826-10.055c1.512-3.256,3.518-6.206,5.728-9.029    C48.385,142.749,53.421,145.444,58.663,147.729z M49.442,148.196c-1.438-0.594-3.62-2.512-4.502-0.271    c-1.351,1.413,1.376,2.754,2.045,3.921L49.442,148.196z"/>
		<path style="fill:#222A5C;" d="M66.802,129.474c4.105,4.729-4.497,11.749-6.879,15.893c-1.237-0.941-2.526-1.799-3.848-2.574    c1.827-3.124,5.561-6.004,6.341-9.353c-1.697-1.792-2.711,1.232-3.805,2.282c-2.657,4.256-5.876,6.424-9.894,2.137    c-3.817-5.053,2.706-11.027,6.035-14.574c1.404,1.09,2.846,2.125,4.421,2.953c-2.147,3.191-4.338,6.207-6.331,9.524    C55.674,139.864,59.743,124.439,66.802,129.474z"/>
		<path style="fill:#222A5C;" d="M68.194,111.481l1.306,0.931l-2.377,3.733c2.996,2.472,6.252,4.581,9.194,7.114    c-0.785,1.254-1.602,2.505-2.503,3.673c-2.93-2.265-5.917-4.43-9.096-6.341c-0.779,1.172-1.556,2.367-2.423,3.48    c-1.885-1.229-3.702-2.509-5.549-3.782c2.726-3.681,5.505-7.207,8.247-10.866C66.124,110.083,67.135,110.723,68.194,111.481z"/>
		<path style="fill:#222A5C;" d="M76.689,98.486c-1.61,2.538-3.186,4.994-4.72,7.58l1.443,1.087l3.15-5.015    c1.33,0.663,2.526,1.493,3.706,2.384l-2.388,5.051l2.514,1.368c1.239-1.982,2.264-4.063,3.46-6.083    c1.365,0.692,2.73,1.492,4.164,2.01c-2.552,3.518-4.929,7.02-7.458,10.551c-4.611-3.514-9.198-7.015-14.08-10.169    c2.512-3.451,4.879-7.005,7.578-10.325L76.689,98.486z"/>
	</g>
	<g>
		<path style="fill:#848BF1;" d="M64.305,413.477c-0.389,2.009-2.69,2.452-4.422,2.454c3.466,0.987,1.905,5.692-0.974,6.444    c-4.321,1.351-8.916-2.043-13.09-3.127c1.581-4.348,3.026-8.743,4.061-13.255l-1.624-0.704c0.226-1.201,0.557-2.307,0.811-3.497    C54.215,404.442,66.829,405.316,64.305,413.477z M56.353,417.569c0.732-2.642-3.717-2.352-5.382-2.996l-0.561,2.878    C52.088,417.563,55.5,419.812,56.353,417.569z M58.542,411.489c1.785-3.721-3.05-3.656-5.512-4.222    c-0.288,1.483-0.642,2.942-0.899,4.431C53.948,411.876,57.906,414.335,58.542,411.489z"/>
		<path style="fill:#848BF1;" d="M84.192,421.648c-1.883,4.934-2.778,10.073-9.326,7.185c-6.316-2.415-12.041-2.159-9.507-10.743    c0.801-2.967,2.217-6.589,4.61-8.566c1.796-0.15,4.008,0.623,5.817,1.006c3.34,1.017,7.567,2.13,9.701,4.983    C85.476,417.488,84.71,419.757,84.192,421.648z M80.062,421.086c1.519-3.849-5.289-4.301-7.853-4.881    c-1.993,0.098-2.546,3.938-2.716,5.559c2.196,1.716,5.307,2.514,8.088,2.862C79.341,424.889,79.46,422.203,80.062,421.086z"/>
		<path style="fill:#848BF1;" d="M103.296,430.455c-0.84,2.566-1.654,4.986-2.526,7.541c-1.756-0.669-3.505-1.314-5.367-1.573    c-0.536-4.779-1.195-9.511-1.449-14.317c-1.539,3.839-3.123,7.575-4.577,11.444l-4.657-1.676    c1.673-5.632,3.427-11.119,4.961-16.792l8.523,2.75c0.212,4.165-0.03,8.332,0.258,12.504c1.177-3.645,2.199-7.268,3.351-10.932    l4.228,1.965C105.155,424.431,104.294,427.431,103.296,430.455z"/>
		<path style="fill:#848BF1;" d="M117.778,435.418c-1.368,7.683-9.198,7.639-13.956,2.919c0.323-1.419,0.802-2.736,1.195-4.144    c9.383,6.678,8.431-3.069,9.829-9.818c1.767,0.65,3.553,1.168,5.413,1.512C119.581,429.141,118.695,432.226,117.778,435.418z"/>
		<path style="fill:#848BF1;" d="M139.413,440.548c-1.886,4.936-2.776,10.067-9.326,7.182c-6.314-2.414-12.041-2.16-9.508-10.743    c0.802-2.966,2.216-6.591,4.61-8.566c1.797-0.149,4.008,0.618,5.82,1.008c3.339,1.011,7.567,2.131,9.698,4.98    C140.701,436.39,139.927,438.654,139.413,440.548z M135.283,439.984c1.519-3.852-5.286-4.3-7.853-4.881    c-1.995,0.099-2.542,3.936-2.716,5.559c2.198,1.717,5.311,2.514,8.094,2.862C134.56,443.782,134.688,441.101,135.283,439.984z"/>
		<path style="fill:#848BF1;" d="M157.857,448.939c-0.557,1.667-1.119,3.25-1.902,4.829c-3.643,1.726-7.174,0.915-10.763-0.496    c-2.475-0.314-3.611-2.825-4.852-4.682c1.016-4.644,2.848-9.007,4.726-13.352l4.519,1.363c-1.399,3.094-3.081,6.645-3.168,10.081    c1.453,0.983,3.406,1.493,5.081,2.005c2.891-1.869,3.139-7.563,4.548-10.76c1.28,0.514,2.598,1.017,3.97,1.209    C159.601,442.446,158.902,445.765,157.857,448.939z"/>
		<path style="fill:#848BF1;" d="M177.923,451.357c-0.751,2.406-2.898,3.282-5.247,2.618c0.647,2.87,1.097,5.734,1.346,8.598    l-6.404-1.936c0.538-2.455,0.708-4.347,0.584-6.851c-0.959-0.255-1.947-0.46-2.899-0.71l-1.518,4.978    c-1.665-0.467-3.327-0.959-4.903-1.661c2.104-4.851,3.73-9.861,5.562-14.813C169.433,443.32,179.992,443.654,177.923,451.357z     M172.985,449.352c1.68-3.256-2.852-3.403-5.006-3.912l-0.802,4.417C169.005,450.759,172.59,452.534,172.985,449.352z"/>
	</g>
	<g>
		<path style="fill:#FF9509;" d="M221.102,490.608c-1.319,0.745-2.602,1.43-3.967,2.094c-2.558-2.131-4.973-4.211-7.601-6.242    l-1.67,2.984l1.234,4.939c-1.268,0.338-2.547,0.641-3.735,1.189c-2.348-5.166-4.401-10.439-6.203-15.82    c2.22-0.59,4.333-1.243,6.553-1.837l1.389,5.134c1.114-2.126,1.909-4.215,2.893-6.411c1.374-0.507,2.799-1.043,4.167-1.579    l0.395,1.651l-3.205,6.241C214.585,485.613,217.764,488.068,221.102,490.608z"/>
		<path style="fill:#FF9509;" d="M236.645,475.875c1.31,4.986,3.336,10.005-3.561,11.227c-6.56,1.616-11.117,5.101-13.935-3.394    c-1.036-2.893-1.941-6.677-1.107-9.666c1.39-1.148,3.645-1.783,5.353-2.495c3.319-1.075,7.432-2.574,10.806-1.447    C235.328,471.726,235.985,474.031,236.645,475.875z M232.931,477.774c-0.949-4.031-6.794-0.512-9.231,0.472    c-1.584,1.219,0.156,4.686,0.939,6.117c2.782,0.158,5.794-0.967,8.277-2.267C234.506,481.306,233.08,479.034,232.931,477.774z"/>
		<path style="fill:#FF9509;" d="M276.156,465.406c0.773,2.585,1.487,5.039,2.231,7.631c-1.824,0.456-3.626,0.923-5.304,1.774    c-3.169-3.615-6.413-7.125-9.36-10.929c0.925,4.03,1.755,8.004,2.772,12.012l-4.783,1.283c-1.842-5.581-3.526-11.085-5.513-16.621    l8.572-2.606c2.554,3.299,4.73,6.86,7.349,10.12c-1.118-3.669-2.341-7.222-3.488-10.891l4.588-0.797    C274.249,459.397,275.246,462.356,276.156,465.406z"/>
		<path style="fill:#FF9509;" d="M256.343,471.191c0.773,2.585,1.487,5.039,2.231,7.631c-1.824,0.456-3.626,0.923-5.304,1.774    c-3.169-3.615-6.413-7.125-9.36-10.929c0.925,4.03,1.755,8.004,2.772,12.012l-4.783,1.283c-1.842-5.581-3.525-11.086-5.513-16.621    l8.572-2.606c2.554,3.299,4.73,6.86,7.349,10.12c-1.118-3.669-2.341-7.222-3.488-10.891l4.588-0.797    C254.436,465.182,255.433,468.141,256.343,471.191z"/>
		<path style="fill:#FF9509;" d="M285.355,452.807c0.364,1.825,1.024,3.555,1.475,5.347l-2.463,0.638    c0.605,2.252,1.269,4.438,1.988,6.653l2.251-0.624c0.426,1.595,0.815,3.266,1.564,4.746l-7.844,2.486    c-0.433-1.441-0.855-2.792-1.375-4.205l1.421-0.449c-0.966-2.701-1.96-5.306-2.981-7.979l-2.165,0.358    c-0.426-1.215-0.82-2.405-1.246-3.622C279.155,455.081,282.21,454.002,285.355,452.807z"/>
		<path style="fill:#FF9509;" d="M305.475,458.684l0.999,3.431c-4.184,1.641-10.505,6.65-14.466,2.647    c-6.296-9.169-2.028-16.535,8.941-16.586c0.388,1.797,0.951,3.532,1.549,5.275c-3.094-0.077-7,0.825-9.082,3.213    c0.065,2.055,1.005,4.508,2.116,6.207C298.956,462.193,302.341,460.178,305.475,458.684z"/>
		<path style="fill:#FF9509;" d="M322.926,459.069l-4.336,1.413c-0.636-1.888-1.19-3.734-1.824-5.625l-4.067,1.431    c0.468,1.941,1.265,3.777,1.987,5.624c-1.705,0.624-3.491,1.026-5.23,1.538c-1.441-5.379-2.876-10.717-4.459-16.053l3.666-1.094    c0.906,2.121,1.552,4.29,2.4,6.433c1.406-0.456,2.764-0.836,4.179-1.297l-1.905-7.177c1.545-0.514,3.082-0.972,4.7-1.164    C319.796,448.412,321.246,453.729,322.926,459.069z"/>
		<path style="fill:#FF9509;" d="M330.031,439.468c0.367,1.823,1.025,3.554,1.478,5.346l-2.463,0.64    c0.6,2.251,1.267,4.439,1.988,6.652l2.251-0.624c0.423,1.593,0.815,3.263,1.558,4.745l-7.839,2.486    c-0.433-1.439-0.855-2.792-1.378-4.204l1.421-0.45c-0.964-2.7-1.96-5.305-2.979-7.979l-2.165,0.358    c-0.427-1.213-0.822-2.405-1.249-3.62C323.831,441.741,326.888,440.663,330.031,439.468z"/>
		<path style="fill:#FF9509;" d="M351.821,433.08c1.029,5.699,1.616,10.935,2.002,16.714c-1.082,0.364-2.168,0.721-3.308,0.845    c-1.525-1.702-3.183-3.237-4.671-4.989c-0.263,2.551-1.249,4.947-1.744,7.455l-3.603,0.979c-3.213-5.414-6.174-10.9-9.491-16.248    l6.364-1.9c1.4,3.399,2.766,6.751,4.242,10.117c-0.128-3.641,0.125-7.253,0.12-10.894l1.074-0.322    c2.027,3.266,4.241,6.268,6.662,9.251c-0.207-3.409-0.718-6.777-1.08-10.175L351.821,433.08z"/>
		<path style="fill:#FF9509;" d="M373.023,444.109l-3.185,1.501c-0.914-1.351-1.826-2.676-2.715-4.044l-5.341,1.812l0.192,3.123    l-3.382,1.008c-1.078-5.091-2.077-10.114-3.15-15.198c3.198-1.644,6.588-2.73,10.067-3.604    C367.978,433.866,370.294,439.08,373.023,444.109z M365.466,438.811c-0.776-1.354-1.312-4.206-3.391-2.981    c-1.927,0.291-0.606,3.02-0.79,4.35L365.466,438.811z"/>
	</g>
	<g>
		<g>
			<path style="fill:#555AFF;" d="M322.895,44.535c-4.051-2.034-10.673-2.385-13.029-6.495c0.727-12.556,6.238-16.111,17.468-9.825     l-1.375,4.709c-7.124-4.486-11.886-4.736-11.857,5.087l3.846,1.28l1.203-4.262c1.942,0.823,3.997,1.412,5.991,2.094     C324.535,39.657,323.707,42.064,322.895,44.535z"/>
			<path style="fill:#555AFF;" d="M344.418,43.341c-0.559,1.662-1.126,3.247-1.916,4.82c-3.65,1.711-7.174,0.891-10.76-0.539     c-2.475-0.318-3.595-2.836-4.834-4.696c1.034-4.64,2.881-8.996,4.774-13.335l4.517,1.381c-1.41,3.083-3.11,6.632-3.205,10.064     c1.443,0.997,3.4,1.51,5.072,2.028c2.895-1.852,3.169-7.552,4.588-10.74c1.282,0.52,2.592,1.022,3.964,1.223     C346.19,36.856,345.481,40.17,344.418,43.341z"/>
			<path style="fill:#555AFF;" d="M361.809,43.043l-0.507,1.521l-4.267-1.177c-1.484,3.59-2.547,7.321-4.101,10.878     c-1.431-0.387-2.861-0.798-4.247-1.317c1.307-3.472,2.501-6.952,3.391-10.557c-1.348-0.4-2.716-0.793-4.035-1.298     c0.619-2.164,1.315-4.273,1.991-6.413c4.318,1.525,8.504,3.148,12.805,4.694C362.535,40.656,362.226,41.803,361.809,43.043z"/>
			<path style="fill:#555AFF;" d="M376.721,47.353c-2.896-0.795-5.707-1.584-8.629-2.291l-0.616,1.701l5.719,1.541     c-0.246,1.465-0.682,2.849-1.194,4.239l-5.531-0.802l-0.57,2.807c2.263,0.601,4.547,0.975,6.834,1.523     c-0.266,1.505-0.622,3.049-0.702,4.571c-4.107-1.407-8.159-2.658-12.275-4.033c2.008-5.441,4.009-10.853,5.593-16.445     c4.038,1.392,8.127,2.609,12.095,4.216L376.721,47.353z"/>
			<path style="fill:#555AFF;" d="M393.582,59.895c-0.85,2.559-1.676,4.979-2.555,7.53c-1.754-0.673-3.5-1.329-5.361-1.592     c-0.517-4.782-1.159-9.515-1.392-14.323c-1.556,3.832-3.154,7.562-4.622,11.428l-4.654-1.693     c1.698-5.627,3.477-11.103,5.026-16.775l8.518,2.784c0.195,4.169-0.068,8.334,0.209,12.507c1.185-3.647,2.23-7.26,3.391-10.923     l4.219,1.982C395.465,53.879,394.593,56.872,393.582,59.895z"/>
			<path style="fill:#555AFF;" d="M420.203,62.473l-0.507,1.524l-4.268-1.18c-1.483,3.589-2.548,7.324-4.101,10.878     c-1.43-0.381-2.863-0.8-4.248-1.315c1.307-3.473,2.5-6.953,3.391-10.559c-1.348-0.398-2.717-0.791-4.035-1.295     c0.617-2.164,1.314-4.273,1.987-6.412c4.322,1.521,8.502,3.144,12.808,4.694C420.929,60.086,420.617,61.237,420.203,62.473z"/>
			<path style="fill:#555AFF;" d="M431.952,80.364l-3.474-0.598c0.034-1.631,0.042-3.243,0.1-4.869l-5.413-1.584l-1.635,2.667     l-3.348-1.114c2.039-4.79,4.104-9.474,6.143-14.257c3.561,0.491,6.964,1.547,10.313,2.83     C433.699,69.08,432.596,74.679,431.952,80.364z M428.801,71.686c0.146-1.551,1.34-4.197-1.063-4.387     c-1.749-0.874-2.228,2.127-3.148,3.107L428.801,71.686z"/>
			<path style="fill:#555AFF;" d="M448.228,86.238c-4.05-2.032-10.678-2.385-13.029-6.495c0.728-12.558,6.239-16.107,17.469-9.825     l-1.375,4.711c-7.125-4.489-11.886-4.735-11.857,5.087l3.849,1.277l1.197-4.259c1.948,0.818,3.999,1.414,5.995,2.091     C449.869,81.361,449.038,83.767,448.228,86.238z"/>
		</g>
	</g>
</g>
<g>
</g>
<g>
</g>
<g>
</g>
<g>
</g>
<g>
</g>
<g>
</g>
<g>
</g>
<g>
</g>
<g>
</g>
<g>
</g>
<g>
</g>
<g>
</g>
<g>
</g>
<g>
</g>
<g>
</g>
</svg>
