<?xml version="1.0" encoding="iso-8859-1"?>
<!-- Generator: Adobe Illustrator 27.9.0, SVG Export Plug-In . SVG Version: 6.00 Build 0)  -->
<svg xmlns="http://www.w3.org/2000/svg" xmlns:xlink="http://www.w3.org/1999/xlink" version="1.1" id="Capa_1" x="0px" y="0px" viewBox="0 0 512 512" style="enable-background:new 0 0 512 512;" xml:space="preserve">
<g>
	<g>
		<g>
			<g>
				<path style="fill:#848BF1;" d="M503.691,211.211c-16.084-17.024-28.245-15.385-47.01-7.657l-15.846-90.846l-208.65-46.578      l-35.55,42.976c-28.09,29.145-61.626,76.683-60.542,136.74l75.171,2.481l-58.517,63.051l13.953,34.695l171.693,62.121      l-33.308,55.636l127.499-52.101l12.719-139.448C488.506,283.402,530.212,239.329,503.691,211.211z"/>
				<g>
					<path style="fill:#222A5C;" d="M263.997,251.471L134.7,247.225l-0.025-1.355c-1.865-102.38,97.318-169.459,98.319-170.124       l1.579,2.375c-0.984,0.654-98.012,66.301-97.066,166.343l123.425,4.052c-0.473-3.975-2.401-14.502-9.694-18.143       c-5.918-2.952-14.188-0.855-24.597,6.23l-1.604-2.359c11.33-7.713,20.575-9.875,27.484-6.418       c10.516,5.258,11.373,21.418,11.405,22.103L263.997,251.471z"/>
					<g>
						<path style="fill:#222A5C;" d="M236.548,261.777c0,0,46.329,21.747,80.061-41.822c0,0,14.605,99.182-16.427,115.345        C269.149,351.461,236.548,261.777,236.548,261.777z"/>
						<path style="fill:#F4E4CE;" d="M246.92,268.602c0,0,38.973,5.94,65.589-33.033        C312.509,235.569,293.022,307.338,246.92,268.602z"/>
						<path style="fill:#FFBEDB;" d="M316.905,292.961c0,0-6.535,50.618-29.348,39.686        C287.557,332.647,287.675,290.822,316.905,292.961z"/>
					</g>
					<path style="fill:#222A5C;" d="M466.369,258.053l-2.307-1.677c0.16-0.223,3.882-5.482-0.156-8.452       c-4.22-3.106-11.136,2.597-11.206,2.657l-2.025-1.994c0.578-0.7,14.364-17.124,32.001-14.243       c5.749,0.941,9.549,3.221,11.294,6.779c2.688,5.475-0.657,11.77-0.802,12.036l-2.508-1.356       c0.028-0.053,2.788-5.291,0.744-9.437c-1.319-2.673-4.41-4.425-9.187-5.206c-9.115-1.492-17.307,2.94-22.702,7.072       c2.032-0.288,4.168-0.014,6.082,1.395C470.657,249.35,468.314,255.383,466.369,258.053z"/>
					<path style="fill:#222A5C;" d="M225.864,212.065c-0.227,0-0.451-0.007-0.68-0.022c-3.061-0.208-4.546-1.845-5.254-3.182       c-4.938-9.332,11.144-37.284,12.994-40.441l2.459,1.443c-4.803,8.197-16.489,30.943-12.933,37.664       c0.347,0.656,1.028,1.541,2.926,1.67c11.293,0.746,22.918-24.914,26.449-34.871l2.688,0.952       C253.974,176.8,241.297,212.062,225.864,212.065z"/>
					<path style="fill:#222A5C;" d="M265.811,220.556c-0.227,0-0.451-0.007-0.679-0.023c-3.059-0.207-4.545-1.845-5.252-3.182       c-4.937-9.332,11.145-37.282,12.996-40.439l2.459,1.442c-4.802,8.197-16.491,30.943-12.935,37.662       c0.347,0.656,1.028,1.542,2.924,1.67c11.343,0.78,22.924-24.911,26.452-34.868l2.687,0.952       C293.924,185.294,281.25,220.553,265.811,220.556z"/>
					
						<rect x="256.316" y="97.755" transform="matrix(0.2444 -0.9697 0.9697 0.2444 46.4591 381.0144)" style="fill:#222A5C;" width="22.812" height="125.879"/>
				</g>
			</g>
			<g>
				<path style="fill:#FF9509;" d="M456.681,203.554c-12.177,4.991-20.903,10.523-20.903,10.523s12.718,117.804-61.967,177.719      c-9.981,8.012-22.016,13.288-35.418,16.397c-86.778,20.417-229.847-49.164-229.847-49.164l44.201-47.652      c242.081,133.004,269.115-102.319,269.115-102.319c-95.418,40.779-29.458-90.143-29.458-90.143l-78.565,12.092l25.009-22.729      L214.6,123.421l33.423-29.571l-51.388,15.256l-23.556,6.987c0,0,63.222-210.057,299.6-26.093L456.681,203.554z"/>
				<path style="fill:#FFB93F;" d="M295.974,409.216c-1.405,0-2.837-0.309-4.286-0.93c-12.356-5.293-23.295-32.815-27.355-44.179      c-2.504,9.875-9.693,31.028-26.068,35.496c-3.716,1.019-7.076,0.397-9.995-1.831c-9.62-7.346-11.683-30.923-12.124-41.036      c-5.249,7.505-18.151,23.082-34.815,23.082c-3.996,0-6.937-1.449-8.738-4.307c-5.192-8.239,1.188-26.589,5.004-35.88      c-10.3,8.324-33.63,25.647-42.352,19.488c-1.547-1.093-2.438-2.678-2.649-4.712c-1.171-11.372,21.077-35.382,22.026-36.398      l2.086,1.944c-6.21,6.663-22.137,25.788-21.273,34.162c0.122,1.195,0.599,2.071,1.456,2.676      c6.684,4.71,30.234-11.726,43.506-23.205l5.163-4.464l-2.943,6.159c-3.84,8.033-12.693,30.647-7.613,38.71      c1.263,2.003,3.332,2.976,6.326,2.976c19.859,0,34.738-25.319,34.887-25.575l2.658-4.595l0.001,5.309      c0,0.35,0.132,35.009,11.123,43.401c2.207,1.685,4.667,2.128,7.512,1.345c19.335-5.276,25.055-37.945,25.111-38.273l0.978-5.8      l1.788,5.603c0.131,0.412,13.291,41.231,27.423,47.284c2.204,0.943,4.245,0.931,6.241-0.039      c16.517-8.036,13.494-47.16,13.461-47.555l-0.401-4.883l2.959,3.906c0.259,0.341,26.06,34.166,42.011,35.813      c2.533,0.262,4.598-0.33,6.295-1.807c13.731-11.958-2.548-44.889-2.714-45.221l-2.214-4.415l4.226,2.556      c0.198,0.12,19.908,11.939,31.036,9.118c2.495-0.632,4.293-1.935,5.495-3.985c7.547-12.875-7.9-37.718-8.057-37.969      l-2.154-3.424l3.826,1.317c0.146,0.05,14.738,4.993,22.958,0.978c2.354-1.151,3.903-2.891,4.733-5.318      c4.346-12.703-11.813-26.835-11.978-26.976l1.862-2.161c0.728,0.628,17.784,15.53,12.814,30.058      c-1.073,3.139-3.154,5.479-6.182,6.959c-6.695,3.269-16.473,1.503-21.644,0.176c4.095,7.427,13.066,26.225,6.28,37.802      c-1.585,2.704-4.027,4.491-7.256,5.308c-9.197,2.335-22.779-3.843-29.369-7.303c4.105,9.611,12.66,33.807,0.212,44.65      c-2.295,1.997-5.144,2.839-8.463,2.494c-14.089-1.455-33.926-24.4-41.206-33.396c0.31,11.007-0.451,38.628-15.282,45.843      C298.895,408.875,297.448,409.216,295.974,409.216z"/>
				<path style="fill:#FFB93F;" d="M409.51,207.374c-8.356,0-14.58-2.321-18.618-6.964c-17.493-20.114,12.933-75.946,14.236-78.313      l2.498,1.376c-0.309,0.563-30.779,56.448-14.583,75.066c7.411,8.519,23.799,8.015,48.71-1.489l1.016,2.665      C429.383,204.82,418.274,207.374,409.51,207.374z"/>
				<path style="fill:#FFB93F;" d="M410.795,189.261c-4.471,0-7.845-1.214-10.161-3.637c-10.038-10.493,5.947-39.762,6.634-41.003      l2.495,1.378c-4.385,7.944-14.204,30.196-7.068,37.654c3.553,3.712,13.189,5.464,38.932-7.296l1.267,2.554      C428.956,185.82,418.32,189.259,410.795,189.261z"/>
			</g>
		</g>
		<g>
			<path style="fill:#F4E4CE;" d="M302.232,456.707l139.531-58.477l25.665,26.832c0,0-80.768,92.736-189.133,68.36L302.232,456.707z     "/>
			
				<rect x="298.95" y="434.462" transform="matrix(0.9373 -0.3485 0.3485 0.9373 -128.5393 157.3114)" style="fill:#222A5C;" width="147.95" height="2.852"/>
			
				<rect x="281.001" y="455.923" transform="matrix(0.9115 -0.4113 0.4113 0.9115 -156.6891 186.5548)" style="fill:#222A5C;" width="148.239" height="2.851"/>
			
				<rect x="325.459" y="458.596" transform="matrix(0.9433 -0.3319 0.3319 0.9433 -131.0225 152.9932)" style="fill:#222A5C;" width="113.734" height="2.852"/>
		</g>
	</g>
	<g>
		<path style="fill:#FFB93F;" d="M83.947,45.413c46.361,0,83.947,20.086,83.947,44.864c0,19.025-22.169,35.272-53.446,41.795    l14.47,34.053l-34.564-31.341c-3.412,0.226-6.879,0.355-10.407,0.355C37.586,135.14,0,115.054,0,90.277    C0,65.499,37.586,45.413,83.947,45.413z"/>
		<g>
			<polygon style="fill:#222A5C;" points="35.656,68.626 36.335,83.941 25.319,86.55 24.784,68.626 14.973,68.626 20.328,112.827      27.329,112.827 25.319,91.796 36.686,91.845 37.616,112.827 42.607,112.827 46.35,68.626    "/>
			<polygon style="fill:#222A5C;" points="68.272,67.913 46.35,88.588 69.342,112.114 70.411,101.955 52.41,90.014 67.203,92.152      65.955,85.914 53.479,86.449 70.411,73.082    "/>
			<polygon style="fill:#222A5C;" points="73.001,67.746 73.928,112.282 100.085,111.354 100.085,103.004 78.196,106.529      78.753,67.746    "/>
			<polygon style="fill:#222A5C;" points="104.008,66.129 104.935,110.665 131.092,109.738 131.092,101.387 109.203,104.913      109.76,66.129    "/>
			<path style="fill:#222A5C;" d="M147.406,64.192L129.94,86.984l15.15,21.922l15.15-20.509L147.406,64.192z M136.891,86.55     l9.803-9.616l7.664,11.709l-9.268,11.709L136.891,86.55z"/>
		</g>
	</g>
</g>
<g>
</g>
<g>
</g>
<g>
</g>
<g>
</g>
<g>
</g>
<g>
</g>
<g>
</g>
<g>
</g>
<g>
</g>
<g>
</g>
<g>
</g>
<g>
</g>
<g>
</g>
<g>
</g>
<g>
</g>
</svg>
