<?xml version="1.0" encoding="iso-8859-1"?>
<!-- Generator: Adobe Illustrator 27.9.0, SVG Export Plug-In . SVG Version: 6.00 Build 0)  -->
<svg xmlns="http://www.w3.org/2000/svg" xmlns:xlink="http://www.w3.org/1999/xlink" version="1.1" id="Capa_1" x="0px" y="0px" viewBox="0 0 512 512" style="enable-background:new 0 0 512 512;" xml:space="preserve">
<g>
	<g>
		<g>
			<path style="fill:#555AFF;" d="M264.294,311.519l25.564,79.053l-73.707-5.941c0,0,44.582,80.235,99.855,74.294     c55.279-5.938,67.168-70.735,67.168-70.735l-66.572,3.568l16.641-74.294L264.294,311.519z"/>
			<path style="fill:#848BF1;" d="M309.375,452.062c-0.444,0-0.887-0.006-1.334-0.017c-45.585-1.179-71.863-59.516-72.957-61.999     l2.844-1.258c0.261,0.591,26.585,59.017,70.192,60.144c0.416,0.011,0.836,0.017,1.246,0.017c42.485,0,59.68-56.671,59.85-57.248     l2.984,0.878C372.023,393.18,354.181,452.062,309.375,452.062z"/>
			<path style="fill:#848BF1;" d="M311.362,442.794c-0.86,0-1.726-0.029-2.611-0.088c-34.805-2.373-53.465-48.045-54.24-49.988     l2.887-1.156c0.185,0.459,18.717,45.799,51.565,48.039c32.544,2.199,48.834-43.233,48.991-43.692l2.942,1.021     C360.232,398.848,344.581,442.794,311.362,442.794z"/>
			<polygon style="fill:#848BF1;" points="283.185,396.808 276.572,377.359 330.933,377.359 327.918,399.92    "/>
			<path style="fill:#555AFF;" d="M288.998,386.883c0.991,2.144,0.848,4.322-0.322,4.862c-1.17,0.541-2.923-0.76-3.914-2.905     c-0.99-2.144-0.848-4.322,0.322-4.862C286.254,383.437,288.008,384.737,288.998,386.883z"/>
			<path style="fill:#555AFF;" d="M302.947,387.661c0.991,2.144,0.848,4.322-0.322,4.862c-1.17,0.541-2.924-0.76-3.914-2.905     c-0.991-2.144-0.848-4.322,0.322-4.862C300.203,384.215,301.956,385.515,302.947,387.661z"/>
			<path style="fill:#555AFF;" d="M319.09,387.661c0.991,2.144,0.848,4.322-0.322,4.862c-1.17,0.541-2.924-0.76-3.914-2.905     c-0.991-2.144-0.848-4.322,0.322-4.862C316.346,384.215,318.099,385.515,319.09,387.661z"/>
			
				<rect x="284.093" y="363.939" transform="matrix(0.9995 -0.0312 0.0312 0.9995 -11.2627 9.6282)" style="fill:#848BF1;" width="37.222" height="3.11"/>
			
				<rect x="299.911" y="330.729" transform="matrix(0.0662 -0.9978 0.9978 0.0662 -70.4784 630.1992)" style="fill:#848BF1;" width="3.113" height="44.053"/>
			<path style="fill:#848BF1;" d="M312.252,431.948c-0.012,0-0.015,0-0.024,0c-25.813-0.021-44.688-37.521-45.478-39.116l2.79-1.383     c0.185,0.374,18.805,37.367,42.689,37.387c0.006,0,0.015,0,0.021,0c23.677,0,34.432-34.337,34.538-34.685l2.978,0.907     C349.307,396.565,338.23,431.948,312.252,431.948z"/>
		</g>
		<g>
			<path style="fill:#FFB93F;" d="M462.229,347.179l-356.631-24.367c0,0-70.736-155.733,2.966-270.445l391.111,26.746     C499.676,79.113,544.847,239.596,462.229,347.179z"/>
			<g>
				<g>
					<path style="fill:#222A5C;" d="M385.592,305.186c-0.27,7.661-4.817,13.554-10.15,13.153l-174.328-13.036       c-5.334-0.398-9.427-6.933-9.151-14.591l1.76-48.551c0.273-7.663,4.82-13.543,10.15-13.147l174.331,13.033       c5.33,0.395,9.427,6.935,9.147,14.595L385.592,305.186z"/>
					<polygon style="fill:#F4E4CE;" points="203.101,270.216 203.101,291.184 231.966,292.974 233.181,272.54      "/>
					<polygon style="fill:#F4E4CE;" points="236.284,272.78 235.072,293.167 266.282,295.101 268.124,275.24      "/>
					<polygon style="fill:#F4E4CE;" points="268.409,272.14 270.509,249.446 237.861,246.265 236.469,269.672      "/>
					<polygon style="fill:#F4E4CE;" points="234.764,245.962 203.101,242.876 203.101,267.095 233.367,269.434      "/>
					<polygon style="fill:#F4E4CE;" points="271.226,275.48 269.391,295.294 300.844,297.245 302.646,277.907      "/>
					<polygon style="fill:#F4E4CE;" points="338.12,299.556 372.509,301.688 375.697,283.55 341.083,280.876      "/>
					<polygon style="fill:#F4E4CE;" points="376.238,280.47 379.815,260.099 344.919,256.699 341.573,277.793      "/>
					<polygon style="fill:#F4E4CE;" points="305.749,278.147 303.953,297.437 334.999,299.362 337.968,280.636      "/>
					<polygon style="fill:#F4E4CE;" points="302.935,274.808 304.983,252.806 273.609,249.749 271.512,272.38      "/>
					<polygon style="fill:#F4E4CE;" points="338.458,277.552 341.812,256.395 308.083,253.109 306.038,275.047      "/>
				</g>
				<g>
					<path style="fill:#FF9509;" d="M247.993,149.815c0,42.217-33.693,76.453-75.251,76.453c-41.552,0-75.245-34.236-75.245-76.453       c0-42.225,33.693-76.453,75.245-76.453C214.3,73.362,247.993,107.59,247.993,149.815z"/>
					<path style="fill:#F4E4CE;" d="M236.579,149.815c0,32.69-26.09,59.199-58.269,59.199c-32.174,0-58.263-26.509-58.263-59.199       c0-32.697,26.09-59.199,58.263-59.199C210.489,90.615,236.579,117.118,236.579,149.815z"/>
					<path style="fill:#222A5C;" d="M232.993,150.312c0,20.025-17.684,36.261-39.495,36.261c-21.811,0-39.495-16.236-39.495-36.261       c0-20.026,17.684-36.26,39.495-36.26C215.309,114.052,232.993,130.286,232.993,150.312z"/>
				</g>
				<g>
					<path style="fill:#FF9509;" d="M491.838,161.36c0,42.218-33.693,76.453-75.251,76.453c-41.552,0-75.245-34.235-75.245-76.453       c0-42.225,33.693-76.453,75.245-76.453C458.145,84.907,491.838,119.135,491.838,161.36z"/>
					<path style="fill:#F4E4CE;" d="M471.012,163.284c0,32.69-26.09,59.199-58.27,59.199c-32.174,0-58.263-26.509-58.263-59.199       c0-32.696,26.089-59.199,58.263-59.199C444.922,104.084,471.012,130.587,471.012,163.284z"/>
					<path style="fill:#222A5C;" d="M437.343,163.282c0,20.025-17.684,36.261-39.495,36.261c-21.811,0-39.495-16.236-39.495-36.261       c0-20.025,17.684-36.259,39.495-36.259C419.659,127.023,437.343,143.257,437.343,163.282z"/>
				</g>
				<g>
					<path style="fill:#848BF1;" d="M304.275,145.961l-42.29,38.61c0,0,24.354,43.208,68.949,7.354L304.275,145.961z"/>
					<path style="fill:#555AFF;" d="M301.616,198.589c-22.282,0-35.265-11.7-35.438-11.861l2.112-2.284       c0.222,0.201,22.488,20.143,58.935,5.917l1.131,2.899C318.4,197.147,309.435,198.589,301.616,198.589z"/>
					<path style="fill:#555AFF;" d="M280.331,181.309c0,1.431-1.684,2.592-3.762,2.592c-2.076,0-3.759-1.161-3.759-2.592       c0-1.433,1.684-2.594,3.759-2.594C278.647,178.716,280.331,179.876,280.331,181.309z"/>
					<path style="fill:#555AFF;" d="M287.853,172.752c0,1.431-1.684,2.592-3.762,2.592c-2.076,0-3.759-1.161-3.759-2.592       c0-1.433,1.684-2.594,3.759-2.594C286.169,170.158,287.853,171.319,287.853,172.752z"/>
					<path style="fill:#555AFF;" d="M295.374,164.727c0,1.431-1.684,2.592-3.762,2.592c-2.076,0-3.759-1.161-3.759-2.592       c0-1.433,1.684-2.594,3.759-2.594C293.69,162.133,295.374,163.294,295.374,164.727z"/>
					<path style="fill:#555AFF;" d="M312.49,165.877c0,1.432-1.684,2.592-3.762,2.592c-2.076,0-3.759-1.161-3.759-2.592       c0-1.433,1.684-2.594,3.759-2.594C310.806,163.284,312.49,164.445,312.49,165.877z"/>
					<path style="fill:#555AFF;" d="M318.455,175.345c0,1.431-1.684,2.592-3.762,2.592c-2.076,0-3.759-1.161-3.759-2.592       c0-1.433,1.684-2.594,3.759-2.594C316.772,172.752,318.455,173.912,318.455,175.345z"/>
					<path style="fill:#555AFF;" d="M322.992,186.495c0,1.431-1.684,2.592-3.762,2.592c-2.076,0-3.759-1.161-3.759-2.592       c0-1.433,1.684-2.594,3.759-2.594C321.309,183.902,322.992,185.062,322.992,186.495z"/>
				</g>
			</g>
		</g>
	</g>
	<g>
		<polygon style="fill:#FFBEDB;" points="178.312,339.109 129.923,385.379 4.668,379.434 0,455.546 221.18,459.633 208.131,385.772     154.633,385.379   "/>
		<g>
			<g>
				<path style="fill:#222A5C;" d="M22.191,420.901c-0.083,3.392,0.601,8.23-3.419,9.591c-2.894,0.332-7.528,1.359-8.445-2.432      c-0.502-3.588-1.941-9.012,0.704-11.872C15.365,414.22,23.483,414.212,22.191,420.901z M18.249,423.275      c-0.33-1.715,0.445-4.9-1.066-5.983c-2.248-0.304-4.292,0.484-4,3.128c-0.099,2.732-0.211,5.6,0.479,8.203      C18.073,429.891,18.234,426.73,18.249,423.275z"/>
				<path style="fill:#222A5C;" d="M30.232,430.331c-1.628-0.135-3.202-0.192-4.826-0.22l0.544-10.737l-1.611-0.161      c0.452-1.282,0.488-2.56,0.726-3.881l4.322-0.12C29.715,420.285,29.928,425.258,30.232,430.331z"/>
				<path style="fill:#222A5C;" d="M38.799,430.331c-1.628-0.135-3.202-0.192-4.826-0.22l0.544-10.737l-1.611-0.161      c0.452-1.282,0.489-2.56,0.726-3.881l4.322-0.12C38.282,420.285,38.495,425.258,38.799,430.331z"/>
				<path style="fill:#222A5C;" d="M53.978,420.901c-0.083,3.392,0.601,8.23-3.419,9.591c-3.323,0.563-8.398,1.13-8.685-3.478      c-0.255-3.288-1.592-8.295,0.944-10.826C47.152,414.22,55.271,414.212,53.978,420.901z M50.037,423.275      c-0.33-1.715,0.445-4.9-1.066-5.983c-2.247-0.304-4.292,0.484-3.999,3.128c-0.1,2.732-0.211,5.6,0.48,8.203      C49.861,429.891,50.022,426.73,50.037,423.275z"/>
				<path style="fill:#222A5C;" d="M62.02,430.331c-1.628-0.135-3.202-0.192-4.826-0.22l0.544-10.737l-1.611-0.161      c0.452-1.282,0.489-2.56,0.726-3.881l4.322-0.12C61.503,420.285,61.715,425.258,62.02,430.331z"/>
				<path style="fill:#222A5C;" d="M77.199,420.901c-0.083,3.392,0.601,8.23-3.419,9.591c-2.894,0.332-7.527,1.359-8.445-2.432      c-0.502-3.588-1.941-9.013,0.704-11.872C70.373,414.22,78.492,414.212,77.199,420.901z M73.258,423.275      c-0.33-1.715,0.445-4.9-1.066-5.983c-2.247-0.304-4.292,0.484-3.999,3.128c-0.1,2.732-0.211,5.6,0.479,8.203      C73.082,429.891,73.242,426.73,73.258,423.275z"/>
				<path style="fill:#222A5C;" d="M91.859,420.901c-0.083,3.392,0.601,8.23-3.419,9.591c-2.894,0.332-7.528,1.359-8.445-2.432      c-0.502-3.588-1.94-9.012,0.704-11.872C85.034,414.22,93.152,414.212,91.859,420.901z M87.918,423.275      c-0.33-1.715,0.445-4.9-1.066-5.983c-2.248-0.304-4.292,0.484-4,3.128c-0.099,2.732-0.211,5.6,0.479,8.203      C87.742,429.891,87.902,426.73,87.918,423.275z"/>
				<path style="fill:#222A5C;" d="M106.516,420.901c-0.083,3.392,0.601,8.23-3.419,9.591c-2.894,0.332-7.528,1.359-8.445-2.432      c-0.502-3.588-1.941-9.013,0.704-11.872C99.69,414.22,107.809,414.212,106.516,420.901z M102.575,423.275      c-0.329-1.715,0.445-4.9-1.066-5.983c-2.247-0.304-4.292,0.484-3.999,3.128c-0.1,2.732-0.211,5.6,0.479,8.203      C102.399,429.891,102.56,426.73,102.575,423.275z"/>
				<path style="fill:#222A5C;" d="M129.458,420.901c-0.083,3.392,0.601,8.23-3.419,9.591c-2.894,0.332-7.528,1.359-8.445-2.432      c-0.502-3.588-1.941-9.012,0.704-11.872C122.632,414.22,130.751,414.212,129.458,420.901z M125.516,423.275      c-0.33-1.715,0.445-4.9-1.066-5.983c-2.248-0.304-4.292,0.484-3.999,3.128c-0.1,2.732-0.211,5.6,0.48,8.203      C125.34,429.892,125.501,426.73,125.516,423.275z"/>
				<path style="fill:#222A5C;" d="M137.499,430.331c-1.628-0.135-3.202-0.192-4.826-0.22l0.544-10.737l-1.611-0.161      c0.452-1.282,0.488-2.56,0.726-3.881l4.322-0.12C136.982,420.285,137.195,425.258,137.499,430.331z"/>
				<path style="fill:#222A5C;" d="M146.063,430.331c-1.628-0.135-3.202-0.192-4.826-0.22l0.544-10.737l-1.61-0.161      c0.452-1.282,0.488-2.56,0.726-3.881l4.321-0.12C145.546,420.285,145.759,425.258,146.063,430.331z"/>
				<path style="fill:#222A5C;" d="M161.242,420.901c-0.083,3.392,0.601,8.23-3.419,9.591c-2.894,0.332-7.528,1.359-8.445-2.432      c-0.502-3.588-1.941-9.012,0.704-11.872C154.417,414.22,162.535,414.212,161.242,420.901z M157.301,423.275      c-0.33-1.715,0.445-4.9-1.066-5.983c-2.248-0.304-4.292,0.484-4,3.128c-0.099,2.732-0.211,5.6,0.48,8.203      C157.125,429.892,157.285,426.73,157.301,423.275z"/>
				<path style="fill:#222A5C;" d="M169.286,430.331c-1.628-0.135-3.202-0.192-4.826-0.22l0.544-10.737l-1.61-0.161      c0.451-1.282,0.488-2.56,0.726-3.881l4.321-0.12C168.77,420.285,168.983,425.258,169.286,430.331z"/>
				<path style="fill:#222A5C;" d="M184.466,420.901c-0.083,3.392,0.601,8.23-3.419,9.591c-2.894,0.332-7.528,1.359-8.445-2.432      c-0.502-3.588-1.941-9.012,0.704-11.872C177.64,414.22,185.759,414.212,184.466,420.901z M180.525,423.275      c-0.329-1.715,0.445-4.899-1.066-5.983c-2.247-0.304-4.292,0.484-4,3.128c-0.1,2.732-0.211,5.6,0.479,8.203      C180.348,429.891,180.51,426.73,180.525,423.275z"/>
				<path style="fill:#222A5C;" d="M199.123,420.901c-0.083,3.392,0.601,8.23-3.419,9.591c-2.894,0.332-7.528,1.359-8.445-2.432      c-0.502-3.588-1.941-9.013,0.704-11.872C192.297,414.22,200.416,414.212,199.123,420.901z M195.182,423.275      c-0.33-1.715,0.445-4.9-1.066-5.983c-2.247-0.304-4.292,0.484-3.999,3.128c-0.1,2.732-0.211,5.6,0.48,8.203      C195.005,429.891,195.167,426.73,195.182,423.275z"/>
				<path style="fill:#222A5C;" d="M207.165,430.331c-1.628-0.135-3.202-0.192-4.826-0.22l0.544-10.737l-1.611-0.161      c0.452-1.282,0.489-2.56,0.726-3.881l4.322-0.12C206.648,420.285,206.86,425.258,207.165,430.331z"/>
			</g>
		</g>
	</g>
</g>
<g>
</g>
<g>
</g>
<g>
</g>
<g>
</g>
<g>
</g>
<g>
</g>
<g>
</g>
<g>
</g>
<g>
</g>
<g>
</g>
<g>
</g>
<g>
</g>
<g>
</g>
<g>
</g>
<g>
</g>
</svg>
