<?xml version="1.0" encoding="iso-8859-1"?>
<!-- Generator: Adobe Illustrator 27.9.0, SVG Export Plug-In . SVG Version: 6.00 Build 0)  -->
<svg xmlns="http://www.w3.org/2000/svg" xmlns:xlink="http://www.w3.org/1999/xlink" version="1.1" id="Capa_1" x="0px" y="0px" viewBox="0 0 512 512" style="enable-background:new 0 0 512 512;" xml:space="preserve">
<g>
	<g>
		<g>
			<g>
				<g>
					<path style="fill:#FFBEDB;" d="M308.882,332.003c5.742,9.023,0.878,22.615-6.708,29.441       c-13.153,11.805-38.581-3.809-38.581-3.809l-14.939,51.616l-37.584,1.348L153.04,283.112c0,0-88.378,67.023-118.024,23.639       c-29.206-42.798,10.722-91.542,62.952-62.599l1.2-89.902L240.657,54.242c0,0,164.248,124.585,180.125,178.895       C431.68,270.34,356.982,310.413,308.882,332.003z"/>
					<g>
						<path style="fill:#222A5C;" d="M220.855,232.067c-1.428,0-2.855-0.259-4.278-0.778c-11.793-4.295-19.049-25.263-19.353-26.154        l2.772-0.944c0.07,0.204,7.107,20.532,17.586,24.347c2.934,1.067,5.813,0.709,8.797-1.091        c3.084-1.865,4.938-4.454,5.666-7.914c2.486-11.811-9.366-28.872-9.486-29.043l2.397-1.682        c0.521,0.739,12.7,18.287,9.955,31.329c-0.891,4.238-3.253,7.541-7.016,9.816        C225.567,231.362,223.212,232.067,220.855,232.067z"/>
						<path style="fill:#222A5C;" d="M258.757,210.497c-1.427,0-2.855-0.259-4.278-0.778c-11.795-4.295-19.051-25.262-19.354-26.153        l2.772-0.944c0.07,0.205,7.107,20.531,17.586,24.346c2.938,1.068,5.817,0.712,8.798-1.091        c3.084-1.865,4.938-4.454,5.666-7.914c2.485-11.811-9.369-28.872-9.489-29.043l2.397-1.682        c0.521,0.739,12.703,18.287,9.958,31.329c-0.891,4.238-3.253,7.541-7.016,9.816        C263.468,209.792,261.114,210.497,258.757,210.497z"/>
						<g>
							<path style="fill:#222A5C;" d="M325.721,192.122c-2.084-1.822-4.531-2.572-7.266-2.228         c-7.442,0.935-15.139,10.007-18.208,14.018L257.99,128.71l-2.555,1.436l44.524,79.23l1.332-1.937         c0.093-0.136,9.453-13.625,17.532-14.639c1.901-0.245,3.524,0.261,4.971,1.528c2.273,1.988,1.981,5.292,1.337,7.715         c-3.078,11.566-23.37,33.018-64.719,41.34l-1.726,0.348l5.88,14.638c-3.675,0.986-12.165,4.147-17.436,13.108         c-6.111,10.389-5.799,24.912,0.925,43.166l0.644,1.748l23.535-15.797l2.506,25.224l1.526-0.235         c16.895-2.586,28.332,0.504,32.212,8.704c4.003,8.466-0.657,20.115-7.271,26.054c-12.192,10.949-36.597-3.815-36.841-3.966         l-1.639-1.005l-15.469,53.481l2.815,0.815l14.415-49.839c6.022,3.329,26.717,13.438,38.677,2.695         c7.396-6.64,12.543-19.8,7.961-29.485c-3.099-6.555-11.49-13.614-33.775-10.569l-2.685-27.034l-1.612,1.082l-9.204-34.846         c1.749-0.598,2.909-0.797,2.945-0.802l1.816-0.29l-5.897-14.677c41.779-8.882,61.905-30.542,65.248-43.103         C329.174,198.236,328.379,194.446,325.721,192.122z"/>
							<path style="fill:#F4E4CE;" d="M262.041,263.945l2.197,8.056L245.433,282.7C245.433,282.7,247.637,266.631,262.041,263.945z"/>
							<path style="fill:#FF80B5;" d="M249.591,309.35c0,0,3.173-18.554,17.576-9.277L249.591,309.35z"/>
						</g>
						
							<rect x="169.389" y="170.941" transform="matrix(0.7038 -0.7104 0.7104 0.7038 -69.9962 194.5066)" style="fill:#555AFF;" width="57.736" height="20.505"/>
						
							<rect x="233.995" y="100.093" transform="matrix(0.0329 -0.9995 0.9995 0.0329 107.2684 368.891)" style="fill:#555AFF;" width="20.505" height="57.85"/>
						<path style="fill:#222A5C;" d="M79.491,301.039c-1.998-2.742-4.405-8.94,0.794-12.764c1.96-1.442,4.138-1.732,6.232-1.436        c-5.549-4.241-13.958-8.794-23.305-7.262c-4.908,0.803-8.083,2.602-9.438,5.348c-2.1,4.258,0.735,9.639,0.764,9.694        l-2.576,1.393c-0.149-0.273-3.585-6.74-0.824-12.364c1.792-3.655,5.696-5.996,11.602-6.963        c18.108-2.948,32.279,13.911,32.872,14.631l-2.078,2.048c-0.072-0.06-7.126-5.962-11.513-2.729        c-4.175,3.071-0.327,8.452-0.162,8.679L79.491,301.039z"/>
					</g>
				</g>
				<path style="fill:#555AFF;" d="M123.856,152.751L95.561,175.62l-19.886,97.973l66.209-1.796l-33.396-52.564      C108.488,219.232,194.012,253.247,123.856,152.751z"/>
			</g>
			<g>
				<path style="fill:#222A5C;" d="M259.134,57.651l-110.633,88.355c0,0-30.597,104.767-108.043,79.979      c0,0-39.16-100.232,74.112-181.206c113.275-80.978,178.977-34.962,138.941,4.355L259.134,57.651z"/>
				<path style="fill:#FF80B5;" d="M80.969,91.96c-4.149,8.626-11.254,13.818-15.871,11.598c-4.617-2.221-4.996-11.013-0.847-19.64      C68.4,75.292,75.505,70.1,80.122,72.32C84.739,74.542,85.118,83.334,80.969,91.96z"/>
			</g>
		</g>
		<g>
			<path style="fill:#F4E4CE;" d="M310.462,463.033l-10.523,0.901l1.385-8.283l-7.969-6.385l-7.707,0.284l-1.433-7.638l-9.988-8.056     h-9.807l0.608-7.411l-7.617-6.123l0.88-2.695l-5.039-6.678l9.051-5.391l3.868-11.6l-41.663-3.164l-30.986,7.002l4.043,13.153     l9.549,6.678l-6.005,4.775l0.907,2.959l-5.887,5.565l1.436,10.161l-10.37-1.695l-7.441,7.06l1.178,4.664l-10.025,3.713     l-8.729,8.232l0.812,5.631l-9.483,2.6l-9.551,9.021c0,0,85.244,79.416,171.572-13.211L310.462,463.033z"/>
			<g>
				<path style="fill:#FF9509;" d="M301.324,455.651c-19.275,21.883-40.572,33.746-63.538,35.358      c-30.671,2.108-58.5-14.53-75.607-27.946l-8.671,8.232c17.341,13.914,45.873,31.608,78.799,31.608      c2.05,0,4.13-0.059,6.239-0.206c26.335-1.817,50.444-15.116,71.915-39.664L301.324,455.651z"/>
				<path style="fill:#FF9509;" d="M251.436,475.63c16.435-3.223,30.495-12.041,41.919-26.364l-9.14-7.354      c-9.666,12.098-21.414,19.569-34.976,22.205c-25.895,5.068-53.489-8.027-69.483-17.663l-8.847,8.378      c14.354,9.081,39.634,22.146,66.232,22.146C241.887,476.977,246.662,476.538,251.436,475.63z"/>
				<path style="fill:#FF9509;" d="M243.117,451.608c11.717-2.401,22.116-8.349,31.11-17.752l-9.199-7.411      c-7.147,7.235-15.262,11.835-24.226,13.68c-17.107,3.544-34.215-3.427-44.673-9.199l-8.934,8.466      c9.49,5.654,25.749,13.417,43.882,13.417C235.032,452.81,239.045,452.428,243.117,451.608z"/>
				<polygon style="fill:#FF9509;" points="258.292,417.628 262.304,405.558 197.566,410.949 201.111,422.402     "/>
				<polygon style="fill:#FF9509;" points="266.172,393.958 269.54,383.794 190.741,388.744 193.523,397.796     "/>
			</g>
		</g>
	</g>
	<g>
		<path style="fill:#FFB93F;" d="M403.372,13.49c-46.107,0-83.487,20.633-83.487,46.086c0,19.543,22.047,36.232,53.153,42.933    l-14.391,34.981l34.374-32.194c3.393,0.232,6.841,0.365,10.35,0.365c46.107,0,83.486-20.633,83.486-46.084    C486.858,34.123,449.479,13.49,403.372,13.49z"/>
		<path style="fill:#222A5C;" d="M350.704,58.792c0.268,2.11-1.862,3.294-3.572,3.858c3.746-0.152,3.725,4.999,1.131,6.68    c-3.837,2.732-9.464,0.873-13.943,1.154c0.156-4.804,0.151-9.616-0.286-14.407l-1.834-0.166c-0.164-1.262-0.199-2.46-0.333-3.716    C337.813,53.14,350.55,49.916,350.704,58.792z M344.371,58.696c0.557-4.251-4.2-2.622-6.811-2.38    c0.198,1.557,0.319,3.113,0.548,4.667C339.959,60.569,344.669,61.715,344.371,58.696z M344.179,65.412    c-0.132-2.85-4.435-1.114-6.286-1.215l0.382,3.025C339.966,66.788,344.065,67.902,344.179,65.412z"/>
		<path style="fill:#222A5C;" d="M372.993,60.411c-0.059,7.457-0.2,10.99-8.883,10.096c-6.938-0.095-10.338,0.839-10.87-7.5    c-0.166-3.19,0.053-7.225,1.774-9.954c1.725-0.732,4.159-0.69,6.073-0.894c3.626-0.081,8.168-0.352,11.193,1.775    C372.915,55.887,372.888,58.378,372.993,60.411z M368.731,61.198c0.259-4.297-6.613-2.534-9.334-2.275    c-1.939,0.744-1.236,4.71-0.882,6.37c2.726,0.984,6.06,0.759,8.919,0.204C369.251,65.182,368.504,62.494,368.731,61.198z"/>
		<path style="fill:#222A5C;" d="M394.71,62.911c0,2.804-0.017,5.46-0.049,8.263c-1.952-0.087-3.886-0.159-5.81,0.19    c-2.079-4.545-4.267-9.005-6.072-13.668c-0.277,4.291-0.628,8.493-0.809,12.787l-5.144-0.141    c-0.174-6.106-0.215-12.092-0.548-18.194l9.31-0.047c1.564,4.045,2.669,8.238,4.311,12.264c-0.023-3.988-0.184-7.887-0.239-11.883    l4.81,0.572C394.596,56.358,394.714,59.604,394.71,62.911z"/>
		<path style="fill:#222A5C;" d="M411.2,62.363c1.14,8.027-6.607,10.532-12.836,7.407c-0.137-1.508-0.093-2.959-0.167-4.477    c11.434,3.549,7.336-5.761,6.525-12.883c1.952,0.07,3.89,0.001,5.834-0.262C410.945,55.581,411.065,58.916,411.2,62.363z"/>
		<path style="fill:#222A5C;" d="M434.226,60.411c-0.06,7.457-0.199,10.99-8.883,10.096c-6.938-0.095-10.338,0.839-10.869-7.5    c-0.166-3.19,0.053-7.225,1.774-9.954c1.724-0.732,4.159-0.69,6.072-0.894c3.626-0.08,8.169-0.352,11.193,1.775    C434.149,55.887,434.12,58.378,434.226,60.411z M429.964,61.198c0.259-4.297-6.613-2.534-9.334-2.275    c-1.939,0.744-1.237,4.71-0.882,6.37c2.725,0.984,6.061,0.759,8.919,0.204C430.483,65.182,429.736,62.494,429.964,61.198z"/>
		<path style="fill:#222A5C;" d="M455.158,62.721c-0.006,1.821-0.049,3.574-0.309,5.382c-3.038,2.882-6.783,3.236-10.788,2.999    c-2.548,0.499-4.479-1.617-6.311-3.047c-0.503-4.915-0.11-9.817,0.333-14.715l4.906-0.12c-0.379,3.506-0.889,7.561,0.143,10.978    c1.565,0.488,3.471,0.336,5.108,0.369c3.023-0.218,1.18-9.625,1.561-12.132c1.434,0.09,2.892,0.158,4.31-0.096    C454.775,55.743,455.162,59.243,455.158,62.721z"/>
		<path style="fill:#222A5C;" d="M475.756,58.602c0.034,2.621-1.796,4.174-4.334,4.287c1.572,2.619,2.945,5.303,4.12,8.049    l-6.953,0.166c-0.264-2.599-0.708-4.522-1.643-6.953c-1.036,0.058-2.068,0.177-3.095,0.238l0.119,5.407    c-1.793,0.081-3.597,0.134-5.381-0.049c0.504-5.473,0.486-10.947,0.689-16.43C464.768,53.416,475.305,50.324,475.756,58.602z     M470.232,58.22c0.594-3.76-3.918-2.435-6.215-2.237l0.642,4.619C466.759,60.904,470.87,61.489,470.232,58.22z"/>
	</g>
</g>
<g>
</g>
<g>
</g>
<g>
</g>
<g>
</g>
<g>
</g>
<g>
</g>
<g>
</g>
<g>
</g>
<g>
</g>
<g>
</g>
<g>
</g>
<g>
</g>
<g>
</g>
<g>
</g>
<g>
</g>
</svg>
