<?xml version="1.0" encoding="iso-8859-1"?>
<!-- Generator: Adobe Illustrator 27.9.0, SVG Export Plug-In . SVG Version: 6.00 Build 0)  -->
<svg xmlns="http://www.w3.org/2000/svg" xmlns:xlink="http://www.w3.org/1999/xlink" version="1.1" id="Capa_1" x="0px" y="0px" viewBox="0 0 512 512" style="enable-background:new 0 0 512 512;" xml:space="preserve">
<g>
	<g>
		<g>
			<g>
				<path style="fill:#FFB93F;" d="M469.727,235.642l-17.64-89.296L394.108,97.32l-129.386,4.263l-33.825,85.664      c-23.046,53.792-50.492,126.026-37.498,137.869c21.154,19.209,144.575,29.699,144.575,29.699l1.479,35.245l-8.236,8.364      c-5.96,47.513,36.245,48.472,46.604-1.381l-4.169-3.913l39.979-121.448c0,0,36.118,33.816,66.863,12.304      C501.368,269.38,494.768,241.448,469.727,235.642z"/>
				<g>
					<g>
						<path style="fill:#F4E4CE;" d="M285.646,241.709l-52.651-6.277C232.994,235.432,258.359,194.823,285.646,241.709z"/>
						<path style="fill:#222A5C;" d="M275.806,231.503c0,3.119-3.388,5.648-7.568,5.648c-4.179,0-7.567-2.529-7.567-5.648        c0-3.12,3.388-5.649,7.567-5.649C272.418,225.854,275.806,228.383,275.806,231.503z"/>
					</g>
					<g>
						<path style="fill:#F4E4CE;" d="M302.553,244.016h61.492C364.044,244.016,344.062,194.055,302.553,244.016z"/>
						<path style="fill:#222A5C;" d="M354.887,235.127c0,3.119-3.388,5.648-7.568,5.648c-4.179,0-7.567-2.529-7.567-5.648        c0-3.12,3.388-5.649,7.567-5.649C351.499,229.478,354.887,232.007,354.887,235.127z"/>
					</g>
					
						<rect x="241.425" y="198.783" transform="matrix(0.9973 -0.0732 0.0732 0.9973 -14.5014 19.9428)" style="fill:#222A5C;" width="46.594" height="17.906"/>
					
						<rect x="328.136" y="187.7" transform="matrix(0.1925 -0.9813 0.9813 0.1925 65.7351 500.682)" style="fill:#222A5C;" width="17.906" height="45.398"/>
					<g>
						<g>
							<path style="fill:#222A5C;" d="M343.072,261.19l-1.27-1.507l-0.859,1.775c-12.075,24.937-34.755,20.712-39.968,19.356         l1.897-11.341l-1.366-0.13c-14.94-1.419-28.044-4.648-28.044-6.91c0-0.457,0.145-0.767,0.485-1.035         c1.868-1.478,7.855-0.773,11.184,0.017l1.318,0.314l8.31-46.736l-2.518-0.447l-7.841,44.1         c-2.85-0.548-9.244-1.459-12.038,0.746c-0.953,0.753-1.457,1.805-1.457,3.043c0,5.655,19.28,8.333,28.994,9.322         l-1.815,10.845l1.043,0.343c0.145,0.046,7.178,2.258,16.019,1.104c3.54,9.135,7.53,23.087,5.19,35.356         c-3.469-1.075-6.963-2.615-10.305-4.704l-1.356,2.168c7.099,4.438,14.909,6.767,21.881,6.766         c3.818,0,7.384-0.698,10.445-2.131c6.767-3.168,11.014-9.729,12.281-18.972C356.689,277.697,343.63,261.854,343.072,261.19z"/>
							<path style="fill:#F4E4CE;" d="M319.289,283.832l1.706,8.363c0,0,32.096-3.945,22.529-26.776         C343.524,265.418,335.915,278.716,319.289,283.832z"/>
							<path style="fill:#FFBEDB;" d="M351.903,298.326c0,0-3.952,26.344-22.809,22.169         C329.095,320.495,336.556,295.554,351.903,298.326z"/>
						</g>
						<path style="fill:#222A5C;" d="M287.956,346.5l55.207,5.329c0,0-10.871,20.889-14.068,19.184s0-11.085,0-11.085        s-14.282,14.479-16.626,11.183c-2.344-3.296,2.217-12.063,2.217-12.063s-9.046,9.62-12.133,7.701        c-3.086-1.918,0.963-9.38,0.963-9.38s-9.465,9.804-11.873,8.313c-2.408-1.491,2.281-10.232,2.281-10.232        s-11.673,8.953-13.19,7.034C279.216,360.568,287.956,346.5,287.956,346.5z"/>
						<path style="fill:#222A5C;" d="M299.524,275.623l-28.196,18.44C271.329,294.063,279.057,263.973,299.524,275.623z"/>
						<path style="fill:#222A5C;" d="M314.814,269.124l44.549-8.526C359.363,260.598,335.065,245.25,314.814,269.124z"/>
					</g>
					<path style="fill:#222A5C;" d="M450.249,275.938l-2.069-1.504c0.144-0.2,3.482-4.917-0.14-7.581       c-3.783-2.785-9.989,2.329-10.052,2.383l-1.816-1.788c0.518-0.628,12.887-15.349,28.704-12.776       c5.157,0.844,8.565,2.889,10.13,6.08c2.41,4.911-0.589,10.557-0.719,10.796l-2.249-1.216c0.025-0.048,2.5-4.746,0.667-8.464       c-1.183-2.398-3.955-3.969-8.24-4.67c-8.173-1.334-15.524,2.637-20.363,6.344c1.825-0.259,3.739-0.01,5.455,1.251       C454.096,268.132,451.994,273.544,450.249,275.938z"/>
				</g>
			</g>
			<g>
				<path style="fill:#222A5C;" d="M511.983,204.819h-40.875l-1.381,30.823c-11.843-2.738-27.778-0.537-46.886,10.307l-7.776-41.131      h-54.099c0,0-2.814-58.422-19.465-60.34c-16.653-1.918-27.804,23.046-27.804,23.046s-7.674-27.65-21.896-28.034      c-14.222-0.383-29.978,55.711-29.978,55.711l-30.926-7.955l-48.241-12.406c0,0,26.116-81.776,78.782-120.835      c52.641-39.033,73.002,17.087,73.002,17.087s23.041-29.429,64.586-28.7C455.909,43.391,513.135,102.581,511.983,204.819z"/>
				<path style="fill:#555AFF;" d="M234.037,172.455l-2.086-1.481c1.586-2.231,39.114-54.575,64.52-51.245      c7.346,0.963,12.927,6.422,16.586,16.225l-2.396,0.894c-3.303-8.846-8.189-13.753-14.523-14.583      C272.268,119.103,234.416,171.921,234.037,172.455z"/>
				<path style="fill:#555AFF;" d="M211.824,168.204l-2.063-1.511c1.834-2.505,45.4-61.441,79.692-60.649      c9.468,0.205,17.366,4.949,23.472,14.101l-2.128,1.419c-5.615-8.415-12.815-12.777-21.397-12.963      C256.352,107.887,212.266,167.601,211.824,168.204z"/>
				<path style="fill:#555AFF;" d="M377.697,193.114c-2.106-30.653-9.851-49.749-23.02-56.755      c-13.163-7.002-27.409,1.067-27.552,1.149l-1.283-2.212c0.628-0.366,15.58-8.864,30.014-1.208      c14.015,7.44,22.222,27.24,24.393,58.851L377.697,193.114z"/>
				<path style="fill:#555AFF;" d="M397.065,193.228c-6.178-38.708-17.977-62.932-34.123-70.053      c-13.208-5.825-25.03,1.781-25.149,1.857l-1.41-2.135c0.526-0.35,13.051-8.45,27.553-2.081      c17.243,7.577,29.238,31.804,35.654,72.009L397.065,193.228z"/>
			</g>
		</g>
		<g>
			<path style="fill:#F4E4CE;" d="M333.411,404.052l6.58,66.914c6.114,0.793,12.611,1.074,19.415,0.613l19.248-70.246     C348.918,420.678,339.576,405.908,333.411,404.052z"/>
			<path style="fill:#848BF1;" d="M316.637,382.642h24.863l-1.51,88.324c-33.738-4.349-56.273-24.428-56.273-24.428l37.218-37.703     L316.637,382.642z"/>
			<path style="fill:#848BF1;" d="M426.294,442.318c-23.763,20.028-46.656,27.907-66.888,29.262l8.697-88.937l25.579,6.395     l-6.624,16.626L426.294,442.318z"/>
			<polygon style="fill:#555AFF;" points="333.453,413.681 322.005,408.411 323.075,406.088 331.77,410.09 338.251,385.974      340.721,386.639    "/>
			<polygon style="fill:#555AFF;" points="369.45,412.666 369.221,386.318 371.779,386.295 371.978,409.221 384.035,405.546      384.782,407.994    "/>
		</g>
	</g>
	<g>
		<path style="fill:#555AFF;" d="M99.916,102.978c55.181,0,99.916,24.693,99.916,55.155c0,23.389-26.386,43.362-63.613,51.382    l35.185,40.24l-59.101-36.906c-4.06,0.277-8.188,0.436-12.387,0.436C44.735,213.286,0,188.593,0,158.133    C0,127.671,44.735,102.978,99.916,102.978z"/>
		<g>
			<path style="fill:#F4E4CE;" d="M29.779,168.293c-1.482,0.339-2.917,0.631-4.42,0.875c-1.851-2.789-3.574-5.483-5.527-8.196     l-2.463,2.394l-0.229,5.111c-1.318-0.042-2.635-0.114-3.937,0.069c-0.779-5.647-1.238-11.317-1.429-17.016     c2.309,0.069,4.53,0.048,6.839,0.115l-0.138,5.342c1.684-1.728,3.053-3.508,4.628-5.342c1.471-0.092,2.998-0.199,4.466-0.322     l-0.092,1.703l-4.881,5.089C24.941,161.609,27.296,164.885,29.779,168.293z"/>
			<path style="fill:#F4E4CE;" d="M48.981,158.576c-0.168,5.18,0.337,10.592-6.655,9.785c-6.781-0.329-12.171,1.714-12.442-7.276     c-0.166-3.081,0.052-6.989,1.714-9.622c1.667-0.709,4.021-0.668,5.871-0.864c3.387-0.231,6.952-0.038,10.131,1.162     C49.449,153.142,48.619,156.509,48.981,158.576z M44.859,159.337c0.249-4.153-6.395-2.45-9.025-2.199     c-1.874,0.721-1.195,4.554-0.852,6.159c2.635,0.951,5.86,0.735,8.622,0.196C45.362,163.192,44.641,160.589,44.859,159.337z"/>
			<path style="fill:#F4E4CE;" d="M88.952,160.995c0.001,2.71-0.014,5.279-0.046,7.989c-1.888-0.084-3.756-0.155-5.618,0.184     c-2.008-4.393-4.125-8.707-5.871-13.215c-0.268,4.148-0.607,8.211-0.782,12.363l-4.975-0.138     c-0.166-5.904-0.208-11.69-0.529-17.59l9.003-0.046c1.509,3.913,2.582,7.965,4.166,11.858c-0.022-3.854-0.177-7.627-0.229-11.489     l4.651,0.553C88.839,154.659,88.956,157.797,88.952,160.995z"/>
			<path style="fill:#F4E4CE;" d="M68.356,160.995c0.001,2.71-0.014,5.279-0.046,7.989c-1.888-0.084-3.756-0.155-5.618,0.184     c-2.008-4.393-4.125-8.707-5.87-13.215c-0.268,4.148-0.607,8.211-0.782,12.363l-4.975-0.138     c-0.167-5.904-0.208-11.69-0.529-17.59l9.003-0.046c1.509,3.913,2.582,7.965,4.166,11.858c-0.022-3.854-0.177-7.627-0.229-11.489     l4.651,0.553C68.243,154.659,68.361,157.797,68.356,160.995z"/>
			<path style="fill:#F4E4CE;" d="M101.431,151.508c-0.172,1.861-0.036,3.718-0.116,5.572l-2.556-0.091     c-0.068,2.339-0.054,4.638,0,6.976l2.349,0.046c-0.052,1.657-0.155,3.378,0.137,5.019l-8.265,0.137     c-0.002-1.51-0.021-2.934-0.116-4.443l1.497-0.023c-0.151-2.881-0.362-5.671-0.576-8.541l-2.188-0.276     c-0.063-1.292-0.097-2.553-0.16-3.846C94.806,151.914,98.06,151.755,101.431,151.508z"/>
			<path style="fill:#F4E4CE;" d="M119.115,162.952l-0.023,3.592c-4.5,0.373-12.027,3.384-14.689-1.611     c-3.526-10.457,2.987-16.592,13.376-13.401c-0.137,1.844-0.099,3.673-0.023,5.525c-2.957-0.96-6.981-1.22-9.669,0.484     c-0.528,1.994-0.327,4.63,0.252,6.584C111.83,164.455,115.666,163.489,119.115,162.952z"/>
			<path style="fill:#F4E4CE;" d="M135.805,168.339l-4.582,0.115c-0.065-1.999-0.072-3.941-0.137-5.94l-4.329,0.206     c-0.102,2.002,0.133,3.999,0.3,5.986c-1.821,0.111-3.659-0.013-5.481-0.023c0.164-5.591,0.311-11.146,0.323-16.737h3.844     c0.262,2.302,0.263,4.578,0.46,6.883c1.492-0.035,2.898-0.011,4.399-0.046l0.23-7.459c1.634-0.053,3.245-0.049,4.859,0.229     C135.86,157.179,135.726,162.715,135.805,168.339z"/>
			<path style="fill:#F4E4CE;" d="M148.285,151.508c-0.171,1.861-0.036,3.718-0.115,5.572l-2.556-0.091     c-0.067,2.339-0.054,4.638,0,6.976l2.35,0.046c-0.052,1.657-0.154,3.378,0.137,5.019l-8.265,0.137     c-0.002-1.51-0.021-2.934-0.115-4.443l1.496-0.023c-0.151-2.881-0.362-5.671-0.576-8.541l-2.188-0.276     c-0.063-1.292-0.097-2.553-0.16-3.846C141.661,151.914,144.915,151.755,148.285,151.508z"/>
			<path style="fill:#F4E4CE;" d="M171.102,151.623c-0.649,5.784-1.588,10.993-2.879,16.669c-1.147,0.041-2.294,0.066-3.43-0.137     c-0.976-2.081-2.131-4.034-3.062-6.148c-0.984,2.378-2.624,4.404-3.821,6.676l-3.754-0.091     c-1.531-6.14-2.809-12.268-4.466-18.373h6.677c0.364,3.676,0.724,7.294,1.173,10.959c0.926-3.541,2.206-6.949,3.247-10.452h1.129     c1.011,3.724,2.282,7.254,3.752,10.822c0.783-3.345,1.259-6.734,1.889-10.107L171.102,151.623z"/>
			<path style="fill:#F4E4CE;" d="M188.346,168.339l-3.5,0.53c-0.489-1.563-0.992-3.103-1.45-4.674l-5.664,0.208l-0.715,3.062     h-3.546c0.427-5.213,0.909-10.335,1.336-15.541c3.548-0.665,7.13-0.736,10.73-0.576     C186.431,157.025,187.161,162.712,188.346,168.339z M182.589,161.064c-0.413-1.947,0-4.451-2.819-3.833     c-1.479,0.144-1.072,2.854-1.601,3.947L182.589,161.064z"/>
		</g>
	</g>
</g>
<g>
</g>
<g>
</g>
<g>
</g>
<g>
</g>
<g>
</g>
<g>
</g>
<g>
</g>
<g>
</g>
<g>
</g>
<g>
</g>
<g>
</g>
<g>
</g>
<g>
</g>
<g>
</g>
<g>
</g>
</svg>
