<?xml version="1.0" encoding="iso-8859-1"?>
<!-- Generator: Adobe Illustrator 27.9.0, SVG Export Plug-In . SVG Version: 6.00 Build 0)  -->
<svg xmlns="http://www.w3.org/2000/svg" xmlns:xlink="http://www.w3.org/1999/xlink" version="1.1" id="Capa_1" x="0px" y="0px" viewBox="0 0 512 512" style="enable-background:new 0 0 512 512;" xml:space="preserve">
<g>
	<g>
		<g>
			<g>
				<path style="fill:#FFBEDB;" d="M337.926,330.188c-59.307,30.72-57.139,84.076-57.139,84.076l4.042,3.298      c-2.932,35.937-32.575,48.063-37.446-2.168l3.234-3.298l-5.942-39.171l-88.385,4.701l-34.505-175.72l245.244-74.375      C486.126,234.795,397.2,299.468,337.926,330.188z"/>
				<g>
					<path style="fill:#222A5C;" d="M194.284,241.797l50.391-23.114C244.675,218.683,198.279,205.729,194.284,241.797z"/>
					<path style="fill:#222A5C;" d="M302.881,202.724l47.428-9.701C350.309,193.023,321.205,165.807,302.881,202.724z"/>
					<path style="fill:#222A5C;" d="M280.766,289.458l-3.199-0.464c0.266-1.83,2.817-17.919,10.507-19.149       c7.926-1.263,12.376,13.363,12.857,15.036l-3.107,0.895c-1.017-3.526-4.92-13.411-9.238-12.739       C284.532,273.686,281.638,283.453,280.766,289.458z"/>
					<g>
						<path style="fill:#F4E4CE;" d="M271.528,268.135c0,0-68.951-37.351-82.203-6.504        C176.074,292.48,233.985,291.657,271.528,268.135z"/>
						<path style="fill:#222A5C;" d="M229.46,267.899c0,8.037-6.329,14.552-14.135,14.552c-7.808,0-14.136-6.515-14.136-14.552        c0-8.037,6.328-14.552,14.136-14.552C223.131,253.347,229.46,259.862,229.46,267.899z"/>
						<path style="fill:#222A5C;" d="M200.316,249.569c-5.904,2.051-10.101,5.894-12.477,11.425        c-0.429,0.999-0.766,1.972-1.063,2.931l-16.645-5.067l-0.941,3.095l16.838,5.125c-0.132,0.837-0.227,1.658-0.246,2.454        l-18.365,0.237l0.041,3.234l21.75-0.281l-0.152-1.735c-0.223-2.553,0.368-5.485,1.754-8.716        c2.031-4.726,5.485-7.881,10.565-9.646c22.952-7.977,68.921,16.683,69.382,16.933l1.541-2.842        C270.363,265.666,224.611,241.139,200.316,249.569z"/>
					</g>
					<g>
						<path style="fill:#F4E4CE;" d="M294.385,262.855c0,0,35.552-69.895,63.974-52.026        C386.783,228.698,338.644,260.902,294.385,262.855z"/>
						<path style="fill:#222A5C;" d="M373.97,198.741l-11.292,13.258c-0.389-0.336-0.815-0.663-1.243-0.989l2.817-13.105        l-3.161-0.679l-2.547,11.853c-4.918-2.858-10.317-3.533-16.08-1.939c-24.793,6.848-48.523,53.02-49.521,54.982l2.883,1.465        c0.119-0.235,6.205-12.078,15.203-24.62c-0.192,0.912-0.299,1.857-0.299,2.829c0,7.347,5.785,13.303,12.924,13.303        c7.137,0,12.922-5.956,12.922-13.303c0-7.347-5.785-13.302-12.922-13.302c-1.985,0-3.857,0.474-5.537,1.296        c7.623-9.104,16.446-17.115,25.21-19.535c5.176-1.435,9.815-0.796,14.173,1.942c1.637,1.03,3.036,2.13,4.157,3.271l1.24,1.262        l13.538-15.894L373.97,198.741z"/>
					</g>
					<g>
						<path style="fill:#222A5C;" d="M234.391,296.38l46.522,7.65c0,0-22.986,46.461-32.661,45.418        C238.577,348.409,234.391,296.38,234.391,296.38z"/>
						<path style="fill:#F4E4CE;" d="M238.376,299.023l39.208,6.871l-6.057,7.68C271.528,313.575,239.589,311.958,238.376,299.023z"/>
						<path style="fill:#FF80B5;" d="M239.589,322.377c0,0,3.79,36.95,16.977,19.56        C256.566,341.937,254.949,319.256,239.589,322.377z"/>
					</g>
				</g>
			</g>
			<g>
				<path style="fill:#555AFF;" d="M225.846,198.847l2.425-16.977l11.645,17.4l99.164-32.454l-2.211-16.205l11.743,13.085      l57.737-18.895C384.265-35.218,148.755-16.884,46.344,118.931c-102.412,135.815-3.137,278.097-3.137,278.097l95.135-30.106      c13.42,32.983,37.35,31.723,37.35,31.723L139.57,232.11l74.419-24.355v-22.382L225.846,198.847z"/>
				
					<rect x="239.59" y="110.064" transform="matrix(0.9222 -0.3867 0.3867 0.9222 -39.157 104.9159)" style="fill:#222A5C;" width="3.233" height="79.449"/>
				
					<rect x="245.037" y="55.973" transform="matrix(0.8911 -0.4538 0.4538 0.8911 -25.7128 124.5419)" style="fill:#222A5C;" width="3.233" height="119.751"/>
				
					<rect x="282.032" y="80.788" transform="matrix(0.7934 -0.6087 0.6087 0.7934 -17.6573 198.5362)" style="fill:#222A5C;" width="3.232" height="88.985"/>
				
					<rect x="157.67" y="166.768" transform="matrix(0.9975 -0.0711 0.0711 0.9975 -12.8036 11.7973)" style="fill:#222A5C;" width="3.232" height="37.902"/>
				
					<rect x="168.078" y="120.635" transform="matrix(0.9984 -0.057 0.057 0.9984 -8.8557 9.9303)" style="fill:#222A5C;" width="3.232" height="79.218"/>
				
					<rect x="355.183" y="92.391" transform="matrix(0.8438 -0.5367 0.5367 0.8438 -4.0723 208.9108)" style="fill:#222A5C;" width="3.234" height="38.118"/>
				
					<rect x="356.581" y="49.841" transform="matrix(0.8244 -0.566 0.566 0.8244 11.2858 218.7596)" style="fill:#222A5C;" width="3.234" height="82.7"/>
			</g>
			<path style="fill:none;" d="M129.869,295.684c0,0-45.272-22.085-65.739-0.516c-19.435,20.436,15.974,75.829,66.613,39.548     C129.483,323.721,129.094,310.818,129.869,295.684z"/>
			<g>
				<path style="fill:#FFBEDB;" d="M130.742,334.715c-50.638,36.281-86.048-19.112-66.613-39.548      c20.468-21.568,65.739,0.516,65.739,0.516C129.094,310.818,129.483,323.721,130.742,334.715z"/>
				<path style="fill:#222A5C;" d="M103.755,335.677c-2.206-3.027-4.863-9.869,0.876-14.091c2.163-1.593,4.573-1.918,6.88-1.585      c-6.125-4.681-15.408-9.709-25.726-8.016c-5.417,0.886-8.923,2.872-10.418,5.904c-2.318,4.701,0.812,10.64,0.843,10.701      l-2.844,1.538c-0.164-0.302-3.957-7.44-0.91-13.649c1.978-4.034,6.288-6.619,12.807-7.686      c20.024-3.25,35.632,15.358,36.287,16.151l-2.294,2.261c-0.077-0.068-7.868-6.576-12.709-3.012      c-4.609,3.39-0.361,9.33-0.178,9.581L103.755,335.677z"/>
				<path style="fill:#222A5C;" d="M175.692,400.262c-0.636,0-15.743-0.178-28.666-15.644      c-12.652-15.145-25.047-48.077-12.237-118.96l3.183,0.575c-12.57,69.546-0.706,101.588,11.46,116.222      c11.923,14.34,26.121,14.574,26.263,14.574L175.692,400.262z"/>
			</g>
		</g>
		<g>
			<path style="fill:#FF9509;" d="M293.106,424.287l7.115,32.705l-10.056,36.076c-14.391,5.562-28.1,6.436-40.421,4.754     l-15.005-34.621l4.591-39.624l8.053-8.182c7.986,8.182,25.351,21.957,37.446,2.168L293.106,424.287z"/>
			<path style="fill:#F4E4CE;" d="M249.743,497.822c-33.114-4.527-56.266-27.519-56.266-27.519l45.853-46.726L249.743,497.822z"/>
			<path style="fill:#F4E4CE;" d="M335.76,458.985c-15.458,17.785-30.883,28.393-45.595,34.083l2.942-68.781L335.76,458.985z"/>
		</g>
	</g>
	<g>
		<path style="fill:#FFB93F;" d="M423.162,456.258c-50.798,3.199-93.411-16.942-95.174-44.983    c-1.354-21.531,21.777-41.446,55.581-50.987l-40.772-25.563l62.594,21.109c3.723-0.491,7.513-0.878,11.378-1.12    c50.798-3.198,93.409,16.94,95.174,44.982C513.709,427.737,473.959,453.061,423.162,456.258z"/>
		<g>
			<path style="fill:#222A5C;" d="M380.629,408.691c0,4.267-0.026,8.304-0.072,12.57c-2.97-0.131-5.911-0.245-8.839,0.289     c-3.161-6.913-6.492-13.698-9.237-20.792c-0.421,6.526-0.954,12.919-1.231,19.451l-7.824-0.216     c-0.263-9.289-0.328-18.391-0.834-27.674l14.163-0.073c2.378,6.15,4.059,12.533,6.557,18.654     c-0.039-6.063-0.278-11.999-0.363-18.074l7.317,0.87C380.453,398.721,380.635,403.662,380.629,408.691z"/>
			<path style="fill:#222A5C;" d="M400.261,393.768c-0.268,2.926-0.059,5.847-0.181,8.765l-4.02-0.146     c-0.109,3.679-0.087,7.297,0,10.975l3.695,0.072c-0.082,2.606-0.243,5.315,0.216,7.896l-13.004,0.218     c-0.002-2.377-0.032-4.616-0.18-6.991l2.354-0.035c-0.238-4.534-0.57-8.922-0.906-13.439l-3.441-0.436     c-0.1-2.03-0.153-4.019-0.254-6.049C389.84,394.403,394.957,394.154,400.261,393.768z"/>
			<path style="fill:#222A5C;" d="M427.645,420.245l-7.208,0.182c-0.103-3.147-0.116-6.199-0.218-9.346l-6.81,0.327     c-0.161,3.15,0.209,6.292,0.47,9.417c-2.864,0.174-5.755-0.021-8.621-0.036c0.257-8.797,0.489-17.538,0.508-26.334h6.049     c0.409,3.623,0.41,7.204,0.725,10.832c2.345-0.054,4.561-0.019,6.917-0.072l0.363-11.736c2.569-0.083,5.108-0.077,7.642,0.362     C427.732,402.686,427.519,411.397,427.645,420.245z"/>
			<path style="fill:#222A5C;" d="M456.44,420.245l-5.506,0.834c-0.767-2.46-1.56-4.882-2.281-7.353l-8.912,0.325l-1.123,4.817     h-5.579c0.669-8.199,1.431-16.261,2.102-24.45c5.58-1.043,11.219-1.158,16.879-0.905     C453.429,402.448,454.578,411.391,456.44,420.245z M447.385,408.8c-0.654-2.512,0.074-6.87-3.785-6.049     c-3.057-0.44-2.283,4.299-3.171,6.23L447.385,408.8z"/>
			<path style="fill:#222A5C;" d="M489.983,404.887c-0.369,11.78,0.24,16.433-13.512,15.358     c-10.931-0.353-15.438,1.691-16.534-11.409c-0.258-4.85,0.08-10.993,2.697-15.14c2.623-1.115,6.328-1.049,9.237-1.36     c5.515-0.125,12.421-0.535,17.025,2.698C489.865,398.005,489.822,401.792,489.983,404.887z M483.5,406.082     c0.647-6.463-10.235-3.873-14.199-3.459c-2.844,0.77-1.924,7.447-1.341,9.689c4.146,1.496,9.218,1.156,13.565,0.308     C484.291,412.146,483.152,408.054,483.5,406.082z"/>
		</g>
	</g>
</g>
<g>
</g>
<g>
</g>
<g>
</g>
<g>
</g>
<g>
</g>
<g>
</g>
<g>
</g>
<g>
</g>
<g>
</g>
<g>
</g>
<g>
</g>
<g>
</g>
<g>
</g>
<g>
</g>
<g>
</g>
</svg>
