<?xml version="1.0" encoding="iso-8859-1"?>
<!-- Generator: Adobe Illustrator 27.9.0, SVG Export Plug-In . SVG Version: 6.00 Build 0)  -->
<svg xmlns="http://www.w3.org/2000/svg" xmlns:xlink="http://www.w3.org/1999/xlink" version="1.1" id="Capa_1" x="0px" y="0px" viewBox="0 0 512 512" style="enable-background:new 0 0 512 512;" xml:space="preserve">
<g>
	<g>
		<g>
			<path style="fill:#FF80B5;" d="M190.404,173.584l-12.839,61.201c0,0-49.138,4.205-60.705,42.334     c-11.805,38.914,6.138,156.374,175.791,163.799c169.653,7.426,205.075-113.101,182.795-176.507     C453.166,201.004,305.791,80.474,190.404,173.584z"/>
			<path style="fill:#FFBEDB;" d="M430.892,232.992c0,0,27.416-30.276,81.109-11.996c0,0-2.282,81.114-24.556,82.256     C465.164,304.395,430.892,232.992,430.892,232.992z"/>
			<path style="fill:#FFBEDB;" d="M176.126,123.316c0,0,37.697,10.282,58.834,54.838c0,0-69.116,42.843-81.113,24.563     C141.852,184.438,176.126,123.316,176.126,123.316z"/>
			<path style="fill:#222A5C;" d="M283,139.524l5.699,25.032l23.942-9.47l-7.391,19.382l26.089-9.183l5.907,27.135l29.534-15.672     v17.256l38.12-11.457C404.9,182.548,366.911,123.732,283,139.524z"/>
		</g>
		<g>
			<path style="fill:#222A5C;" d="M271.026,236.503c-1.687,0-3.43-0.389-5.217-1.168c-3.697-1.613-6.012-4.191-6.882-7.664     c-2.496-9.968,8.332-23.816,8.794-24.4l2.689,2.124c-0.103,0.13-10.249,13.112-8.158,21.446c0.607,2.42,2.219,4.171,4.927,5.351     c2.707,1.181,5.132,1.172,7.406-0.028c7.823-4.139,10.972-20.404,11.004-20.568l3.367,0.636     c-0.138,0.735-3.503,18.059-12.769,22.961C274.537,236.066,272.812,236.503,271.026,236.503z"/>
			<path style="fill:#222A5C;" d="M316.243,248.857c-0.407,0-0.824-0.016-1.248-0.051c-3.907-0.319-6.845-1.957-8.73-4.867     c-5.498-8.481,0.208-24.934,0.454-25.631l2.581,0.91c-0.056,0.159-5.507,15.883-0.739,23.235c1.42,2.19,3.596,3.375,6.655,3.625     c3.066,0.247,5.439-0.578,7.276-2.529c6.167-6.557,3.868-23.143,3.844-23.31l2.709-0.39c0.106,0.733,2.509,18.054-4.559,25.572     C322.341,247.704,319.571,248.857,316.243,248.857z"/>
			<path style="fill:#222A5C;" d="M250.097,194.005h50.982C301.079,194.005,291.226,160.16,250.097,194.005z"/>
			<path style="fill:#222A5C;" d="M305.25,198.718l37.814,21.704C343.064,220.422,335.553,176.44,305.25,198.718z"/>
			<g>
				<path style="fill:#FFBEDB;" d="M336.438,317.07c-5.452,23.585-38.759,21.136-76.915,12.316      c-38.149-8.821-68.503-18.841-63.051-42.426c5.451-23.586,46.562-54.119,84.719-45.299      C319.344,250.484,341.89,293.485,336.438,317.07z"/>
				<path style="fill:#555AFF;" d="M245.756,286.344c-8.931,10.621-18.947,16.9-22.368,14.023      c-3.422-2.878,1.046-13.821,9.977-24.441c8.933-10.623,18.948-16.901,22.369-14.023      C259.157,264.779,254.689,275.723,245.756,286.344z"/>
				<path style="fill:#555AFF;" d="M296.786,296.511c0.613,13.864-2.51,25.263-6.975,25.462c-4.468,0.196-8.585-10.883-9.198-24.746      c-0.615-13.865,2.509-25.266,6.977-25.462C292.056,271.566,296.173,282.646,296.786,296.511z"/>
			</g>
			<path style="fill:#FFB93F;" d="M387.755,282.403c-1.296,4.386-11.736,5.169-23.318,1.75c-11.583-3.419-19.926-9.746-18.63-14.133     c1.294-4.386,11.734-5.169,23.317-1.75C380.706,271.689,389.048,278.017,387.755,282.403z"/>
			<path style="fill:#FFB93F;" d="M235.211,236.683c-1.296,4.386-11.736,5.169-23.318,1.75c-11.584-3.419-19.926-9.746-18.63-14.133     c1.294-4.386,11.734-5.169,23.317-1.75C228.162,225.97,236.504,232.297,235.211,236.683z"/>
			<g>
				<path style="fill:#222A5C;" d="M296.136,378.701c4.156,19.679,3.086,36.568-2.39,37.724      c-5.475,1.156-13.284-13.857-17.444-33.534c-4.157-19.679-3.085-36.568,2.39-37.725      C284.168,344.01,291.975,359.023,296.136,378.701z"/>
				<path style="fill:#F4E4CE;" d="M277.299,358.023l11.4,7.069C288.699,365.092,279.123,331.573,277.299,358.023z"/>
			</g>
		</g>
	</g>
	<g>
		<path style="fill:#848BF1;" d="M79.605,70.862c43.035,1.663,77.181,22.272,76.26,46.028c-0.705,18.24-21.886,33.022-51.16,38.155    l41.484,75.448l-60.237-73.569c-3.176,0.095-6.398,0.095-9.673-0.033c-43.036-1.665-77.18-22.271-76.261-46.028    C0.936,87.107,36.57,69.197,79.605,70.862z"/>
		<g>
			<path style="fill:#FFB93F;" d="M25.108,113.52c-0.136,4.191,0.273,8.572-5.386,7.919c-5.365-0.193-9.96,1.241-10.072-5.889     c0.086-5.346-0.405-8.835,6.14-8.487C21.803,107.215,25.631,106.013,25.108,113.52z M21.772,114.135     c0.201-3.363-5.176-1.981-7.305-1.78c-1.549,0.694-0.953,3.6-0.69,4.985c2.28,0.736,5.397,0.778,7.641-0.129     C21.812,116.413,21.734,115.005,21.772,114.135z"/>
			<path style="fill:#FFB93F;" d="M34.817,107.8c-0.137,1.505-0.029,3.009-0.092,4.509l-2.07-0.075     c-0.054,1.893-0.043,3.755,0,5.647l1.901,0.038c-0.042,1.341-0.125,2.734,0.112,4.063l-6.691,0.111     c-0.002-1.222-0.017-2.375-0.094-3.597l1.212-0.019c-0.121-2.332-0.293-4.591-0.466-6.914l-1.77-0.223     c-0.051-1.046-0.08-2.067-0.13-3.113C29.455,108.127,32.089,107.998,34.817,107.8z"/>
			<path style="fill:#FFB93F;" d="M51.813,115.476c0,2.196-0.012,4.273-0.036,6.468c-1.528-0.068-3.041-0.125-4.548,0.148     c-1.628-3.555-3.339-7.048-4.752-10.696c-0.218,3.356-0.49,6.647-0.633,10.007l-4.026-0.111     c-0.137-4.779-0.169-9.463-0.429-14.238l7.287-0.038c1.223,3.165,2.089,6.447,3.374,9.597c-0.019-3.12-0.143-6.173-0.187-9.299     l3.765,0.448C51.723,110.348,51.817,112.889,51.813,115.476z"/>
			<path style="fill:#FFB93F;" d="M68.959,121.384c-1.198,0.274-2.363,0.51-3.578,0.708c-1.496-2.258-2.893-4.438-4.473-6.633     l-1.993,1.937l-0.187,4.138c-1.068-0.034-2.131-0.093-3.186,0.056c-0.629-4.57-1.003-9.161-1.156-13.772     c1.869,0.053,3.666,0.038,5.535,0.092l-0.112,4.323c1.362-1.397,2.471-2.84,3.746-4.323c1.189-0.074,2.428-0.161,3.615-0.261     l-0.075,1.379l-3.951,4.119C65.042,115.974,66.95,118.626,68.959,121.384z"/>
			<path style="fill:#FFB93F;" d="M72.816,121.44c0,0.436-0.083,0.851-0.251,1.249c-0.169,0.397-0.357,0.783-0.568,1.156h-2.051     c0.26-0.299,0.516-0.609,0.764-0.933c0.249-0.323,0.373-0.701,0.373-1.137v-0.204l-1.77-0.037     c-0.075-0.174-0.152-0.408-0.233-0.699c-0.081-0.293-0.121-0.532-0.121-0.717c0-0.248,0.062-0.504,0.186-0.764     c0.124-0.261,0.274-0.49,0.447-0.689l2.795,0.242C72.673,119.739,72.816,120.583,72.816,121.44z"/>
			<path style="fill:#FFB93F;" d="M97.752,113.52c-0.136,4.191,0.273,8.572-5.386,7.919c-5.365-0.193-9.96,1.241-10.072-5.889     c0.086-5.346-0.404-8.835,6.14-8.487C94.448,107.215,98.276,106.013,97.752,113.52z M94.416,114.135     c0.201-3.363-5.176-1.981-7.305-1.78c-1.548,0.694-0.953,3.6-0.69,4.985c2.28,0.736,5.397,0.778,7.641-0.129     C94.457,116.413,94.378,115.005,94.416,114.135z"/>
			<path style="fill:#FFB93F;" d="M107.461,107.8c-0.137,1.505-0.029,3.009-0.092,4.509l-2.07-0.075     c-0.054,1.893-0.043,3.755,0,5.647l1.901,0.038c-0.043,1.341-0.125,2.734,0.112,4.063l-6.691,0.111     c-0.002-1.222-0.017-2.375-0.094-3.597l1.212-0.019c-0.121-2.332-0.293-4.591-0.466-6.914l-1.77-0.223     c-0.051-1.046-0.079-2.067-0.13-3.113C102.099,108.127,104.733,107.998,107.461,107.8z"/>
			<path style="fill:#FFB93F;" d="M124.457,115.476c0,2.196-0.012,4.273-0.036,6.468c-1.528-0.068-3.041-0.125-4.548,0.148     c-1.627-3.555-3.339-7.048-4.752-10.696c-0.218,3.356-0.49,6.647-0.633,10.007l-4.025-0.111     c-0.137-4.779-0.169-9.463-0.429-14.238l7.287-0.038c1.223,3.165,2.089,6.447,3.373,9.597c-0.019-3.12-0.143-6.173-0.187-9.299     l3.765,0.448C124.368,110.348,124.462,112.889,124.457,115.476z"/>
			<path style="fill:#FFB93F;" d="M141.602,121.384c-1.198,0.274-2.362,0.51-3.578,0.708c-1.496-2.258-2.893-4.438-4.473-6.633     l-1.993,1.937l-0.187,4.138c-1.068-0.034-2.132-0.093-3.187,0.056c-0.629-4.57-1.002-9.161-1.155-13.772     c1.869,0.053,3.665,0.038,5.535,0.092l-0.112,4.323c1.363-1.397,2.471-2.84,3.746-4.323c1.189-0.074,2.427-0.161,3.615-0.261     l-0.075,1.379l-3.951,4.119C137.685,115.974,139.594,118.626,141.602,121.384z"/>
			<path style="fill:#FFB93F;" d="M146.317,107.146c-0.012,0.323-0.028,0.678-0.047,1.062c-0.019,0.386-0.04,0.778-0.065,1.174     c-0.024,0.398-0.059,0.785-0.102,1.165c-0.044,0.379-0.097,0.729-0.159,1.053c-0.187,0.933-0.375,1.852-0.568,2.759     c-0.194,0.906-0.382,1.826-0.569,2.758l-2.049,0.186l-0.466-4.696c-0.087-0.844-0.15-1.693-0.186-2.544     c-0.038-0.851-0.081-1.705-0.131-2.562L146.317,107.146z M145.982,119.987c0,0.211-0.065,0.419-0.197,0.624     c-0.129,0.206-0.295,0.389-0.493,0.55c-0.199,0.162-0.417,0.288-0.652,0.382c-0.237,0.093-0.454,0.139-0.653,0.139     c-0.186,0-0.382-0.033-0.587-0.102c-0.204-0.068-0.391-0.162-0.558-0.28c-0.168-0.118-0.305-0.263-0.41-0.437     c-0.105-0.174-0.159-0.373-0.159-0.597c0-0.235,0.071-0.45,0.214-0.643c0.143-0.193,0.318-0.354,0.522-0.485     c0.204-0.13,0.429-0.23,0.671-0.298c0.243-0.068,0.469-0.102,0.68-0.102c0.349,0,0.663,0.08,0.942,0.242     c0.279,0.162,0.488,0.404,0.624,0.727c0.025,0.05,0.04,0.096,0.047,0.139C145.978,119.891,145.982,119.937,145.982,119.987z"/>
		</g>
	</g>
</g>
<g>
</g>
<g>
</g>
<g>
</g>
<g>
</g>
<g>
</g>
<g>
</g>
<g>
</g>
<g>
</g>
<g>
</g>
<g>
</g>
<g>
</g>
<g>
</g>
<g>
</g>
<g>
</g>
<g>
</g>
</svg>
