<?xml version="1.0" encoding="iso-8859-1"?>
<!-- Generator: Adobe Illustrator 27.9.0, SVG Export Plug-In . SVG Version: 6.00 Build 0)  -->
<svg xmlns="http://www.w3.org/2000/svg" xmlns:xlink="http://www.w3.org/1999/xlink" version="1.1" id="Capa_1" x="0px" y="0px" viewBox="0 0 512 512" style="enable-background:new 0 0 512 512;" xml:space="preserve">
<g>
	<g>
		<path style="fill:#FFB93F;" d="M407.043,54.826C407.043,24.547,341.992,0,261.746,0c-80.244,0-145.295,24.547-145.295,54.826    c0,29.62,62.26,53.74,140.086,54.775l14.601,56.128l9.572-56.558C351.988,105.662,407.043,82.678,407.043,54.826z"/>
		<g>
			<path style="fill:#222A5C;" d="M190.378,81.419c-7.045,0-12.748-2.296-16.96-6.834c-9.313-10.034-7.658-27.386-7.583-28.119     l0.262-2.559h25.118v5.696h-19.828c-0.064,4.752,0.524,14.998,6.219,21.12c3.275,3.519,7.715,5.151,13.531,4.99     c4.283-0.118,7.515-1.662,9.879-4.719c6.673-8.629,4.798-27.521,3.089-36.51l-43.17,1.27c0.517,14.73,1.221,34.554,1.278,35.47     l-5.919-5.688l-1.253-35.309l53.614-1.576l0.526,2.274c0.281,1.221,6.779,30.055-3.659,43.554     c-3.427,4.43-8.213,6.761-14.229,6.927C190.985,81.415,190.68,81.419,190.378,81.419z"/>
			<path style="fill:#222A5C;" d="M230.612,56.355c0,8.84-2.391,16.006-5.34,16.006c-2.949,0-5.34-7.166-5.34-16.006     c0-8.842,2.391-16.008,5.34-16.008C228.222,40.347,230.612,47.513,230.612,56.355z"/>
			<path style="fill:#222A5C;" d="M242.005,55.3c0,5.506-1.541,9.968-3.442,9.968c-1.9,0-3.441-4.463-3.441-9.968     s1.541-9.968,3.441-9.968C240.464,45.331,242.005,49.794,242.005,55.3z"/>
			<path style="fill:#222A5C;" d="M260.279,50.909c0,14.222-3.294,25.751-7.357,25.751c-4.064,0-7.358-11.529-7.358-25.751     c0-14.222,3.294-25.751,7.358-25.751C256.985,25.159,260.279,36.687,260.279,50.909z"/>
			<path style="fill:#222A5C;" d="M271.11,31.33l0.176,5.693l35.513-1.096v35.274h-30.855V52.044l9.355,0.946     c0.48,5.329,3.267,9.431,6.665,9.431c3.735,0,6.764-4.941,6.764-11.036c0-6.097-3.029-11.038-6.764-11.038     c-2.849,0-5.277,2.886-6.273,6.956l-15.443-1.562v31.157h42.247V30.053L271.11,31.33z"/>
			<polygon style="fill:#222A5C;" points="347.245,77.253 318.79,40.671 323.287,37.175 346.852,67.471 368.499,34.512      373.261,37.638    "/>
			<polygon style="fill:#222A5C;" points="347.357,58.96 330.979,39.827 335.307,36.123 346.74,49.479 357.576,32.859      362.348,35.971    "/>
		</g>
	</g>
	<g>
		<g>
			<path style="fill:#848BF1;" d="M480.578,236.96c-8.574,43.376-36.427,74.363-62.231,69.265     c-13.158-2.592-23.212-14.099-28.794-30.503c-64.908,26.801-89.146,149.638-89.146,149.638h-45.227     c-6.892-54.855-65.734-103.386-96.351-125.23c-4.87,14.667-13.87,25.975-26.543,31.358     c-31.187,13.243-72.712-14.269-92.734-61.404c-20.05-47.164-11.022-96.123,20.165-109.366     c31.185-13.245,72.683,14.24,92.733,61.375c0.455,1.082,0.911,2.165,1.338,3.247c17.572-12.019,43.604-26.516,75.161-34.291     l-18.768-32.725c-12.332-0.626-22.045-7.917-22.045-16.803c0-9.313,10.653-16.889,23.782-16.889     c13.158,0,23.81,7.576,23.81,16.889c0,5.183-3.303,9.826-8.487,12.903l8.43,35.116c21.417-4.499,45.199-5.753,70.433-1.053     l3.049-29.165c-6.978-2.933-11.677-8.316-11.677-14.496c0-9.313,10.68-16.86,23.809-16.86c13.159,0,23.81,7.547,23.81,16.86     c0,7.775-7.433,14.325-17.543,16.262l-13.501,29.049c23.155,5.383,47.449,15.892,72.228,33.522     c0.256-1.708,0.569-3.446,0.911-5.183c8.572-43.347,36.455-74.363,62.231-69.237C475.224,154.337,489.18,193.612,480.578,236.96z     "/>
			<path style="fill:#555AFF;" d="M291.284,318.395c-3.842-4.354-8.692-6.412-14.336-6.173c-5.638,0.256-10.339,2.771-13.975,7.476     c-19.902,25.752-2.221,110.277-1.459,113.862l2.787-0.592c-0.092-0.431-4.595-21.946-6.741-46.495l41.878-5.315     c-1.029,25.27-4.885,48.217-4.962,48.662l2.806,0.481C297.901,426.708,312.151,342.037,291.284,318.395z M259.025,335.971     l35.637-5.738c1.508,4.137,2.616,8.909,3.399,14.097l-40.839,2.695C257.63,343.107,258.22,339.394,259.025,335.971z      M256.948,349.899l41.518-2.74c0.701,5.581,1.068,11.551,1.186,17.643l-43.193-3.048     C256.486,357.695,256.639,353.718,256.948,349.899z M265.227,321.439c3.143-4.068,7.02-6.152,11.849-6.372     c4.839-0.23,8.783,1.485,12.074,5.212c1.731,1.961,3.188,4.425,4.432,7.243l-33.781,5.439     C261.128,328.391,262.898,324.454,265.227,321.439z M257.331,383.629c-0.496-6.291-0.819-12.722-0.866-19.02l43.215,3.048     c0.025,3.534-0.02,7.087-0.131,10.614L257.331,383.629z"/>
			<g>
				<path style="fill:#F4E4CE;" d="M171.419,162.911c-7.9-4.784-12.373-10.669-13.295-17.492      c-1.557-11.518,7.59-21.341,7.981-21.754l2.07,1.957c-0.086,0.092-8.611,9.273-7.227,19.432      c0.805,5.921,4.824,11.11,11.945,15.421L171.419,162.911z"/>
				<path style="fill:#F4E4CE;" d="M347.523,159.717l-0.948-2.684c7.14-2.524,11.395-6.328,12.651-11.305      c2.722-10.789-9.112-23.989-9.231-24.121l2.108-1.915c0.531,0.584,12.976,14.455,9.886,26.726      C360.488,152.382,355.62,156.855,347.523,159.717z"/>
				<path style="fill:#F4E4CE;" d="M361.76,162.93l-1.407-2.475c6.305-3.584,9.9-8.099,10.686-13.421      c1.573-10.657-8.429-21.301-8.53-21.408l2.064-1.964c0.452,0.474,11.057,11.772,9.284,23.787      C372.936,153.683,368.867,158.892,361.76,162.93z"/>
				<path style="fill:#F4E4CE;" d="M187.56,162.997c-9.513-4.171-15.055-9.913-16.471-17.068      c-2.577-13.021,9.501-25.731,10.017-26.267l2.051,1.976c-0.117,0.121-11.568,12.191-9.273,23.748      c1.227,6.181,6.214,11.229,14.819,15.001L187.56,162.997z"/>
			</g>
			<g>
				<path style="fill:#555AFF;" d="M128.057,243.647c0,29.807-16.948,53.973-37.855,53.973c-20.909,0-37.857-24.165-37.857-53.973      c0-29.808,16.948-53.973,37.857-53.973C111.109,189.674,128.057,213.839,128.057,243.647z"/>
				<path style="fill:#555AFF;" d="M98.48,315.146c-24.435,0-47.601-24.862-55.08-59.117c-3.986-18.25-2.865-36.491,3.155-51.36      c6.097-15.057,16.484-24.883,29.247-27.67c2.393-0.523,4.855-0.789,7.316-0.789c24.435,0,47.6,24.862,55.077,59.118      c3.987,18.249,2.866,36.488-3.155,51.359c-6.096,15.057-16.481,24.883-29.243,27.67      C103.404,314.881,100.942,315.146,98.48,315.146z M83.119,179.059c-2.257,0-4.514,0.243-6.71,0.722      c-11.816,2.581-21.48,11.798-27.213,25.957c-5.809,14.343-6.878,31.989-3.015,49.686c7.081,32.423,29.564,56.875,52.299,56.875      c2.258,0,4.516-0.243,6.712-0.722c11.813-2.581,21.477-11.798,27.21-25.957c5.807-14.345,6.878-31.988,3.013-49.683      C128.335,203.511,105.853,179.059,83.119,179.059z"/>
				<path style="fill:#222A5C;" d="M98.632,268.897c-1.368,0-2.734-0.298-4.089-0.894c-10.102-4.45-16.154-24.524-16.407-25.377      l2.731-0.81c0.058,0.196,5.927,19.663,14.826,23.58c2.087,0.919,4.132,0.865,6.254-0.167c2.261-1.1,3.769-2.848,4.609-5.343      c3.289-9.772-5.17-26.671-5.255-26.841l2.539-1.288c0.372,0.736,9.084,18.13,5.416,29.034c-1.081,3.212-3.121,5.567-6.063,6.999      C101.677,268.529,100.153,268.897,98.632,268.897z"/>
			</g>
			<g>
				<path style="fill:#555AFF;" d="M465.697,225.378c0,25.043-14.24,45.347-31.806,45.347c-17.567,0-31.807-20.304-31.807-45.347      c0-25.043,14.24-45.347,31.807-45.347C451.456,180.031,465.697,200.335,465.697,225.378z"/>
				<path style="fill:#555AFF;" d="M425.796,288.537c-2.066,0-4.131-0.224-6.138-0.663c-11.141-2.439-20.133-11.302-25.32-24.953      c-5.109-13.45-5.923-29.995-2.288-46.587c6.756-30.85,27.755-54.115,48.841-54.115c2.067,0,4.133,0.222,6.141,0.663      c11.139,2.439,20.131,11.301,25.318,24.953c5.109,13.45,5.923,29.995,2.288,46.587      C467.883,265.273,446.884,288.537,425.796,288.537z M440.892,164.969c-19.827,0-39.67,22.334-46.157,51.952      c-3.521,16.077-2.749,32.067,2.174,45.024c4.846,12.755,13.133,21.01,23.337,23.245c1.815,0.396,3.682,0.598,5.551,0.598      c19.827,0,39.671-22.334,46.159-51.952c3.521-16.077,2.749-32.067-2.174-45.024c-4.846-12.755-13.133-21.01-23.337-23.245      C444.63,165.169,442.762,164.969,440.892,164.969z"/>
				<path style="fill:#222A5C;" d="M435.501,250.405c-3.166,0-5.795-1.192-7.814-3.546c-7.188-8.376-3.974-29.095-3.834-29.974      l2.812,0.449c-0.032,0.203-3.149,20.295,3.185,27.673c1.486,1.73,3.313,2.573,5.713,2.55c2.514-0.015,4.63-0.94,6.465-2.829      c7.187-7.391,6.857-26.287,6.853-26.477l2.848-0.064c0.018,0.824,0.36,20.274-7.657,28.524      c-2.361,2.431-5.219,3.674-8.493,3.694C435.554,250.405,435.528,250.405,435.501,250.405z"/>
			</g>
			<g>
				<path style="fill:#222A5C;" d="M289.111,266.487c-4.756,20.694-15.383,35.914-23.737,33.993      c-8.354-1.919-11.27-20.252-6.512-40.947c4.756-20.693,15.383-35.912,23.737-33.992      C290.952,227.461,293.868,245.794,289.111,266.487z"/>
				<path style="fill:#F4E4CE;" d="M269.18,238.526c0,0-0.356,7.54,2.492,7.152c2.848-0.388,3.916-10.712,3.916-10.712      s-0.89,10.95,2.67,10.726c3.56-0.224,4.984-10.726,4.984-10.726s1.424,12.46,3.916,11.57c2.492-0.89,2.492-8.366,2.492-8.366      S283.064,214.852,269.18,238.526z"/>
				<path style="fill:#F4E4CE;" d="M259.211,290.148c0,0,0.356-8.366,3.56-7.832s1.246,11.748,1.246,11.748s4.272-8.9,6.23-8.01      c1.958,0.89,1.424,8.01,1.424,8.01s2.158-14.062,5.262-13.528c3.104,0.534,1.14,8.9,1.14,8.9S266.866,309.372,259.211,290.148z"/>
			</g>
		</g>
		<g>
			<path style="fill:#FFBEDB;" d="M230.622,401.787l94.265,3.371l-14.993,33.732c0,0,38.98-47.6,70.465-34.48     c31.483,13.12-36.438,114.693-117.169,107.195c-80.731-7.496-132.046-72.576-103.819-94.885     c34.906-27.585,84.996,23.26,84.996,23.26L230.622,401.787z"/>
			<path style="fill:#FF9509;" d="M273.952,503.043c-0.17,0-0.337,0-0.506-0.001c-84.355-0.352-112.849-80.255-113.128-81.063     l2.693-0.928c0.273,0.789,28.147,78.799,110.446,79.143c0.16,0.001,0.331,0.001,0.491,0.001     c84.285,0,105.07-90.878,105.27-91.799l2.784,0.606C381.797,409.944,360.538,503.043,273.952,503.043z"/>
			<polygon style="fill:#FF9509;" points="226.459,399.799 327.565,401.787 324.717,416.531 228.595,411.191    "/>
			<path style="fill:#FF9509;" d="M277.243,492.475c-60.897,0-100.776-76.286-101.18-77.073l2.534-1.302     c0.405,0.788,41.196,78.85,102.607,75.416c61.339-3.466,87.827-81.017,88.087-81.8l2.703,0.898     c-0.267,0.801-27.382,80.172-90.63,83.744C279.984,492.436,278.603,492.475,277.243,492.475z"/>
			<path style="fill:#FF9509;" d="M283,480.973c-54.371,0-78.285-61.178-78.521-61.8l2.662-1.014     c0.231,0.606,23.651,60.457,76.62,59.961c52.837-0.574,69.313-69.052,69.473-69.743l2.776,0.643     c-0.165,0.714-17.169,71.349-72.218,71.949C283.53,480.972,283.26,480.973,283,480.973z"/>
			<path style="fill:#FF9509;" d="M291.793,430.059c0,3.343-5.183,6.052-11.577,6.052s-11.579-2.709-11.579-6.052     c0-3.343,5.184-6.052,11.579-6.052S291.793,426.716,291.793,430.059z"/>
			<path style="fill:#FF9509;" d="M289.604,450.797c0,2.409-3.496,4.361-7.81,4.361c-4.313,0-7.809-1.952-7.809-4.361     c0-2.409,3.496-4.361,7.809-4.361C286.108,446.436,289.604,448.388,289.604,450.797z"/>
		</g>
	</g>
</g>
<g>
</g>
<g>
</g>
<g>
</g>
<g>
</g>
<g>
</g>
<g>
</g>
<g>
</g>
<g>
</g>
<g>
</g>
<g>
</g>
<g>
</g>
<g>
</g>
<g>
</g>
<g>
</g>
<g>
</g>
</svg>
