<?xml version="1.0" encoding="iso-8859-1"?>
<!-- Generator: Adobe Illustrator 27.9.0, SVG Export Plug-In . SVG Version: 6.00 Build 0)  -->
<svg xmlns="http://www.w3.org/2000/svg" xmlns:xlink="http://www.w3.org/1999/xlink" version="1.1" id="Capa_1" x="0px" y="0px" viewBox="0 0 512 512" style="enable-background:new 0 0 512 512;" xml:space="preserve">
<g>
	<g>
		<polygon style="fill:#FFBEDB;" points="44.195,152.616 0,102.012 24.107,65.282 133.591,48.709 158.135,90.143 139.617,145.735     98.436,141.118 161.716,232.177 80.859,145.735   "/>
		<g>
			<polygon style="fill:#222A5C;" points="37.039,130.495 27.999,82.414 37.039,82.414 40.627,130.495    "/>
			<path style="fill:#222A5C;" d="M34.314,88.636l17.918,13.376c0,0-14.565,18.264-14.565,17.51c0-0.753-1.255-7.282-1.255-7.282     l10.797-8.15L34.314,93.156"/>
			<polygon style="fill:#222A5C;" points="68.052,82.414 59.765,100.689 86.634,123.791 88.642,115.504 64.787,100.438      71.065,86.878 78.095,92.151 58.509,121.415 64.034,126.303 83.119,89.641    "/>
			<path style="fill:#222A5C;" d="M127.339,73.078L110.44,85.696l-18.533-7.149l7.785,45.244h3.537l-2.282-25.288l10.842-10.039     l12.229,6.269l4.629,24.965l3.405-0.953L127.339,73.078z M97.934,94.034l-1.382-10.295l12.18,3.767L97.934,94.034z      M114.759,87.129l9.667-6.905l0.753,9.793L114.759,87.129z"/>
		</g>
	</g>
	<g>
		<g>
			<path style="fill:#848BF1;" d="M482.638,253.877c-11.812-9.612-27.932-7.744-40.922-3.555l-45.533-48.576l-37.907-1.929     l-145.846,12.988l-50.715,82.747v18.833l48.967,71.19l167.247,7.157l33.894-57.63l52.433-23.94     C488.244,295.854,499.181,267.347,482.638,253.877z"/>
			<g>
				<g>
					<path style="fill:#222A5C;" d="M364.142,256.125l-2.138-2.816l-0.55,3.493c-3.73,23.711-12.942,39.917-27.379,48.167       c-19.376,11.068-42.666,4.368-48.308,2.473l2.573-9.237c14.29-1.423,31.465-4.91,51.745-11.247l1.196-0.372l-0.149-1.243       c-0.054-0.455-1.411-11.162-8.7-13.722c-4.875-1.705-11,0.724-18.22,7.246l-5.481-34.708l-2.975,0.471l6.381,40.419       l2.088-2.052c7.145-7.021,13.1-9.974,17.202-8.535c4.298,1.504,5.965,7.42,6.499,10.013       c-56.184,17.34-87.546,12.714-98.185,2.534c-2.946-2.819-4.129-6.031-3.33-9.046c0.43-1.624,1.38-2.751,2.907-3.446       c7.168-3.25,24.462,3.79,30.522,6.781l1.776,0.877l10.247-53.693l-2.96-0.565l-9.511,49.838       c-5.625-2.567-22.894-9.812-31.319-5.981c-2.369,1.077-3.908,2.9-4.575,5.417c-1.092,4.123,0.385,8.383,4.16,11.995       c5.949,5.691,17.814,9.805,36.16,9.804c3.515,0,7.323-0.188,11.319-0.509l-3.015,10.81l1.261,0.5       c0.699,0.278,10.988,4.227,24.148,4.451c5.268,6.427,9.218,15.732,3.711,26.882c-13.21-4.273-23.052-10.545-23.274-10.689       l-1.305-0.846l-13.587,22.438c-4.82-5.579-21.204-22.922-35.744-19.228c-9.629,2.444-16.244,13.548-19.663,33.004l2.969,0.521       c3.195-18.18,9.059-28.477,17.431-30.603c15.018-3.839,33.834,19.588,34.022,19.827l1.348,1.695l14.212-23.47       c8.381,4.973,54.342,30.054,80.01-1.117C395.745,298.551,364.461,256.545,364.142,256.125z"/>
					<polygon style="fill:#F4E4CE;" points="314.832,314.574 329.71,311.549 333.289,320.224 316.903,324.555      "/>
					<path style="fill:#F4E4CE;" d="M338.374,306.475l6.403,9.605c0,0,38.42-18.271,20.905-53.206       C365.682,262.875,360.164,292.162,338.374,306.475z"/>
					<path style="fill:#FFBEDB;" d="M339.636,343.891c0,0,9.161-33.347,33.141-25.839       C372.777,318.052,358.35,347.657,339.636,343.891z"/>
				</g>
				<path style="fill:#222A5C;" d="M262.606,245.901c-2.953,0-5.351-1.047-7.128-3.115c-4.71-5.481-3.122-16.331-3.052-16.79      l2.978,0.452c-0.015,0.1-1.449,9.949,2.361,14.378c1.193,1.387,2.777,2.061,4.84,2.061c10.048,0,12.315-13.987,12.337-14.128      l2.978,0.459C277.034,234.988,272.69,245.901,262.606,245.901z"/>
				<path style="fill:#222A5C;" d="M327.693,253.406c-2.953,0-5.351-1.048-7.128-3.115c-4.71-5.481-3.122-16.331-3.052-16.79      l2.978,0.452c-0.015,0.1-1.449,9.949,2.362,14.378c1.193,1.387,2.776,2.061,4.839,2.061c10.048,0,12.315-13.987,12.337-14.128      l2.978,0.459C342.121,242.493,337.777,253.406,327.693,253.406z"/>
				<path style="fill:#222A5C;" d="M445.801,298.437l-2.437-1.771c0.168-0.235,4.102-5.793-0.165-8.931      c-4.517-3.321-11.768,2.745-11.842,2.807l-2.139-2.107c0.612-0.738,15.164-18.083,33.815-15.05      c6.074,0.994,10.088,3.403,11.933,7.162c2.84,5.785-0.695,12.437-0.847,12.718l-2.651-1.433      c0.029-0.056,2.949-5.591,0.789-9.971c-1.395-2.825-4.661-4.676-9.711-5.501c-9.634-1.576-18.289,3.106-23.986,7.473      c2.145-0.309,4.402-0.013,6.427,1.474C450.332,289.241,447.858,295.617,445.801,298.437z"/>
			</g>
		</g>
		<g>
			<path style="fill:#FFB93F;" d="M498.428,379.896c-11.844,13.831-65.178-2.773-65.178-2.773s47.007,54.904,30.042,63.613     c-16.994,8.678-92.059-40.711-92.059-40.711s22.902,73.496,0,77.052c-22.9,3.555-50.834-67.891-50.834-67.891     s-21.847,80.517-39.627,80.517c-17.778,0-35.557-77.745-35.557-77.745s-34.743,68.674-48.183,68.674     c-13.441,0-8.287-96.758-8.287-96.758s-34.774,44.99-54.121,38.57c-19.375-6.448,20.642-105.376,20.642-105.376     s-37.636,27.27-50.684,26.095c-12.838-1.174,69.819-80.607,72.229-82.897c-1.596,1.055-45.802,30.585-49.689,22.45     c-3.948-8.287,80.185-71.296,80.185-71.296l9.071-18.773l141.898,7.171l-145.846,12.988l-45.412,95.975     c0,0,72.682,81.781,176.975,62.829c92.931-16.935,60.355-142.743,52.189-169.863l28.78,1.446l16.753,47.129     c-12.595,4.038-22.267,10.275-22.267,10.275l-1.989,49.78c0,0,25.343-0.874,46.798,0.784     c16.753,1.295,31.128,4.158,29.048,10.185c-4.732,13.77-61.232,11.148-61.232,11.148S510.299,366.064,498.428,379.896z"/>
			<path style="fill:#FF9509;" d="M202.409,421.367c-1.59,0-2.984-0.672-4.045-1.954c-6.892-8.331,0.978-45.318,3.927-57.947     c-10.377,6.802-40.201,25.366-49.786,20.561c-1.523-0.761-2.557-2.072-3.077-3.895c-3.202-11.243,15.723-42.134,16.529-43.444     l2.566,1.58c-5.304,8.608-18.554,32.76-16.197,41.039c0.285,1.002,0.771,1.645,1.526,2.023     c7.993,3.999,38.772-14.884,49.956-22.497l3.263-2.223l-0.953,3.831c-3.493,14.03-11.277,51.985-5.432,59.049     c0.525,0.635,1.123,0.898,1.878,0.858c10.397-0.578,25.716-27.681,30.741-38.075l2.713,1.313     c-0.77,1.59-19.004,38.976-33.287,39.769C202.624,421.362,202.517,421.367,202.409,421.367z"/>
			<path style="fill:#FF9509;" d="M290.545,448.575c-1.005,0-1.947-0.359-2.767-1.065c-4.63-3.979-4.866-20.795-4.37-33.066     c-4.146,12.003-11.212,27.894-19.157,26.995c-1.675-0.19-3.099-1.052-4.233-2.563c-6.602-8.797-1.327-40.049-1.099-41.375     l2.969,0.509c-1.489,8.679-4.296,32.612,0.54,39.057c0.625,0.833,1.333,1.283,2.164,1.379     c7.124,0.806,15.861-22.452,19.715-37.302l2.958,0.52c-1.395,14.819-1.957,39.75,2.478,43.561c0.372,0.321,0.712,0.4,1.183,0.287     c6.72-1.68,19.388-34.926,25.795-55.488l1.146-3.676l1.654,3.477c10.795,22.706,29.126,53.291,36.081,50.246     c7.379-3.246-0.356-33.215-6.965-51.342l2.831-1.033c3.016,8.273,17.449,49.81,5.347,55.132c-0.643,0.283-1.318,0.418-2.02,0.418     c-11.359,0.004-29.772-35.317-36.346-48.717c-4.18,12.875-17.464,51.574-26.792,53.905     C291.28,448.528,290.909,448.575,290.545,448.575z"/>
			<path style="fill:#FF9509;" d="M416.832,418.281c-14.213,0-38.856-33.525-41.887-37.726l2.443-1.763     c12,16.628,33.985,41.053,41.887,35.788c7.919-5.279-6.866-37.764-18.045-56.999l-2.137-3.678l3.976,1.512     c19.993,7.603,38.868,12.205,40.383,9.832c1.415-2.203-10.938-13.075-25.92-22.809l1.642-2.528     c9.364,6.084,30.719,20.889,26.814,26.967c-3.408,5.3-26.794-2.317-40.101-7.193c6.959,12.533,26.367,49.865,15.058,57.404     C419.716,417.908,418.333,418.281,416.832,418.281z"/>
		</g>
		<g>
			<path style="fill:#F4E4CE;" d="M262.872,124.701l-114.297,5.794c0,0,44.244-107.353,53.724-108.191     c9.481-0.836-15.273,76.589-15.273,76.589l79.533,18.435L262.872,124.701z"/>
			<path style="fill:#F4E4CE;" d="M402.972,126.807l78.482-3.161c0,0-9.481-93.121,0-92.384C490.936,32.002,512,152.616,512,152.616     l-109.028-17.381V126.807z"/>
			<path style="fill:#555AFF;" d="M205.46,204.233l233.331,17.908c0,0,21.067-163.804-56.359-176.971     C305.006,32.002,239.167,104.686,205.46,204.233z"/>
			<polygon style="fill:#222A5C;" points="305.534,203.18 357.678,36.216 402.972,43.627 334.504,203.18    "/>
			<path style="fill:#F4E4CE;" d="M191.767,214.767l250.184,18.962c0,0,19.487-61.622-5.797-66.891     c-25.281-5.268-70.049,38.45-70.049,38.45s7.901-35.869-14.221-42.954c-22.122-7.084-62.68,35.698-62.68,35.698     s-3.156-46.994-22.646-49.629c-19.49-2.634-28.97,48.983-28.97,48.983s-11.057-53.197-29.495-51.617     C189.658,147.349,191.767,214.767,191.767,214.767z"/>
			<path style="fill:#FFB93F;" d="M354.566,128.343c0,2.509-3.821,4.541-8.535,4.541c-4.713,0-8.534-2.032-8.534-4.541     c0-2.507,3.821-4.539,8.534-4.539C350.745,123.804,354.566,125.836,354.566,128.343z"/>
			<path style="fill:#FFB93F;" d="M369.637,98.213c0,4.457-5.284,8.07-11.803,8.07c-6.518,0-11.802-3.614-11.802-8.07     c0-4.457,5.284-8.07,11.802-8.07C364.353,90.143,369.637,93.756,369.637,98.213z"/>
			<path style="fill:#FFB93F;" d="M381.69,59.757c0,3.052-3.711,5.525-8.287,5.525c-4.576,0-8.287-2.473-8.287-5.525     c0-3.05,3.711-5.523,8.287-5.523C377.98,54.234,381.69,56.707,381.69,59.757z"/>
		</g>
	</g>
</g>
<g>
</g>
<g>
</g>
<g>
</g>
<g>
</g>
<g>
</g>
<g>
</g>
<g>
</g>
<g>
</g>
<g>
</g>
<g>
</g>
<g>
</g>
<g>
</g>
<g>
</g>
<g>
</g>
<g>
</g>
</svg>
