<?xml version="1.0" encoding="iso-8859-1"?>
<!-- Generator: Adobe Illustrator 27.9.0, SVG Export Plug-In . SVG Version: 6.00 Build 0)  -->
<svg xmlns="http://www.w3.org/2000/svg" xmlns:xlink="http://www.w3.org/1999/xlink" version="1.1" id="Capa_1" x="0px" y="0px" viewBox="0 0 512 512" style="enable-background:new 0 0 512 512;" xml:space="preserve">
<g>
	<g>
		<g>
			<g>
				<path style="fill:#222A5C;" d="M327.729,109.324l-34.522-67.253c-36.903-17.038-78.747-20.088-121.437,2.516      c-8.018,4.249-15.205,8.648-21.784,13.147C30.173,8.377-17.153,114.69,5.482,216.277      c23.939,107.467,105.274,183.184,105.274,183.184l-31.19,4.235c161.546,82.936,56.886-159.447,56.886-159.447l107.183-12.324      L327.729,109.324z"/>
				<path style="fill:#555AFF;" d="M111.581,229.747c-0.583-0.924-56.993-93.338,37.388-173.215l2.032,2.401      c-92.325,78.133-37.327,168.24-36.762,169.141L111.581,229.747z"/>
				<path style="fill:#555AFF;" d="M73.969,325.655c-97.593-119.512-39.445-206.924-38.847-207.793l2.591,1.782      c-0.586,0.852-57.34,86.423,38.693,204.021L73.969,325.655z"/>
				<path style="fill:#555AFF;" d="M121.761,334.909C3.741,227.034,41.986,156.703,42.388,156.006l2.729,1.561      c-0.387,0.677-37.229,69,78.762,175.021L121.761,334.909z"/>
			</g>
			<path style="fill:#FFB93F;" d="M293.207,42.071c0.442,15.247-5.342,31.405-9.744,41.37c22.635,22.099-3.582,36.277-4.777,36.875     c6.066-8.519,3.362-18.61-1.32-27.003l-93.743,7.764l-7.89,130.114c0,0-19.531-14.468-47.409-19.104     c-6.57-1.093-12.301-0.881-17.222,0.536c-9.986,2.873-16.572,10.791-19.635,23.408c-9.035,37.199,22.932,59.101,96.967,24.491     l62.651,125.303l-8.897,10.971l-6.674,37.369c8.645,7.827,43.927,13.118,61.656-6.026l-7.481-26.94l-10.155-9.997l6.131-48.757     c0,0,45.582,14.9,29.361-15.75c0,0,82.207-24.741,105.406-88.681C436.619,193.467,377.867,81.051,293.207,42.071z"/>
			<g>
				<path style="fill:#222A5C;" d="M281.606,165.193c-3.432-1.715-6.978-1.831-10.521-0.361c-3.656,1.516-6.131,4.163-7.349,7.865      c-1.934,5.86-0.374,13.561,2.014,20.416l-18.199,2.788l0.479,3.107l18.84-2.886c0.602,1.529,1.225,2.981,1.842,4.338      l-19.473,6.832l1.044,2.966l19.774-6.936c1.747,3.563,3.174,5.965,3.352,6.263l2.695-1.618      c-0.132-0.223-13.308-22.391-9.385-34.284c0.936-2.835,2.757-4.78,5.569-5.946c2.717-1.124,5.296-1.033,7.914,0.269      c11.552,5.756,18.543,32.303,18.61,32.57l3.046-0.786C301.561,198.64,294.438,171.588,281.606,165.193z"/>
				<path style="fill:#222A5C;" d="M376.583,168.674l-0.866-3.021l-19.835,5.687c-0.282-1.463-0.614-3.007-1.007-4.603l17.038-8.545      l-1.412-2.809l-16.455,8.252c-2.017-6.972-5.2-14.154-10.167-17.816c-3.135-2.316-6.686-3.049-10.548-2.166      c-3.745,0.852-6.56,2.998-8.372,6.379c-6.766,12.639,3.067,38.825,3.487,39.934l2.941-1.117      c-0.098-0.258-9.75-25.957-3.656-37.334c1.381-2.577,3.441-4.148,6.299-4.797c2.965-0.68,5.578-0.144,7.982,1.629      c10.072,7.426,12.16,33.135,12.178,33.393l3.138-0.239c-0.028-0.347-0.252-3.133-0.887-7.05L376.583,168.674z"/>
				<g>
					<path style="fill:#222A5C;" d="M348.89,207.73c-1.354-1.622-3.119-2.485-5.249-2.566c-5.63-0.157-12.35,5.326-15.393,8.108       l-25.348-52.608l-2.831,1.363l27.264,56.585l1.565-1.61c2.419-2.482,9.806-8.877,14.625-8.695       c1.219,0.046,2.186,0.517,2.953,1.438c0.243,0.292,0.298,0.53,0.2,0.874c-1.366,4.774-21.176,12.924-33.339,16.94l-1.406,0.464       l4.783,18.149c-5.532,1.733-26.662,7.471-40.179-0.99c-6.723-4.213-10.665-11.437-11.718-21.474l-0.365-3.499l-2.364,2.609       c-1.424,1.573-34.767,38.904-23.006,69.324c4.638,11.996,12.958,19.68,24.059,22.223c2.588,0.593,5.28,0.881,8.046,0.881       c13.001-0.002,27.58-6.387,39.734-17.743l-2.149-2.296c-2.613,2.442-5.338,4.643-8.135,6.588       c-6.551-20.228-4.421-38.336-1.888-49.053c10.748-0.646,19.758-3.828,20.4-4.061l1.348-0.49l-4.774-18.117       c7.727-2.62,31.906-11.351,33.975-18.588C350.084,210.126,349.807,208.829,348.89,207.73z"/>
					<path style="fill:#F4E4CE;" d="M262.692,228.911c0,0-1.179,28.882,33.401,23.577       C296.093,252.488,246.778,276.261,262.692,228.911z"/>
					<path style="fill:#FF80B5;" d="M241.016,280.65c0,0,33.223-7.598,41.367,28.553       C282.383,309.203,246.256,316.015,241.016,280.65z"/>
				</g>
				<polygon style="fill:#222A5C;" points="234.553,158.407 277.812,144.865 241.78,172.366     "/>
				<polygon style="fill:#222A5C;" points="304.458,121.981 355.76,126.744 305.41,137.671     "/>
				<path style="fill:#222A5C;" d="M149.75,262.448c-2.146-2.943-4.728-9.594,0.854-13.698c2.1-1.549,4.439-1.862,6.686-1.541      c-5.953-4.553-14.975-9.436-25.008-7.793c-5.268,0.861-8.675,2.792-10.131,5.739c-2.253,4.57,0.792,10.344,0.823,10.402      l-2.766,1.495c-0.16-0.293-3.846-7.232-0.884-13.268c1.925-3.922,6.112-6.434,12.448-7.472      c19.423-3.151,34.638,14.931,35.277,15.701l-2.232,2.198c-0.074-0.063-7.641-6.393-12.35-2.929      c-4.482,3.295-0.353,9.07-0.175,9.314L149.75,262.448z"/>
			</g>
		</g>
		<g>
			<path style="fill:#F4E4CE;" d="M297.171,478.026c-12.983,4.086-25.149,5.658-36.247,5.501l-17.29-32.075l2.296-37.337     c8.645,7.827,27.411,20.182,45.14,1.038l14.65,28.177L297.171,478.026z"/>
			<path style="fill:#848BF1;" d="M260.924,483.527c-41.966-0.408-69.003-24.552-69.003-24.552l50.267-62.181l3.743,17.322     L260.924,483.527z"/>
			<path style="fill:#848BF1;" d="M343.066,453.694c-16.096,12.072-31.497,19.773-45.895,24.332l-6.1-62.872l-1.381-13.957     L343.066,453.694z"/>
		</g>
	</g>
	<g>
		<path style="fill:#222A5C;" d="M425.26,426.35c-49.383,3.11-90.634-13.698-92.135-37.537    c-1.151-18.304,21.474-35.422,54.396-43.799l-39.424-21.434l60.661,17.479c3.62-0.447,7.307-0.804,11.064-1.039    c49.383-3.108,90.63,13.697,92.135,37.538C513.456,401.396,474.64,423.242,425.26,426.35z"/>
		<g>
			<path style="fill:#FFBEDB;" d="M391.316,386.567l-0.037,6.434c-7.756,0.854-18.214,4.659-24.873-0.534     c-4.644-6.771-3.702-17.016,0.577-23.76c5.302-5.457,15.124-4.023,21.947-2.6c-0.254,3.302-0.179,6.58-0.043,9.899     c-5.301-1.721-12.508-2.184-17.327,0.867c-0.94,3.578-0.583,8.292,0.454,11.797C378.269,389.257,385.143,387.531,391.316,386.567     z"/>
			<path style="fill:#FFBEDB;" d="M411.528,366.068c-0.302,3.331-0.071,6.658-0.202,9.98l-4.584-0.164     c-0.117,4.188-0.094,8.31,0,12.496l4.209,0.083c-0.086,2.969-0.279,6.052,0.249,8.992l-14.809,0.249     c0-2.707-0.037-5.255-0.206-7.962l2.683-0.04c-0.275-5.162-0.645-10.16-1.035-15.302l-3.917-0.496     c-0.114-2.311-0.171-4.576-0.292-6.887C399.66,366.791,405.489,366.508,411.528,366.068z"/>
			<path style="fill:#FFBEDB;" d="M443.453,396.217l-6.266,0.95c-0.879-2.801-1.775-5.559-2.6-8.373l-10.149,0.37l-1.274,5.486     h-6.355c0.758-9.336,1.633-18.516,2.391-27.841c6.361-1.188,12.773-1.319,19.224-1.03     C440.023,375.951,441.334,386.135,443.453,396.217z M433.144,383.184c-0.367-1.831-0.538-5.086-1.568-6.68     c-0.844-0.219-1.86-0.214-2.742-0.207c-3.402-0.611-2.639,4.938-3.61,7.094L433.144,383.184z"/>
			<path style="fill:#FFBEDB;" d="M481.645,378.729c-0.417,13.416,0.275,18.712-15.384,17.487     c-12.454-0.402-17.572,1.927-18.826-12.992c-0.296-5.523,0.094-12.513,3.068-17.239c2.988-1.271,7.21-1.195,10.525-1.549     c6.064-0.41,12.452-0.067,18.143,2.083C482.487,368.997,481,375.023,481.645,378.729z M474.265,380.089     c0.939-7.262-11.793-4.45-16.169-3.938c-3.187,0.708-2.209,8.608-1.53,11.033c4.721,1.704,10.5,1.317,15.448,0.352     C475.166,386.997,473.87,382.335,474.265,380.089z"/>
		</g>
	</g>
</g>
<g>
</g>
<g>
</g>
<g>
</g>
<g>
</g>
<g>
</g>
<g>
</g>
<g>
</g>
<g>
</g>
<g>
</g>
<g>
</g>
<g>
</g>
<g>
</g>
<g>
</g>
<g>
</g>
<g>
</g>
</svg>
